G04 Generated by Ultiboard 14.1 *
%FSLAX33Y33*%
%MOMM*%

%ADD10C,0.001*%
%ADD11C,0.001*%
%ADD12C,0.254*%
%ADD13C,0.750*%
%ADD14C,0.167*%
%ADD15C,0.127*%
%ADD16C,2.000*%
%ADD17R,1.153X1.153*%
%ADD18C,0.847*%
%ADD19C,3.500*%
%ADD20C,1.500*%
%ADD21R,1.005X1.005*%
%ADD22C,0.995*%


G04 ColorRGB 0000FF for the following layer *
%LNCopper Bottom*%
%LPD*%
G54D10*
G36*
X881Y881D02*
X881Y881D01*
X881Y121039D01*
X80399Y121039D01*
X80399Y881D01*
X881Y881D01*
D02*
G37*
%LPC*%
G36*
X23539Y2163D02*
G75*
D01*
G03X23955Y2092I416J1187*
G01*
X23955Y2092D01*
X43989Y2092D01*
G75*
D01*
G03X44370Y2151I1J1258*
G01*
G74*
D01*
G03X44881Y2461I380J1199*
G01*
X44881Y2461D01*
X47119Y4700D01*
X47119Y4700D01*
X47879Y5459D01*
G75*
D01*
G03X48248Y6350I-889J891*
G01*
X48248Y6350D01*
X48248Y7497D01*
G74*
D01*
G03X48260Y7508I1258J1393*
G01*
G75*
D01*
G03X50800Y7508I1270J1382*
G01*
G75*
D01*
G03X53452Y10160I1270J1382*
G01*
G74*
D01*
G03X53825Y10764I1382J1270*
G01*
X53825Y10764D01*
X52736Y10764D01*
X52736Y10645D01*
G75*
D01*
G03X51404Y10645I-666J-1755*
G01*
X51404Y10645D01*
X51404Y10764D01*
X51285Y10764D01*
G75*
D01*
G03X51285Y12096I-1755J666*
G01*
X51285Y12096D01*
X51404Y12096D01*
X51404Y12482D01*
X52736Y12482D01*
X52736Y12096D01*
X53825Y12096D01*
G74*
D01*
G03X53625Y12482I1755J666*
G01*
X53625Y12482D01*
X58825Y12482D01*
G74*
D01*
G03X59702Y12838I0J1258*
G01*
X59702Y12838D01*
X59702Y12823D01*
G75*
D01*
G03X59441Y10327I1258J-1393*
G01*
G74*
D01*
G03X59076Y9393I1016J934*
G01*
X59076Y9393D01*
X59076Y8387D01*
G75*
D01*
G03X60457Y7006I1381J0*
G01*
X60457Y7006D01*
X61463Y7006D01*
G74*
D01*
G03X62619Y7632I0J1381*
G01*
X62619Y7632D01*
X62864Y7632D01*
G75*
D01*
G03X63016Y7641I1J1258*
G01*
G74*
D01*
G03X63756Y8001I151J1249*
G01*
X63756Y8001D01*
X64389Y8634D01*
G75*
D01*
G03X64758Y9525I-889J891*
G01*
X64758Y9525D01*
X64758Y12179D01*
X65291Y12712D01*
X68505Y12712D01*
G75*
D01*
G03X72465Y12712I1980J-4457*
G01*
X72465Y12712D01*
X73659Y12712D01*
G75*
D01*
G03X74080Y12784I1J1258*
G01*
G74*
D01*
G03X74551Y13081I420J1186*
G01*
X74551Y13081D01*
X77089Y15619D01*
G75*
D01*
G03X77458Y16510I-889J891*
G01*
X77458Y16510D01*
X77458Y83820D01*
G74*
D01*
G03X77089Y84711I1258J0*
G01*
X77089Y84711D01*
X72646Y89154D01*
G74*
D01*
G03X71755Y89523I891J889*
G01*
X71755Y89523D01*
X44971Y89523D01*
X44438Y90056D01*
X44438Y96397D01*
G74*
D01*
G03X44450Y96408I1258J1393*
G01*
G75*
D01*
G03X46990Y96408I1270J1382*
G01*
G75*
D01*
G03X49530Y96408I1270J1382*
G01*
G75*
D01*
G03X52070Y96408I1270J1382*
G01*
G75*
D01*
G03X54610Y96408I1270J1382*
G01*
G75*
D01*
G03X57150Y96408I1270J1382*
G01*
G75*
D01*
G03X59690Y96408I1270J1382*
G01*
G75*
D01*
G03X62230Y96408I1270J1382*
G01*
G75*
D01*
G03X62230Y99172I1270J1382*
G01*
G75*
D01*
G03X59690Y99172I-1270J-1382*
G01*
G75*
D01*
G03X57150Y99172I-1270J-1382*
G01*
G75*
D01*
G03X54610Y99172I-1270J-1382*
G01*
G75*
D01*
G03X52070Y99172I-1270J-1382*
G01*
G75*
D01*
G03X49530Y99172I-1270J-1382*
G01*
G75*
D01*
G03X46990Y99172I-1270J-1382*
G01*
G75*
D01*
G03X44450Y99172I-1270J-1382*
G01*
G75*
D01*
G03X41910Y99172I-1270J-1382*
G01*
G75*
D01*
G03X39370Y99172I-1270J-1382*
G01*
G75*
D01*
G03X36830Y99172I-1270J-1382*
G01*
G74*
D01*
G03X36226Y99545I1270J1382*
G01*
X36226Y99545D01*
X36226Y98456D01*
X36345Y98456D01*
G75*
D01*
G03X36345Y97124I1755J-666*
G01*
X36345Y97124D01*
X36226Y97124D01*
X36226Y96035D01*
G74*
D01*
G03X36830Y96408I666J1755*
G01*
G75*
D01*
G03X39370Y96408I1270J1382*
G01*
G74*
D01*
G03X39382Y96397I1270J1382*
G01*
X39382Y96397D01*
X39382Y87631D01*
G75*
D01*
G03X39750Y86740I1258J-1*
G01*
X39750Y86740D01*
X40778Y85713D01*
X34176Y85713D01*
X33008Y86881D01*
X33008Y109220D01*
G74*
D01*
G03X32639Y110111I1258J0*
G01*
X32639Y110111D01*
X31371Y111379D01*
G74*
D01*
G03X30480Y111748I891J889*
G01*
X30480Y111748D01*
X29457Y111748D01*
X29457Y111760D01*
G74*
D01*
G03X29363Y112156I882J0*
G01*
X29363Y112156D01*
X28094Y114693D01*
G74*
D01*
G03X27305Y115182I789J393*
G01*
X27305Y115182D01*
X27236Y115182D01*
G75*
D01*
G03X23564Y115182I-1836J388*
G01*
X23564Y115182D01*
X23496Y115182D01*
G75*
D01*
G03X22706Y114694I-1J-882*
G01*
X22706Y114694D01*
X21436Y112154D01*
G75*
D01*
G03X21343Y111759I789J-394*
G01*
X21343Y111759D01*
X21343Y111748D01*
X19686Y111748D01*
G75*
D01*
G03X18795Y111380I-1J-1258*
G01*
X18795Y111380D01*
X16624Y109208D01*
X15363Y109208D01*
G75*
D01*
G03X12577Y109208I-1393J-1258*
G01*
X12577Y109208D01*
X11431Y109208D01*
G75*
D01*
G03X10540Y108840I-1J-1258*
G01*
X10540Y108840D01*
X9270Y107570D01*
G75*
D01*
G03X8902Y106679I890J-890*
G01*
X8902Y106679D01*
X8902Y98826D01*
G75*
D01*
G03X12466Y95262I1258J-2306*
G01*
X12466Y95262D01*
X14084Y95262D01*
X14227Y95119D01*
X15252Y94094D01*
X15252Y52193D01*
G74*
D01*
G03X14760Y51479I1258J1393*
G01*
G74*
D01*
G03X14722Y51570I1750J679*
G01*
X14722Y51570D01*
X13951Y50800D01*
X14722Y50030D01*
G74*
D01*
G03X14760Y50121I1712J770*
G01*
G74*
D01*
G03X15252Y49407I1750J679*
G01*
X15252Y49407D01*
X15252Y46241D01*
X13449Y44438D01*
X11431Y44438D01*
G75*
D01*
G03X10540Y44070I-1J-1258*
G01*
X10540Y44070D01*
X8000Y41530D01*
G75*
D01*
G03X7632Y40639I890J-890*
G01*
X7632Y40639D01*
X7632Y17782D01*
G75*
D01*
G03X8000Y16890I1258J-2*
G01*
X8000Y16890D01*
X9270Y15620D01*
G74*
D01*
G03X9796Y15306I890J890*
G01*
G75*
D01*
G03X10160Y15252I364J1204*
G01*
X10160Y15252D01*
X12179Y15252D01*
X12860Y14571D01*
G74*
D01*
G03X12240Y14412I150J1871*
G01*
X12240Y14412D01*
X13010Y13641D01*
X13400Y14031D01*
X14341Y13090D01*
X13951Y12700D01*
X14722Y11930D01*
G74*
D01*
G03X14760Y12021I1712J770*
G01*
G75*
D01*
G03X17792Y11329I1750J679*
G01*
X17792Y11329D01*
X17792Y8257D01*
G75*
D01*
G03X18160Y7365I1258J-2*
G01*
X18160Y7365D01*
X23065Y2460D01*
G74*
D01*
G03X23539Y2163I890J890*
G01*
D02*
G37*
G36*
X10048Y72390D02*
G75*
D01*
G03X10048Y69850I1382J-1270*
G01*
G75*
D01*
G03X10048Y67310I1382J-1270*
G01*
G75*
D01*
G03X10048Y64770I1382J-1270*
G01*
G75*
D01*
G03X10048Y62230I1382J-1270*
G01*
G75*
D01*
G03X10048Y59690I1382J-1270*
G01*
G75*
D01*
G03X12812Y59690I1382J-1270*
G01*
G75*
D01*
G03X12812Y62230I-1382J1270*
G01*
G75*
D01*
G03X12812Y64770I-1382J1270*
G01*
G75*
D01*
G03X12812Y67310I-1382J1270*
G01*
G75*
D01*
G03X12812Y69850I-1382J1270*
G01*
G75*
D01*
G03X12812Y72390I-1382J1270*
G01*
G75*
D01*
G03X12812Y74930I-1382J1270*
G01*
G74*
D01*
G03X13185Y75534I1382J1270*
G01*
X13185Y75534D01*
X12096Y75534D01*
X12096Y75415D01*
G75*
D01*
G03X10764Y75415I-666J-1755*
G01*
X10764Y75415D01*
X10764Y75534D01*
X9675Y75534D01*
G74*
D01*
G03X10048Y74930I1755J666*
G01*
G75*
D01*
G03X10048Y72390I1382J-1270*
G01*
D02*
G37*
G36*
X36199Y107005D02*
G75*
D01*
G03X35645Y106451I0J-554*
G01*
X35645Y106451D01*
X35645Y103139D01*
G75*
D01*
G03X36199Y102585I554J0*
G01*
X36199Y102585D01*
X65811Y102585D01*
G75*
D01*
G03X66365Y103139I0J554*
G01*
X66365Y103139D01*
X66365Y106451D01*
G74*
D01*
G03X65811Y107005I554J0*
G01*
X65811Y107005D01*
X36199Y107005D01*
D02*
G37*
G36*
X49530Y114412D02*
G75*
D01*
G03X46990Y114412I-1270J-1382*
G01*
G75*
D01*
G03X44450Y114412I-1270J-1382*
G01*
G75*
D01*
G03X41910Y114412I-1270J-1382*
G01*
G75*
D01*
G03X39370Y114412I-1270J-1382*
G01*
G75*
D01*
G03X36830Y114412I-1270J-1382*
G01*
G75*
D01*
G03X36830Y111648I-1270J-1382*
G01*
G75*
D01*
G03X39370Y111648I1270J1382*
G01*
G75*
D01*
G03X41910Y111648I1270J1382*
G01*
G75*
D01*
G03X44450Y111648I1270J1382*
G01*
G75*
D01*
G03X46990Y111648I1270J1382*
G01*
G75*
D01*
G03X49530Y111648I1270J1382*
G01*
G75*
D01*
G03X52070Y111648I1270J1382*
G01*
G75*
D01*
G03X54610Y111648I1270J1382*
G01*
G75*
D01*
G03X57150Y111648I1270J1382*
G01*
G75*
D01*
G03X59690Y111648I1270J1382*
G01*
G75*
D01*
G03X62230Y111648I1270J1382*
G01*
G75*
D01*
G03X62230Y114412I1270J1382*
G01*
G75*
D01*
G03X59690Y114412I-1270J-1382*
G01*
G75*
D01*
G03X57150Y114412I-1270J-1382*
G01*
G75*
D01*
G03X54610Y114412I-1270J-1382*
G01*
G75*
D01*
G03X52070Y114412I-1270J-1382*
G01*
G75*
D01*
G03X49530Y114412I-1270J-1382*
G01*
D02*
G37*
G36*
X51570Y11430D02*
G75*
D01*
G03X51570Y11430I500J0*
G01*
D02*
G37*
G36*
X10930Y76200D02*
G75*
D01*
G03X10930Y76200I500J0*
G01*
D02*
G37*
G36*
X9675Y76866D02*
X9675Y76866D01*
X10764Y76866D01*
X10764Y77955D01*
G74*
D01*
G03X9675Y76866I666J1755*
G01*
D02*
G37*
G36*
X12096Y77955D02*
X12096Y77955D01*
X12096Y76866D01*
X13185Y76866D01*
G74*
D01*
G03X12096Y77955I1755J666*
G01*
D02*
G37*
G36*
X9228Y84544D02*
X9228Y84544D01*
X9228Y86068D01*
X7704Y86068D01*
G74*
D01*
G03X9228Y84544I2456J932*
G01*
D02*
G37*
G36*
X12616Y86068D02*
X12616Y86068D01*
X11092Y86068D01*
X11092Y84544D01*
G74*
D01*
G03X12616Y86068I932J2456*
G01*
D02*
G37*
G36*
X7704Y87932D02*
X7704Y87932D01*
X9228Y87932D01*
X9228Y89456D01*
G74*
D01*
G03X7704Y87932I932J2456*
G01*
D02*
G37*
G36*
X9160Y87000D02*
G75*
D01*
G03X9160Y87000I1000J0*
G01*
D02*
G37*
G36*
X11092Y89456D02*
X11092Y89456D01*
X11092Y87932D01*
X12616Y87932D01*
G74*
D01*
G03X11092Y89456I2456J932*
G01*
D02*
G37*
G36*
X13780Y49088D02*
X13780Y49088D01*
X13010Y49859D01*
X12240Y49088D01*
G75*
D01*
G03X13780Y49088I770J1712*
G01*
D02*
G37*
G36*
X11298Y51570D02*
G75*
D01*
G03X11298Y50030I1712J-770*
G01*
X11298Y50030D01*
X12069Y50800D01*
X11298Y51570D01*
D02*
G37*
G36*
X12240Y52512D02*
X12240Y52512D01*
X13010Y51741D01*
X13780Y52512D01*
G75*
D01*
G03X12240Y52512I-770J-1712*
G01*
D02*
G37*
G36*
X12560Y50800D02*
G75*
D01*
G03X12560Y50800I450J0*
G01*
D02*
G37*
G36*
X12560Y12700D02*
G75*
D01*
G03X12560Y12700I450J0*
G01*
D02*
G37*
G36*
X13780Y10988D02*
X13780Y10988D01*
X13010Y11759D01*
X12240Y10988D01*
G75*
D01*
G03X13780Y10988I770J1712*
G01*
D02*
G37*
G36*
X11298Y13470D02*
G75*
D01*
G03X11298Y11930I1712J-770*
G01*
X11298Y11930D01*
X12069Y12700D01*
X11298Y13470D01*
D02*
G37*
G36*
X2108Y113665D02*
G75*
D01*
G03X2108Y113665I4877J0*
G01*
D02*
G37*
G36*
X34894Y96035D02*
X34894Y96035D01*
X34894Y97124D01*
X33805Y97124D01*
G74*
D01*
G03X34894Y96035I1755J666*
G01*
D02*
G37*
G36*
X35060Y97790D02*
G75*
D01*
G03X35060Y97790I500J0*
G01*
D02*
G37*
G36*
X33805Y98456D02*
X33805Y98456D01*
X34894Y98456D01*
X34894Y99545D01*
G74*
D01*
G03X33805Y98456I666J1755*
G01*
D02*
G37*
%LPD*%
G36*
X71132Y57049D02*
X71132Y57049D01*
X71132Y44336D01*
X70599Y43803D01*
X66561Y43803D01*
X66033Y44331D01*
G74*
D01*
G03X66520Y45041I1263J1389*
G01*
G74*
D01*
G03X66558Y44950I1750J679*
G01*
X66558Y44950D01*
X67329Y45720D01*
X66558Y46490D01*
G74*
D01*
G03X66520Y46399I1712J770*
G01*
G75*
D01*
G03X63488Y47091I-1750J-679*
G01*
X63488Y47091D01*
X63488Y59690D01*
G74*
D01*
G03X63119Y60581I1258J0*
G01*
X63119Y60581D01*
X61851Y61849D01*
G74*
D01*
G03X61089Y62211I891J889*
G01*
G74*
D01*
G03X61072Y62230I1399J1251*
G01*
G75*
D01*
G03X61072Y64770I-1382J1270*
G01*
G75*
D01*
G03X61072Y67310I-1382J1270*
G01*
G75*
D01*
G03X61072Y69850I-1382J1270*
G01*
G75*
D01*
G03X61072Y72390I-1382J1270*
G01*
G74*
D01*
G03X61445Y72994I1382J1270*
G01*
X61445Y72994D01*
X60356Y72994D01*
X60356Y72875D01*
G75*
D01*
G03X59024Y72875I-666J-1755*
G01*
X59024Y72875D01*
X59024Y72994D01*
X57935Y72994D01*
G74*
D01*
G03X58308Y72390I1755J666*
G01*
G75*
D01*
G03X58308Y69850I1382J-1270*
G01*
G75*
D01*
G03X58308Y67310I1382J-1270*
G01*
G75*
D01*
G03X58308Y64770I1382J-1270*
G01*
G75*
D01*
G03X58308Y62230I1382J-1270*
G01*
G74*
D01*
G03X58297Y62218I1382J1270*
G01*
X58297Y62218D01*
X51321Y62218D01*
X50788Y62751D01*
X50788Y78105D01*
G74*
D01*
G03X50419Y78996I1258J0*
G01*
X50419Y78996D01*
X47119Y82295D01*
X47119Y82295D01*
X46611Y82804D01*
G74*
D01*
G03X45720Y83173I891J889*
G01*
X45720Y83173D01*
X31001Y83173D01*
X30468Y83706D01*
X30468Y91440D01*
G74*
D01*
G03X30099Y92331I1258J0*
G01*
X30099Y92331D01*
X28831Y93599D01*
G74*
D01*
G03X27940Y93968I891J889*
G01*
X27940Y93968D01*
X26793Y93968D01*
G74*
D01*
G03X26782Y93980I1393J1258*
G01*
G75*
D01*
G03X26782Y96520I-1382J1270*
G01*
G74*
D01*
G03X27155Y97124I1382J1270*
G01*
X27155Y97124D01*
X26066Y97124D01*
X26066Y97005D01*
G75*
D01*
G03X24734Y97005I-666J-1755*
G01*
X24734Y97005D01*
X24734Y97124D01*
X23645Y97124D01*
G74*
D01*
G03X24018Y96520I1755J666*
G01*
G75*
D01*
G03X24018Y93980I1382J-1270*
G01*
G75*
D01*
G03X24018Y91440I1382J-1270*
G01*
G75*
D01*
G03X24018Y88900I1382J-1270*
G01*
G75*
D01*
G03X26782Y88900I1382J-1270*
G01*
G75*
D01*
G03X26782Y91440I-1382J1270*
G01*
G74*
D01*
G03X26793Y91452I1382J1270*
G01*
X26793Y91452D01*
X27419Y91452D01*
X27952Y90919D01*
X27952Y83186D01*
G75*
D01*
G03X28320Y82295I1258J-1*
G01*
X28320Y82295D01*
X29590Y81025D01*
G75*
D01*
G03X30481Y80657I890J890*
G01*
X30481Y80657D01*
X31036Y80657D01*
X29360Y78981D01*
G75*
D01*
G03X28992Y78089I890J-890*
G01*
X28992Y78089D01*
X28992Y73752D01*
X28196Y74549D01*
G74*
D01*
G03X27305Y74918I891J889*
G01*
X27305Y74918D01*
X22983Y74918D01*
G74*
D01*
G03X22972Y74930I1393J1258*
G01*
G74*
D01*
G03X23345Y75534I1382J1270*
G01*
X23345Y75534D01*
X22256Y75534D01*
X22256Y75415D01*
G75*
D01*
G03X20924Y75415I-666J-1755*
G01*
X20924Y75415D01*
X20924Y75534D01*
X19835Y75534D01*
G74*
D01*
G03X20208Y74930I1755J666*
G01*
G75*
D01*
G03X20208Y72390I1382J-1270*
G01*
G75*
D01*
G03X20208Y69850I1382J-1270*
G01*
G75*
D01*
G03X20208Y67310I1382J-1270*
G01*
G75*
D01*
G03X20208Y64770I1382J-1270*
G01*
G75*
D01*
G03X20208Y62230I1382J-1270*
G01*
G74*
D01*
G03X19835Y61626I1382J1270*
G01*
X19835Y61626D01*
X20924Y61626D01*
X20924Y61745D01*
G75*
D01*
G03X22256Y61745I666J1755*
G01*
X22256Y61745D01*
X22256Y61626D01*
X23345Y61626D01*
G74*
D01*
G03X22972Y62230I1755J666*
G01*
G75*
D01*
G03X22972Y64770I-1382J1270*
G01*
G75*
D01*
G03X22972Y67310I-1382J1270*
G01*
G75*
D01*
G03X22972Y69850I-1382J1270*
G01*
G75*
D01*
G03X22972Y72390I-1382J1270*
G01*
G74*
D01*
G03X22983Y72402I1382J1270*
G01*
X22983Y72402D01*
X26784Y72402D01*
X27317Y71869D01*
X27317Y55881D01*
G75*
D01*
G03X27685Y54990I1258J-1*
G01*
X27685Y54990D01*
X29590Y53085D01*
G75*
D01*
G03X30481Y52717I890J890*
G01*
X30481Y52717D01*
X35039Y52717D01*
X35567Y52189D01*
G75*
D01*
G03X35448Y49530I1263J-1389*
G01*
G75*
D01*
G03X35448Y46990I1382J-1270*
G01*
G75*
D01*
G03X34955Y45625I1382J-1270*
G01*
X34955Y45625D01*
X34404Y45073D01*
X31750Y45073D01*
G75*
D01*
G03X31724Y45073I0J-1258*
G01*
G74*
D01*
G03X30860Y44705I26J1258*
G01*
X30860Y44705D01*
X27685Y41530D01*
G75*
D01*
G03X27317Y40638I890J-890*
G01*
X27317Y40638D01*
X27317Y37351D01*
X26784Y36818D01*
X22983Y36818D01*
G74*
D01*
G03X22972Y36830I1393J1258*
G01*
G74*
D01*
G03X23345Y37434I1382J1270*
G01*
X23345Y37434D01*
X22256Y37434D01*
X22256Y37315D01*
G75*
D01*
G03X20924Y37315I-666J-1755*
G01*
X20924Y37315D01*
X20924Y37434D01*
X19835Y37434D01*
G74*
D01*
G03X20208Y36830I1755J666*
G01*
G75*
D01*
G03X20208Y34290I1382J-1270*
G01*
G75*
D01*
G03X20208Y31750I1382J-1270*
G01*
G75*
D01*
G03X20208Y29210I1382J-1270*
G01*
G75*
D01*
G03X20208Y26670I1382J-1270*
G01*
G75*
D01*
G03X20208Y24130I1382J-1270*
G01*
G74*
D01*
G03X19835Y23526I1382J1270*
G01*
X19835Y23526D01*
X20924Y23526D01*
X20924Y23645D01*
G75*
D01*
G03X22256Y23645I666J1755*
G01*
X22256Y23645D01*
X22256Y23526D01*
X23345Y23526D01*
G74*
D01*
G03X22972Y24130I1755J666*
G01*
G75*
D01*
G03X22972Y26670I-1382J1270*
G01*
G75*
D01*
G03X22972Y29210I-1382J1270*
G01*
G75*
D01*
G03X22972Y31750I-1382J1270*
G01*
G75*
D01*
G03X22972Y34290I-1382J1270*
G01*
G74*
D01*
G03X22983Y34302I1382J1270*
G01*
X22983Y34302D01*
X27304Y34302D01*
G75*
D01*
G03X27570Y34330I1J1258*
G01*
G74*
D01*
G03X28196Y34671I265J1230*
G01*
X28196Y34671D01*
X28992Y35468D01*
X28992Y23091D01*
G75*
D01*
G03X29360Y22200I1258J-1*
G01*
X29360Y22200D01*
X32130Y19430D01*
G74*
D01*
G03X32891Y19069I890J890*
G01*
G74*
D01*
G03X33027Y18931I1399J1251*
G01*
X33027Y18931D01*
X29959Y15863D01*
X28576Y15863D01*
G75*
D01*
G03X27685Y15495I-1J-1258*
G01*
X27685Y15495D01*
X25780Y13590D01*
G75*
D01*
G03X25412Y12699I890J-890*
G01*
X25412Y12699D01*
X25412Y7622D01*
G75*
D01*
G03X25780Y6730I1258J-2*
G01*
X25780Y6730D01*
X26403Y6108D01*
X26151Y6108D01*
X23119Y9140D01*
X23119Y9140D01*
X22848Y9411D01*
X22848Y15240D01*
G74*
D01*
G03X22479Y16131I1258J0*
G01*
X22479Y16131D01*
X19038Y19571D01*
X19038Y30480D01*
G74*
D01*
G03X18669Y31371I1258J0*
G01*
X18669Y31371D01*
X16131Y33909D01*
G74*
D01*
G03X15240Y34278I891J889*
G01*
X15240Y34278D01*
X12823Y34278D01*
G74*
D01*
G03X12812Y34290I1393J1258*
G01*
G75*
D01*
G03X12812Y36830I-1382J1270*
G01*
G74*
D01*
G03X13185Y37434I1382J1270*
G01*
X13185Y37434D01*
X12096Y37434D01*
X12096Y37315D01*
G75*
D01*
G03X10764Y37315I-666J-1755*
G01*
X10764Y37315D01*
X10764Y37434D01*
X10148Y37434D01*
X10148Y38766D01*
X10764Y38766D01*
X10764Y39855D01*
G74*
D01*
G03X10148Y39471I666J1755*
G01*
X10148Y39471D01*
X10148Y40119D01*
X11951Y41922D01*
X13970Y41922D01*
G74*
D01*
G03X14861Y42291I0J1258*
G01*
X14861Y42291D01*
X17399Y44829D01*
G75*
D01*
G03X17768Y45720I-889J891*
G01*
X17768Y45720D01*
X17768Y49407D01*
G75*
D01*
G03X17768Y52193I-1258J1393*
G01*
X17768Y52193D01*
X17768Y94615D01*
G74*
D01*
G03X17399Y95506I1258J0*
G01*
X17399Y95506D01*
X15496Y97409D01*
G74*
D01*
G03X14957Y97728I891J889*
G01*
G75*
D01*
G03X14604Y97778I-352J-1208*
G01*
X14604Y97778D01*
X12466Y97778D01*
G74*
D01*
G03X11418Y98826I2306J1258*
G01*
X11418Y98826D01*
X11418Y106159D01*
X11951Y106692D01*
X12577Y106692D01*
G74*
D01*
G03X13291Y106200I1393J1258*
G01*
G74*
D01*
G03X13200Y106162I679J1750*
G01*
X13200Y106162D01*
X13970Y105391D01*
X14740Y106162D01*
G74*
D01*
G03X14649Y106200I770J1712*
G01*
G74*
D01*
G03X15363Y106692I679J1750*
G01*
X15363Y106692D01*
X17145Y106692D01*
G74*
D01*
G03X18036Y107061I0J1258*
G01*
X18036Y107061D01*
X20206Y109232D01*
X21343Y109232D01*
X21343Y109222D01*
G75*
D01*
G03X21436Y108826I882J-2*
G01*
X21436Y108826D01*
X22706Y106286D01*
G74*
D01*
G03X23374Y105806I789J394*
G01*
G75*
D01*
G03X23495Y105798I121J874*
G01*
X23495Y105798D01*
X25085Y105798D01*
G75*
D01*
G03X25715Y105798I315J-388*
G01*
X25715Y105798D01*
X27304Y105798D01*
G75*
D01*
G03X27726Y105905I1J882*
G01*
G74*
D01*
G03X28094Y106287I421J775*
G01*
X28094Y106287D01*
X29363Y108824D01*
G75*
D01*
G03X29457Y109220I-788J396*
G01*
X29457Y109220D01*
X29457Y109232D01*
X29959Y109232D01*
X30492Y108699D01*
X30492Y86361D01*
G75*
D01*
G03X30860Y85470I1258J-1*
G01*
X30860Y85470D01*
X32765Y83565D01*
G75*
D01*
G03X33656Y83197I890J890*
G01*
X33656Y83197D01*
X62999Y83197D01*
G74*
D01*
G03X63512Y82427I1771J623*
G01*
X63512Y82427D01*
X63512Y81282D01*
G75*
D01*
G03X63880Y80390I1258J-2*
G01*
X63880Y80390D01*
X65150Y79120D01*
G74*
D01*
G03X65676Y78806I890J890*
G01*
G75*
D01*
G03X66040Y78752I364J1204*
G01*
X66040Y78752D01*
X70599Y78752D01*
X71132Y78219D01*
X71132Y77571D01*
G75*
D01*
G03X68468Y74930I-1282J-1371*
G01*
G75*
D01*
G03X68468Y72390I1382J-1270*
G01*
G75*
D01*
G03X68468Y69850I1382J-1270*
G01*
G75*
D01*
G03X68468Y67310I1382J-1270*
G01*
G75*
D01*
G03X68468Y64770I1382J-1270*
G01*
G75*
D01*
G03X68468Y62230I1382J-1270*
G01*
G75*
D01*
G03X68468Y59690I1382J-1270*
G01*
G74*
D01*
G03X68095Y59086I1382J1270*
G01*
X68095Y59086D01*
X69184Y59086D01*
X69184Y59205D01*
G75*
D01*
G03X70516Y59205I666J1755*
G01*
X70516Y59205D01*
X70516Y59086D01*
X71132Y59086D01*
X71132Y57754D01*
X70516Y57754D01*
X70516Y56665D01*
G74*
D01*
G03X71132Y57049I666J1755*
G01*
D02*
G37*
%LPC*%
G36*
X69040Y47432D02*
G75*
D01*
G03X67500Y47432I-770J-1712*
G01*
X67500Y47432D01*
X67813Y47119D01*
X68270Y46661D01*
X68727Y47119D01*
X68727Y47119D01*
X69040Y47432D01*
D02*
G37*
G36*
X22256Y77955D02*
X22256Y77955D01*
X22256Y76866D01*
X23345Y76866D01*
G74*
D01*
G03X22256Y77955I1755J666*
G01*
D02*
G37*
G36*
X22256Y39855D02*
X22256Y39855D01*
X22256Y38766D01*
X23345Y38766D01*
G74*
D01*
G03X22256Y39855I1755J666*
G01*
D02*
G37*
G36*
X22972Y59690D02*
G74*
D01*
G03X23345Y60294I1382J1270*
G01*
X23345Y60294D01*
X22256Y60294D01*
X22256Y60175D01*
G75*
D01*
G03X20924Y60175I-666J-1755*
G01*
X20924Y60175D01*
X20924Y60294D01*
X19835Y60294D01*
G74*
D01*
G03X20208Y59690I1755J666*
G01*
G75*
D01*
G03X22972Y59690I1382J-1270*
G01*
D02*
G37*
G36*
X21162Y23119D02*
G75*
D01*
G03X21162Y23119I428J-259*
G01*
D02*
G37*
G36*
X22972Y21590D02*
G74*
D01*
G03X23345Y22194I1382J1270*
G01*
X23345Y22194D01*
X22256Y22194D01*
X22256Y22075D01*
G75*
D01*
G03X20924Y22075I-666J-1755*
G01*
X20924Y22075D01*
X20924Y22194D01*
X19835Y22194D01*
G74*
D01*
G03X20208Y21590I1755J666*
G01*
G75*
D01*
G03X22972Y21590I1382J-1270*
G01*
D02*
G37*
G36*
X69982Y46490D02*
X69982Y46490D01*
X69211Y45720D01*
X69982Y44950D01*
G75*
D01*
G03X69982Y46490I-1712J770*
G01*
D02*
G37*
G36*
X67820Y45720D02*
G75*
D01*
G03X67820Y45720I450J0*
G01*
D02*
G37*
G36*
X69040Y44008D02*
X69040Y44008D01*
X68270Y44779D01*
X67500Y44008D01*
G75*
D01*
G03X69040Y44008I770J1712*
G01*
D02*
G37*
G36*
X24900Y97790D02*
G75*
D01*
G03X24900Y97790I500J0*
G01*
D02*
G37*
G36*
X23645Y98456D02*
X23645Y98456D01*
X24734Y98456D01*
X24734Y99664D01*
X23645Y99664D01*
G74*
D01*
G03X24018Y99060I1755J666*
G01*
G74*
D01*
G03X23645Y98456I1382J1270*
G01*
D02*
G37*
G36*
X24900Y100330D02*
G75*
D01*
G03X24900Y100330I500J0*
G01*
D02*
G37*
G36*
X27155Y99664D02*
X27155Y99664D01*
X26066Y99664D01*
X26066Y98456D01*
X27155Y98456D01*
G74*
D01*
G03X26782Y99060I1755J666*
G01*
G74*
D01*
G03X27155Y99664I1382J1270*
G01*
D02*
G37*
G36*
X23645Y100996D02*
X23645Y100996D01*
X24734Y100996D01*
X24734Y102204D01*
X23645Y102204D01*
G74*
D01*
G03X24018Y101600I1755J666*
G01*
G74*
D01*
G03X23645Y100996I1382J1270*
G01*
D02*
G37*
G36*
X27155Y102204D02*
X27155Y102204D01*
X26066Y102204D01*
X26066Y100996D01*
X27155Y100996D01*
G74*
D01*
G03X26782Y101600I1755J666*
G01*
G74*
D01*
G03X27155Y102204I1382J1270*
G01*
D02*
G37*
G36*
X23645Y103536D02*
X23645Y103536D01*
X24734Y103536D01*
X24734Y104744D01*
X23645Y104744D01*
G74*
D01*
G03X24018Y104140I1755J666*
G01*
G74*
D01*
G03X23645Y103536I1382J1270*
G01*
D02*
G37*
G36*
X24900Y102870D02*
G75*
D01*
G03X24900Y102870I500J0*
G01*
D02*
G37*
G36*
X27155Y104744D02*
X27155Y104744D01*
X26066Y104744D01*
X26066Y103536D01*
X27155Y103536D01*
G74*
D01*
G03X26782Y104140I1755J666*
G01*
G74*
D01*
G03X27155Y104744I1382J1270*
G01*
D02*
G37*
G36*
X21090Y60960D02*
G75*
D01*
G03X21090Y60960I500J0*
G01*
D02*
G37*
G36*
X21090Y76200D02*
G75*
D01*
G03X21090Y76200I500J0*
G01*
D02*
G37*
G36*
X19835Y76866D02*
X19835Y76866D01*
X20924Y76866D01*
X20924Y77955D01*
G74*
D01*
G03X19835Y76866I666J1755*
G01*
D02*
G37*
G36*
X12258Y105220D02*
G75*
D01*
G03X12258Y103680I1712J-770*
G01*
X12258Y103680D01*
X13029Y104450D01*
X12258Y105220D01*
D02*
G37*
G36*
X14740Y102738D02*
X14740Y102738D01*
X13970Y103509D01*
X13200Y102738D01*
G75*
D01*
G03X14740Y102738I770J1712*
G01*
D02*
G37*
G36*
X15682Y105220D02*
X15682Y105220D01*
X14911Y104450D01*
X15682Y103680D01*
G75*
D01*
G03X15682Y105220I-1712J770*
G01*
D02*
G37*
G36*
X13520Y104450D02*
G75*
D01*
G03X13520Y104450I450J0*
G01*
D02*
G37*
G36*
X69350Y58420D02*
G75*
D01*
G03X69350Y58420I500J0*
G01*
D02*
G37*
G36*
X69184Y56665D02*
X69184Y56665D01*
X69184Y57754D01*
X68095Y57754D01*
G74*
D01*
G03X69184Y56665I1755J666*
G01*
D02*
G37*
G36*
X59190Y73660D02*
G75*
D01*
G03X59190Y73660I500J0*
G01*
D02*
G37*
G36*
X60356Y74445D02*
X60356Y74445D01*
X60356Y74326D01*
X61445Y74326D01*
G74*
D01*
G03X61072Y74930I1755J666*
G01*
G75*
D01*
G03X58308Y74930I-1382J1270*
G01*
G74*
D01*
G03X57935Y74326I1382J1270*
G01*
X57935Y74326D01*
X59024Y74326D01*
X59024Y74445D01*
G75*
D01*
G03X60356Y74445I666J1755*
G01*
D02*
G37*
G36*
X12096Y39855D02*
X12096Y39855D01*
X12096Y38766D01*
X13185Y38766D01*
G74*
D01*
G03X12096Y39855I1755J666*
G01*
D02*
G37*
G36*
X10930Y38100D02*
G75*
D01*
G03X10930Y38100I500J0*
G01*
D02*
G37*
G36*
X21090Y38100D02*
G75*
D01*
G03X21090Y38100I500J0*
G01*
D02*
G37*
G36*
X19835Y38766D02*
X19835Y38766D01*
X20924Y38766D01*
X20924Y39855D01*
G74*
D01*
G03X19835Y38766I666J1755*
G01*
D02*
G37*
%LPD*%
G36*
X66028Y19685D02*
X66028Y19685D01*
X66028Y23609D01*
X66561Y24142D01*
X68457Y24142D01*
G74*
D01*
G03X68468Y24130I1393J1258*
G01*
G75*
D01*
G03X68468Y21590I1382J-1270*
G01*
G74*
D01*
G03X68095Y20986I1382J1270*
G01*
X68095Y20986D01*
X69184Y20986D01*
X69184Y21105D01*
G75*
D01*
G03X70516Y21105I666J1755*
G01*
X70516Y21105D01*
X70516Y20986D01*
X71605Y20986D01*
G74*
D01*
G03X71232Y21590I1755J666*
G01*
G75*
D01*
G03X71232Y24130I-1382J1270*
G01*
G75*
D01*
G03X71232Y26670I-1382J1270*
G01*
G75*
D01*
G03X71232Y29210I-1382J1270*
G01*
G75*
D01*
G03X71232Y31750I-1382J1270*
G01*
G75*
D01*
G03X71232Y34290I-1382J1270*
G01*
G75*
D01*
G03X71232Y36830I-1382J1270*
G01*
G75*
D01*
G03X68468Y36830I-1382J1270*
G01*
G75*
D01*
G03X68468Y34290I1382J-1270*
G01*
G75*
D01*
G03X68468Y31750I1382J-1270*
G01*
G75*
D01*
G03X68468Y29210I1382J-1270*
G01*
G75*
D01*
G03X68468Y26670I1382J-1270*
G01*
G74*
D01*
G03X68457Y26658I1382J1270*
G01*
X68457Y26658D01*
X66041Y26658D01*
G75*
D01*
G03X65150Y26290I-1J-1258*
G01*
X65150Y26290D01*
X63880Y25020D01*
G75*
D01*
G03X63512Y24129I890J-890*
G01*
X63512Y24129D01*
X63512Y20206D01*
X58304Y14998D01*
X37871Y14998D01*
G75*
D01*
G03X36980Y14630I-1J-1258*
G01*
X36980Y14630D01*
X35940Y13590D01*
G74*
D01*
G03X35579Y12829I890J890*
G01*
G74*
D01*
G03X35560Y12812I1251J1399*
G01*
G75*
D01*
G03X33020Y12812I-1270J-1382*
G01*
G74*
D01*
G03X33013Y12819I1270J1382*
G01*
X33013Y12819D01*
X35446Y15252D01*
X42545Y15252D01*
G74*
D01*
G03X43436Y15621I0J1258*
G01*
X43436Y15621D01*
X45377Y17563D01*
G75*
D01*
G03X48022Y16522I1613J217*
G01*
X48022Y16522D01*
X49530Y16522D01*
G74*
D01*
G03X50421Y16891I0J1258*
G01*
X50421Y16891D01*
X54229Y20699D01*
G75*
D01*
G03X54598Y21590I-889J891*
G01*
X54598Y21590D01*
X54598Y27419D01*
X55892Y28713D01*
X55892Y24766D01*
G75*
D01*
G03X56260Y23875I1258J-1*
G01*
X56260Y23875D01*
X57017Y23119D01*
X57931Y22205D01*
G74*
D01*
G03X58308Y21590I1759J655*
G01*
G74*
D01*
G03X57935Y20986I1382J1270*
G01*
X57935Y20986D01*
X59024Y20986D01*
X59024Y21105D01*
G75*
D01*
G03X60356Y21105I666J1755*
G01*
X60356Y21105D01*
X60356Y20986D01*
X61445Y20986D01*
G74*
D01*
G03X61072Y21590I1755J666*
G01*
G75*
D01*
G03X61072Y24130I-1382J1270*
G01*
G75*
D01*
G03X61072Y26670I-1382J1270*
G01*
G75*
D01*
G03X61072Y29210I-1382J1270*
G01*
G75*
D01*
G03X61072Y31750I-1382J1270*
G01*
G75*
D01*
G03X61072Y34290I-1382J1270*
G01*
G74*
D01*
G03X61445Y34894I1382J1270*
G01*
X61445Y34894D01*
X60356Y34894D01*
X60356Y34775D01*
G75*
D01*
G03X59024Y34775I-666J-1755*
G01*
X59024Y34775D01*
X59024Y34894D01*
X58408Y34894D01*
X58408Y36226D01*
X59024Y36226D01*
X59024Y36345D01*
G75*
D01*
G03X60356Y36345I666J1755*
G01*
X60356Y36345D01*
X60356Y36226D01*
X61445Y36226D01*
G74*
D01*
G03X61072Y36830I1755J666*
G01*
G75*
D01*
G03X61061Y39382I-1382J1270*
G01*
X61061Y39382D01*
X61594Y39382D01*
G75*
D01*
G03X61746Y39391I1J1258*
G01*
G74*
D01*
G03X62486Y39751I151J1249*
G01*
X62486Y39751D01*
X63119Y40384D01*
G75*
D01*
G03X63488Y41275I-889J891*
G01*
X63488Y41275D01*
X63488Y44349D01*
G74*
D01*
G03X63512Y44327I1282J1371*
G01*
X63512Y44327D01*
X63512Y43816D01*
G75*
D01*
G03X63880Y42925I1258J-1*
G01*
X63880Y42925D01*
X65150Y41655D01*
G75*
D01*
G03X66041Y41287I890J890*
G01*
X66041Y41287D01*
X71120Y41287D01*
G74*
D01*
G03X72011Y41656I0J1258*
G01*
X72011Y41656D01*
X73037Y42683D01*
X73037Y18301D01*
X71869Y17133D01*
X63997Y17133D01*
X65659Y18794D01*
G75*
D01*
G03X66028Y19685I-889J891*
G01*
D02*
G37*
%LPC*%
G36*
X71605Y19654D02*
X71605Y19654D01*
X70516Y19654D01*
X70516Y18565D01*
G74*
D01*
G03X71605Y19654I666J1755*
G01*
D02*
G37*
G36*
X69184Y18565D02*
X69184Y18565D01*
X69184Y19654D01*
X68095Y19654D01*
G74*
D01*
G03X69184Y18565I1755J666*
G01*
D02*
G37*
G36*
X69350Y20320D02*
G75*
D01*
G03X69350Y20320I500J0*
G01*
D02*
G37*
G36*
X59024Y18565D02*
X59024Y18565D01*
X59024Y19654D01*
X57935Y19654D01*
G74*
D01*
G03X59024Y18565I1755J666*
G01*
D02*
G37*
G36*
X59190Y20320D02*
G75*
D01*
G03X59190Y20320I500J0*
G01*
D02*
G37*
G36*
X61445Y19654D02*
X61445Y19654D01*
X60356Y19654D01*
X60356Y18565D01*
G74*
D01*
G03X61445Y19654I666J1755*
G01*
D02*
G37*
G36*
X59190Y35560D02*
G75*
D01*
G03X59190Y35560I500J0*
G01*
D02*
G37*
%LPD*%
G36*
X46142Y44462D02*
X46142Y44462D01*
X47739Y44462D01*
X48392Y43809D01*
X48392Y39348D01*
G74*
D01*
G03X48241Y39499I1402J1248*
G01*
G74*
D01*
G03X47879Y40261I1251J129*
G01*
X47879Y40261D01*
X45111Y43029D01*
G74*
D01*
G03X44385Y43387I891J889*
G01*
G75*
D01*
G03X44219Y43398I-165J-1247*
G01*
X44219Y43398D01*
X36287Y43398D01*
X36735Y43845D01*
G75*
D01*
G03X38212Y46990I95J1875*
G01*
G75*
D01*
G03X38212Y49530I-1382J1270*
G01*
G75*
D01*
G03X38088Y52193I-1382J1270*
G01*
X38088Y52193D01*
X38088Y52705D01*
G74*
D01*
G03X37719Y53596I1258J0*
G01*
X37719Y53596D01*
X36451Y54864D01*
G74*
D01*
G03X35560Y55233I891J889*
G01*
X35560Y55233D01*
X31001Y55233D01*
X29833Y56401D01*
X29833Y59828D01*
X32130Y57530D01*
G74*
D01*
G03X32891Y57169I890J890*
G01*
G75*
D01*
G03X36160Y58581I1399J1251*
G01*
X36160Y58581D01*
X38874Y55867D01*
X38874Y47499D01*
G75*
D01*
G03X39242Y46608I1258J-1*
G01*
X39242Y46608D01*
X41020Y44830D01*
G75*
D01*
G03X41911Y44462I890J890*
G01*
X41911Y44462D01*
X42758Y44462D01*
G75*
D01*
G03X43873Y43837I1115J681*
G01*
X43873Y43837D01*
X45027Y43837D01*
G74*
D01*
G03X46142Y44462I0J1306*
G01*
D02*
G37*
G36*
X60972Y57049D02*
X60972Y57049D01*
X60972Y41898D01*
X58959Y41898D01*
G75*
D01*
G03X58526Y41821I0J-1258*
G01*
G74*
D01*
G03X58069Y41530I433J1181*
G01*
X58069Y41530D01*
X56908Y40368D01*
X56908Y48490D01*
G74*
D01*
G03X56539Y49381I1258J0*
G01*
X56539Y49381D01*
X52693Y53226D01*
X52693Y57785D01*
G74*
D01*
G03X52324Y58676I1258J0*
G01*
X52324Y58676D01*
X51297Y59702D01*
X58297Y59702D01*
G74*
D01*
G03X58308Y59690I1393J1258*
G01*
G74*
D01*
G03X57935Y59086I1382J1270*
G01*
X57935Y59086D01*
X59024Y59086D01*
X59024Y59205D01*
G75*
D01*
G03X60356Y59205I666J1755*
G01*
X60356Y59205D01*
X60356Y59086D01*
X60972Y59086D01*
X60972Y57754D01*
X60356Y57754D01*
X60356Y56665D01*
G74*
D01*
G03X60972Y57049I666J1755*
G01*
D02*
G37*
%LPC*%
G36*
X59190Y58420D02*
G75*
D01*
G03X59190Y58420I500J0*
G01*
D02*
G37*
G36*
X59024Y56665D02*
X59024Y56665D01*
X59024Y57754D01*
X57935Y57754D01*
G74*
D01*
G03X59024Y56665I1755J666*
G01*
D02*
G37*
%LPD*%
G36*
X16498Y29210D02*
X16498Y29210D01*
X16498Y18301D01*
X19939Y14861D01*
G74*
D01*
G02X20308Y13970I889J891*
G01*
X20308Y13970D01*
X20308Y8776D01*
X20340Y8744D01*
G75*
D01*
G02X20332Y8891I1250J146*
G01*
X20332Y8891D01*
X20332Y14719D01*
X16890Y18160D01*
G75*
D01*
G02X16522Y19051I890J890*
G01*
X16522Y19051D01*
X16522Y29959D01*
X14719Y31762D01*
X12823Y31762D01*
G74*
D01*
G02X12812Y31750I1393J1258*
G01*
G74*
D01*
G02X12823Y31738I1382J1270*
G01*
X12823Y31738D01*
X13970Y31738D01*
G74*
D01*
G02X14861Y31369I0J1258*
G01*
X14861Y31369D01*
X16129Y30101D01*
G74*
D01*
G02X16498Y29210I889J891*
G01*
D02*
G37*
G36*
X35672Y21590D02*
G75*
D01*
G03X35672Y24130I-1382J1270*
G01*
G75*
D01*
G03X35672Y26670I-1382J1270*
G01*
G75*
D01*
G03X35672Y29210I-1382J1270*
G01*
G75*
D01*
G03X35672Y31750I-1382J1270*
G01*
G75*
D01*
G03X35672Y34290I-1382J1270*
G01*
G75*
D01*
G03X35672Y36830I-1382J1270*
G01*
G74*
D01*
G03X35683Y36842I1382J1270*
G01*
X35683Y36842D01*
X40119Y36842D01*
X40652Y36309D01*
X40652Y24131D01*
G75*
D01*
G03X41020Y23240I1258J-1*
G01*
X41020Y23240D01*
X41142Y23119D01*
X41142Y23119D01*
X44258Y20003D01*
X42024Y17768D01*
X35369Y17768D01*
G75*
D01*
G03X35548Y18415I-1079J647*
G01*
X35548Y18415D01*
X35548Y18927D01*
G75*
D01*
G03X35672Y21590I-1258J1393*
G01*
D02*
G37*
G36*
X45120Y22699D02*
X45120Y22699D01*
X44700Y23119D01*
X44700Y23119D01*
X43168Y24651D01*
X43168Y36830D01*
G74*
D01*
G03X42799Y37721I1258J0*
G01*
X42799Y37721D01*
X41531Y38989D01*
G74*
D01*
G03X40640Y39358I891J889*
G01*
X40640Y39358D01*
X35683Y39358D01*
G74*
D01*
G03X35661Y39382I1393J1258*
G01*
X35661Y39382D01*
X41389Y39382D01*
X43192Y37579D01*
X43192Y31752D01*
G75*
D01*
G03X43560Y30860I1258J-2*
G01*
X43560Y30860D01*
X44830Y29590D01*
G74*
D01*
G03X45356Y29276I890J890*
G01*
G74*
D01*
G03X45591Y29229I364J1204*
G01*
G74*
D01*
G03X45608Y29210I1399J1251*
G01*
G75*
D01*
G03X45608Y26670I1382J-1270*
G01*
G75*
D01*
G03X45608Y24130I1382J-1270*
G01*
G75*
D01*
G03X45120Y22699I1382J-1270*
G01*
D02*
G37*
G36*
X35661Y77482D02*
X35661Y77482D01*
X41389Y77482D01*
X43192Y75679D01*
X43192Y69852D01*
G75*
D01*
G03X43560Y68960I1258J-2*
G01*
X43560Y68960D01*
X44830Y67690D01*
G74*
D01*
G03X45356Y67376I890J890*
G01*
G74*
D01*
G03X45591Y67329I364J1204*
G01*
G74*
D01*
G03X45608Y67310I1399J1251*
G01*
G75*
D01*
G03X45608Y64770I1382J-1270*
G01*
G75*
D01*
G03X45608Y62230I1382J-1270*
G01*
G75*
D01*
G03X45120Y60799I1382J-1270*
G01*
X45120Y60799D01*
X43168Y62751D01*
X43168Y74930D01*
G74*
D01*
G03X42799Y75821I1258J0*
G01*
X42799Y75821D01*
X41531Y77089D01*
G74*
D01*
G03X40640Y77458I891J889*
G01*
X40640Y77458D01*
X35683Y77458D01*
G74*
D01*
G03X35661Y77482I1393J1258*
G01*
D02*
G37*
G36*
X13982Y17781D02*
X13982Y17781D01*
X13982Y28689D01*
X13449Y29222D01*
X12823Y29222D01*
G74*
D01*
G02X12812Y29210I1393J1258*
G01*
G75*
D01*
G02X12812Y26670I-1382J-1270*
G01*
G75*
D01*
G02X12812Y24130I-1382J-1270*
G01*
G75*
D01*
G02X12812Y21590I-1382J-1270*
G01*
G75*
D01*
G02X10148Y18949I-1382J-1270*
G01*
X10148Y18949D01*
X10148Y18301D01*
X10681Y17768D01*
X12699Y17768D01*
G75*
D01*
G02X12830Y17761I1J-1258*
G01*
G74*
D01*
G02X13591Y17399I130J1251*
G01*
X13591Y17399D01*
X16415Y14575D01*
G75*
D01*
G02X16671Y14570I95J-1875*
G01*
X16671Y14570D01*
X14350Y16890D01*
G75*
D01*
G02X13982Y17781I890J890*
G01*
D02*
G37*
G36*
X35683Y74942D02*
X35683Y74942D01*
X40119Y74942D01*
X40652Y74409D01*
X40652Y62727D01*
X36451Y66929D01*
G74*
D01*
G03X35689Y67291I891J889*
G01*
G74*
D01*
G03X35672Y67310I1399J1251*
G01*
G75*
D01*
G03X35672Y69850I-1382J1270*
G01*
G75*
D01*
G03X35672Y72390I-1382J1270*
G01*
G75*
D01*
G03X35672Y74930I-1382J1270*
G01*
G74*
D01*
G03X35683Y74942I1382J1270*
G01*
D02*
G37*
G36*
X26021Y113933D02*
G75*
D01*
G02X24779Y113933I-621J1637*
G01*
X24779Y113933D01*
X24779Y113651D01*
X23763Y113651D01*
G74*
D01*
G02X24195Y114300I1637J621*
G01*
X24195Y114300D01*
X23495Y114300D01*
X22225Y111760D01*
X22225Y109220D01*
X23495Y106680D01*
X24195Y106680D01*
G74*
D01*
G02X23763Y107329I1205J1270*
G01*
X23763Y107329D01*
X24779Y107329D01*
X24779Y107047D01*
G75*
D01*
G02X26021Y107047I621J-1637*
G01*
X26021Y107047D01*
X26021Y107329D01*
X27037Y107329D01*
G74*
D01*
G02X26605Y106680I1637J621*
G01*
X26605Y106680D01*
X27305Y106680D01*
X28575Y109220D01*
X28575Y111760D01*
X27305Y114300D01*
X26605Y114300D01*
G74*
D01*
G02X27037Y113651I1205J1270*
G01*
X27037Y113651D01*
X26021Y113651D01*
X26021Y113933D01*
D02*
G37*
%LPC*%
G36*
X24900Y107950D02*
G75*
D01*
G02X24900Y107950I500J0*
G01*
D02*
G37*
G36*
X27037Y108571D02*
X27037Y108571D01*
X26021Y108571D01*
X26021Y109869D01*
X27037Y109869D01*
G74*
D01*
G02X26605Y109220I1637J621*
G01*
G74*
D01*
G02X27037Y108571I1205J1270*
G01*
D02*
G37*
G36*
X24195Y109220D02*
G74*
D01*
G02X23763Y109869I1205J1270*
G01*
X23763Y109869D01*
X24779Y109869D01*
X24779Y108571D01*
X23763Y108571D01*
G74*
D01*
G02X24195Y109220I1637J621*
G01*
D02*
G37*
G36*
X24900Y110490D02*
G75*
D01*
G02X24900Y110490I500J0*
G01*
D02*
G37*
G36*
X27037Y111111D02*
X27037Y111111D01*
X26021Y111111D01*
X26021Y112409D01*
X27037Y112409D01*
G74*
D01*
G02X26605Y111760I1637J621*
G01*
G74*
D01*
G02X27037Y111111I1205J1270*
G01*
D02*
G37*
G36*
X24195Y111760D02*
G74*
D01*
G02X23763Y112409I1205J1270*
G01*
X23763Y112409D01*
X24779Y112409D01*
X24779Y111111D01*
X23763Y111111D01*
G74*
D01*
G02X24195Y111760I1637J621*
G01*
D02*
G37*
G36*
X24900Y113030D02*
G75*
D01*
G02X24900Y113030I500J0*
G01*
D02*
G37*
%LPD*%
G36*
X72011Y80899D02*
G74*
D01*
G03X71385Y81240I891J889*
G01*
G75*
D01*
G03X71119Y81268I-265J-1230*
G01*
X71119Y81268D01*
X66561Y81268D01*
X66028Y81801D01*
X66028Y82427D01*
G74*
D01*
G03X66520Y83141I1258J1393*
G01*
G74*
D01*
G03X66558Y83050I1750J679*
G01*
X66558Y83050D01*
X67329Y83820D01*
X66558Y84590D01*
G74*
D01*
G03X66520Y84499I1712J770*
G01*
G74*
D01*
G03X66141Y85102I1750J679*
G01*
X66141Y85102D01*
X67929Y85102D01*
X68270Y84761D01*
X68611Y85102D01*
X69964Y85102D01*
X73037Y82029D01*
X73037Y79872D01*
X72011Y80899D01*
D02*
G37*
%LPC*%
G36*
X69040Y82108D02*
X69040Y82108D01*
X68270Y82879D01*
X67500Y82108D01*
G75*
D01*
G03X69040Y82108I770J1712*
G01*
D02*
G37*
G36*
X67820Y83820D02*
G75*
D01*
G03X67820Y83820I450J0*
G01*
D02*
G37*
G36*
X69982Y84590D02*
X69982Y84590D01*
X69211Y83820D01*
X69982Y83050D01*
G75*
D01*
G03X69982Y84590I-1712J770*
G01*
D02*
G37*
%LPD*%
G36*
X48361Y19038D02*
X48361Y19038D01*
X49009Y19038D01*
X52082Y22111D01*
X52082Y27443D01*
X52058Y27419D01*
X52058Y22860D01*
G75*
D01*
G02X51689Y21969I-1258J0*
G01*
X51689Y21969D01*
X49151Y19431D01*
G74*
D01*
G02X48680Y19134I891J889*
G01*
G74*
D01*
G02X48389Y19069I420J1186*
G01*
G74*
D01*
G02X48361Y19038I1399J1251*
G01*
D02*
G37*
G36*
X48260Y52058D02*
X48260Y52058D01*
X45843Y52058D01*
G75*
D01*
G03X44438Y52677I-1393J-1258*
G01*
X44438Y52677D01*
X44438Y57923D01*
X44830Y57530D01*
G74*
D01*
G03X45591Y57169I890J890*
G01*
G75*
D01*
G03X48038Y56863I1399J1251*
G01*
X48038Y56863D01*
X48272Y56629D01*
X48272Y52071D01*
G75*
D01*
G03X48272Y52058I1258J-1*
G01*
G74*
D01*
G03X48260Y52058I12J1258*
G01*
D02*
G37*
G36*
X45720Y7508D02*
G74*
D01*
G03X45732Y7497I1270J1382*
G01*
X45732Y7497D01*
X45732Y6871D01*
X43469Y4608D01*
X40677Y4608D01*
X42799Y6729D01*
G74*
D01*
G03X43161Y7491I889J891*
G01*
G74*
D01*
G03X43180Y7508I1251J1399*
G01*
G75*
D01*
G03X45720Y7508I1270J1382*
G01*
D02*
G37*
G36*
X48860Y22699D02*
G75*
D01*
G03X48372Y24130I-1870J161*
G01*
G75*
D01*
G03X48372Y26670I-1382J1270*
G01*
G75*
D01*
G03X48372Y29210I-1382J1270*
G01*
G74*
D01*
G03X48383Y29222I1382J1270*
G01*
X48383Y29222D01*
X50164Y29222D01*
G75*
D01*
G03X50311Y29230I1J1258*
G01*
X50311Y29230D01*
X49910Y28830D01*
G75*
D01*
G03X49542Y27938I890J-890*
G01*
X49542Y27938D01*
X49542Y23381D01*
X48860Y22699D01*
D02*
G37*
G36*
X41898Y96397D02*
X41898Y96397D01*
X41898Y88151D01*
X42431Y87618D01*
X43318Y87618D01*
X42290Y88645D01*
G75*
D01*
G02X41922Y89536I890J890*
G01*
X41922Y89536D01*
X41922Y96397D01*
G74*
D01*
G02X41910Y96408I1258J1393*
G01*
G74*
D01*
G02X41898Y96397I1270J1382*
G01*
D02*
G37*
G36*
X32420Y22699D02*
X32420Y22699D01*
X31508Y23611D01*
X31508Y27673D01*
X32130Y27050D01*
G74*
D01*
G03X32891Y26689I890J890*
G01*
G74*
D01*
G03X32908Y26670I1399J1251*
G01*
G75*
D01*
G03X32908Y24130I1382J-1270*
G01*
G75*
D01*
G03X32420Y22699I1382J-1270*
G01*
D02*
G37*
G36*
X32130Y65150D02*
X32130Y65150D01*
X31508Y65773D01*
X31508Y61711D01*
X32420Y60799D01*
G75*
D01*
G02X32908Y62230I1870J161*
G01*
G75*
D01*
G02X32908Y64770I1382J1270*
G01*
G74*
D01*
G02X32891Y64789I1382J1270*
G01*
G74*
D01*
G02X32130Y65150I129J1251*
G01*
D02*
G37*
G36*
X28544Y10645D02*
X28544Y10645D01*
X28544Y10764D01*
X27928Y10764D01*
X27928Y12096D01*
X28544Y12096D01*
X28544Y12795D01*
X29096Y13347D01*
X30480Y13347D01*
G74*
D01*
G03X30492Y13347I0J1258*
G01*
G75*
D01*
G03X30492Y13333I1258J-12*
G01*
X30492Y13333D01*
X30492Y12823D01*
G74*
D01*
G03X30480Y12812I1258J1393*
G01*
G74*
D01*
G03X29876Y13185I1270J1382*
G01*
X29876Y13185D01*
X29876Y12096D01*
X29995Y12096D01*
G75*
D01*
G03X29995Y10764I1755J-666*
G01*
X29995Y10764D01*
X29876Y10764D01*
X29876Y10645D01*
G75*
D01*
G03X28544Y10645I-666J-1755*
G01*
D02*
G37*
%LPC*%
G36*
X28710Y11430D02*
G75*
D01*
G03X28710Y11430I500J0*
G01*
D02*
G37*
%LPD*%
G36*
X45338Y38991D02*
X45338Y38991D01*
X43447Y40882D01*
X43699Y40882D01*
X45433Y39148D01*
G74*
D01*
G03X45338Y38991I1557J1048*
G01*
D02*
G37*
G36*
X45338Y77091D02*
G74*
D01*
G02X45433Y77248I1652J891*
G01*
X45433Y77248D01*
X43699Y78982D01*
X43447Y78982D01*
X45338Y77091D01*
D02*
G37*
G36*
X37719Y6729D02*
G74*
D01*
G03X38081Y7491I889J891*
G01*
G74*
D01*
G03X38100Y7508I1251J1399*
G01*
G75*
D01*
G03X39531Y7020I1270J1382*
G01*
X39531Y7020D01*
X38619Y6108D01*
X37097Y6108D01*
X37719Y6729D01*
D02*
G37*
G36*
X42758Y46978D02*
X42758Y46978D01*
X42431Y46978D01*
X41390Y48019D01*
X41390Y48271D01*
X42290Y47370D01*
G74*
D01*
G03X42811Y47057I890J890*
G01*
G74*
D01*
G03X42758Y46978I1062J760*
G01*
D02*
G37*
G36*
X48372Y34290D02*
G74*
D01*
G03X48389Y34309I1382J1270*
G01*
G74*
D01*
G03X49151Y34671I129J1251*
G01*
X49151Y34671D01*
X49892Y35413D01*
X49892Y35381D01*
X48789Y34278D01*
X48383Y34278D01*
G74*
D01*
G03X48372Y34290I1393J1258*
G01*
D02*
G37*
G36*
X48372Y31750D02*
G74*
D01*
G03X48383Y31762I1382J1270*
G01*
X48383Y31762D01*
X49309Y31762D01*
G75*
D01*
G03X49690Y31821I1J1258*
G01*
G74*
D01*
G03X49745Y31840I380J1199*
G01*
X49745Y31840D01*
X49644Y31738D01*
X48383Y31738D01*
G74*
D01*
G03X48372Y31750I1393J1258*
G01*
D02*
G37*
G36*
X45843Y49542D02*
X45843Y49542D01*
X47739Y49542D01*
X47763Y49518D01*
X45843Y49518D01*
G74*
D01*
G03X45832Y49530I1393J1258*
G01*
G74*
D01*
G03X45843Y49542I1382J1270*
G01*
D02*
G37*
G36*
X46127Y47002D02*
X46127Y47002D01*
X47739Y47002D01*
X47763Y46978D01*
X46142Y46978D01*
G74*
D01*
G03X46127Y47002I1115J681*
G01*
D02*
G37*
G36*
X48272Y77571D02*
X48272Y77571D01*
X48272Y77584D01*
X48240Y77616D01*
G74*
D01*
G02X48241Y77599I1250J146*
G01*
G74*
D01*
G02X48272Y77571I1251J1399*
G01*
D02*
G37*
G36*
X62246Y12797D02*
G74*
D01*
G03X62223Y12819I1286J1367*
G01*
X62223Y12819D01*
X62250Y12846D01*
G74*
D01*
G03X62246Y12797I1250J146*
G01*
D02*
G37*
G54D11*
X24900Y107950D02*
G75*
D01*
G02X24900Y107950I500J0*
G01*
X27037Y108571D02*
X26021Y108571D01*
X26021Y109869D01*
X27037Y109869D01*
G74*
D01*
G02X26605Y109220I1637J621*
G01*
G74*
D01*
G02X27037Y108571I1205J1270*
G01*
X24195Y109220D02*
G74*
D01*
G02X23763Y109869I1205J1270*
G01*
X24779Y109869D01*
X24779Y108571D01*
X23763Y108571D01*
G74*
D01*
G02X24195Y109220I1637J621*
G01*
X24900Y110490D02*
G75*
D01*
G02X24900Y110490I500J0*
G01*
X27037Y111111D02*
X26021Y111111D01*
X26021Y112409D01*
X27037Y112409D01*
G74*
D01*
G02X26605Y111760I1637J621*
G01*
G74*
D01*
G02X27037Y111111I1205J1270*
G01*
X24195Y111760D02*
G74*
D01*
G02X23763Y112409I1205J1270*
G01*
X24779Y112409D01*
X24779Y111111D01*
X23763Y111111D01*
G74*
D01*
G02X24195Y111760I1637J621*
G01*
X24900Y113030D02*
G75*
D01*
G02X24900Y113030I500J0*
G01*
X26021Y113933D02*
G75*
D01*
G02X24779Y113933I-621J1637*
G01*
X24779Y113651D01*
X23763Y113651D01*
G74*
D01*
G02X24195Y114300I1637J621*
G01*
X23495Y114300D01*
X22225Y111760D01*
X22225Y109220D01*
X23495Y106680D01*
X24195Y106680D01*
G74*
D01*
G02X23763Y107329I1205J1270*
G01*
X24779Y107329D01*
X24779Y107047D01*
G75*
D01*
G02X26021Y107047I621J-1637*
G01*
X26021Y107329D01*
X27037Y107329D01*
G74*
D01*
G02X26605Y106680I1637J621*
G01*
X27305Y106680D01*
X28575Y109220D01*
X28575Y111760D01*
X27305Y114300D01*
X26605Y114300D01*
G74*
D01*
G02X27037Y113651I1205J1270*
G01*
X26021Y113651D01*
X26021Y113933D01*
G54D12*
X23539Y2163D02*
G75*
D01*
G03X23955Y2092I416J1187*
G01*
X43989Y2092D01*
G75*
D01*
G03X44370Y2151I1J1258*
G01*
G74*
D01*
G03X44881Y2461I380J1199*
G01*
X47119Y4700D01*
X47119Y4700D01*
X47879Y5459D01*
G75*
D01*
G03X48248Y6350I-889J891*
G01*
X48248Y7497D01*
G74*
D01*
G03X48260Y7508I1258J1393*
G01*
G75*
D01*
G03X50800Y7508I1270J1382*
G01*
G75*
D01*
G03X53452Y10160I1270J1382*
G01*
G74*
D01*
G03X53825Y10764I1382J1270*
G01*
X52736Y10764D01*
X52736Y10645D01*
G75*
D01*
G03X51404Y10645I-666J-1755*
G01*
X51404Y10764D01*
X51285Y10764D01*
G75*
D01*
G03X51285Y12096I-1755J666*
G01*
X51404Y12096D01*
X51404Y12482D01*
X52736Y12482D01*
X52736Y12096D01*
X53825Y12096D01*
G74*
D01*
G03X53625Y12482I1755J666*
G01*
X58825Y12482D01*
G74*
D01*
G03X59702Y12838I0J1258*
G01*
X59702Y12823D01*
G75*
D01*
G03X59441Y10327I1258J-1393*
G01*
G74*
D01*
G03X59076Y9393I1016J934*
G01*
X59076Y8387D01*
G75*
D01*
G03X60457Y7006I1381J0*
G01*
X61463Y7006D01*
G74*
D01*
G03X62619Y7632I0J1381*
G01*
X62864Y7632D01*
G75*
D01*
G03X63016Y7641I1J1258*
G01*
G74*
D01*
G03X63756Y8001I151J1249*
G01*
X64389Y8634D01*
G75*
D01*
G03X64758Y9525I-889J891*
G01*
X64758Y12179D01*
X65291Y12712D01*
X68505Y12712D01*
G75*
D01*
G03X72465Y12712I1980J-4457*
G01*
X73659Y12712D01*
G75*
D01*
G03X74080Y12784I1J1258*
G01*
G74*
D01*
G03X74551Y13081I420J1186*
G01*
X77089Y15619D01*
G75*
D01*
G03X77458Y16510I-889J891*
G01*
X77458Y83820D01*
G74*
D01*
G03X77089Y84711I1258J0*
G01*
X72646Y89154D01*
G74*
D01*
G03X71755Y89523I891J889*
G01*
X44971Y89523D01*
X44438Y90056D01*
X44438Y96397D01*
G74*
D01*
G03X44450Y96408I1258J1393*
G01*
G75*
D01*
G03X46990Y96408I1270J1382*
G01*
G75*
D01*
G03X49530Y96408I1270J1382*
G01*
G75*
D01*
G03X52070Y96408I1270J1382*
G01*
G75*
D01*
G03X54610Y96408I1270J1382*
G01*
G75*
D01*
G03X57150Y96408I1270J1382*
G01*
G75*
D01*
G03X59690Y96408I1270J1382*
G01*
G75*
D01*
G03X62230Y96408I1270J1382*
G01*
G75*
D01*
G03X62230Y99172I1270J1382*
G01*
G75*
D01*
G03X59690Y99172I-1270J-1382*
G01*
G75*
D01*
G03X57150Y99172I-1270J-1382*
G01*
G75*
D01*
G03X54610Y99172I-1270J-1382*
G01*
G75*
D01*
G03X52070Y99172I-1270J-1382*
G01*
G75*
D01*
G03X49530Y99172I-1270J-1382*
G01*
G75*
D01*
G03X46990Y99172I-1270J-1382*
G01*
G75*
D01*
G03X44450Y99172I-1270J-1382*
G01*
G75*
D01*
G03X41910Y99172I-1270J-1382*
G01*
G75*
D01*
G03X39370Y99172I-1270J-1382*
G01*
G75*
D01*
G03X36830Y99172I-1270J-1382*
G01*
G74*
D01*
G03X36226Y99545I1270J1382*
G01*
X36226Y98456D01*
X36345Y98456D01*
G75*
D01*
G03X36345Y97124I1755J-666*
G01*
X36226Y97124D01*
X36226Y96035D01*
G74*
D01*
G03X36830Y96408I666J1755*
G01*
G75*
D01*
G03X39370Y96408I1270J1382*
G01*
G74*
D01*
G03X39382Y96397I1270J1382*
G01*
X39382Y87631D01*
G75*
D01*
G03X39750Y86740I1258J-1*
G01*
X40778Y85713D01*
X34176Y85713D01*
X33008Y86881D01*
X33008Y109220D01*
G74*
D01*
G03X32639Y110111I1258J0*
G01*
X31371Y111379D01*
G74*
D01*
G03X30480Y111748I891J889*
G01*
X29457Y111748D01*
X29457Y111760D01*
G74*
D01*
G03X29363Y112156I882J0*
G01*
X28094Y114693D01*
G74*
D01*
G03X27305Y115182I789J393*
G01*
X27236Y115182D01*
G75*
D01*
G03X23564Y115182I-1836J388*
G01*
X23496Y115182D01*
G75*
D01*
G03X22706Y114694I-1J-882*
G01*
X21436Y112154D01*
G75*
D01*
G03X21343Y111759I789J-394*
G01*
X21343Y111748D01*
X19686Y111748D01*
G75*
D01*
G03X18795Y111380I-1J-1258*
G01*
X16624Y109208D01*
X15363Y109208D01*
G75*
D01*
G03X12577Y109208I-1393J-1258*
G01*
X11431Y109208D01*
G75*
D01*
G03X10540Y108840I-1J-1258*
G01*
X9270Y107570D01*
G75*
D01*
G03X8902Y106679I890J-890*
G01*
X8902Y98826D01*
G75*
D01*
G03X12466Y95262I1258J-2306*
G01*
X14084Y95262D01*
X14227Y95119D01*
X15252Y94094D01*
X15252Y52193D01*
G74*
D01*
G03X14760Y51479I1258J1393*
G01*
G74*
D01*
G03X14722Y51570I1750J679*
G01*
X13951Y50800D01*
X14722Y50030D01*
G74*
D01*
G03X14760Y50121I1712J770*
G01*
G74*
D01*
G03X15252Y49407I1750J679*
G01*
X15252Y46241D01*
X13449Y44438D01*
X11431Y44438D01*
G75*
D01*
G03X10540Y44070I-1J-1258*
G01*
X8000Y41530D01*
G75*
D01*
G03X7632Y40639I890J-890*
G01*
X7632Y17782D01*
G75*
D01*
G03X8000Y16890I1258J-2*
G01*
X9270Y15620D01*
G74*
D01*
G03X9796Y15306I890J890*
G01*
G75*
D01*
G03X10160Y15252I364J1204*
G01*
X12179Y15252D01*
X12860Y14571D01*
G74*
D01*
G03X12240Y14412I150J1871*
G01*
X13010Y13641D01*
X13400Y14031D01*
X14341Y13090D01*
X13951Y12700D01*
X14722Y11930D01*
G74*
D01*
G03X14760Y12021I1712J770*
G01*
G75*
D01*
G03X17792Y11329I1750J679*
G01*
X17792Y8257D01*
G75*
D01*
G03X18160Y7365I1258J-2*
G01*
X23065Y2460D01*
G74*
D01*
G03X23539Y2163I890J890*
G01*
X10048Y72390D02*
G75*
D01*
G03X10048Y69850I1382J-1270*
G01*
G75*
D01*
G03X10048Y67310I1382J-1270*
G01*
G75*
D01*
G03X10048Y64770I1382J-1270*
G01*
G75*
D01*
G03X10048Y62230I1382J-1270*
G01*
G75*
D01*
G03X10048Y59690I1382J-1270*
G01*
G75*
D01*
G03X12812Y59690I1382J-1270*
G01*
G75*
D01*
G03X12812Y62230I-1382J1270*
G01*
G75*
D01*
G03X12812Y64770I-1382J1270*
G01*
G75*
D01*
G03X12812Y67310I-1382J1270*
G01*
G75*
D01*
G03X12812Y69850I-1382J1270*
G01*
G75*
D01*
G03X12812Y72390I-1382J1270*
G01*
G75*
D01*
G03X12812Y74930I-1382J1270*
G01*
G74*
D01*
G03X13185Y75534I1382J1270*
G01*
X12096Y75534D01*
X12096Y75415D01*
G75*
D01*
G03X10764Y75415I-666J-1755*
G01*
X10764Y75534D01*
X9675Y75534D01*
G74*
D01*
G03X10048Y74930I1755J666*
G01*
G75*
D01*
G03X10048Y72390I1382J-1270*
G01*
X36199Y107005D02*
G75*
D01*
G03X35645Y106451I0J-554*
G01*
X35645Y103139D01*
G75*
D01*
G03X36199Y102585I554J0*
G01*
X65811Y102585D01*
G75*
D01*
G03X66365Y103139I0J554*
G01*
X66365Y106451D01*
G74*
D01*
G03X65811Y107005I554J0*
G01*
X36199Y107005D01*
X49530Y114412D02*
G75*
D01*
G03X46990Y114412I-1270J-1382*
G01*
G75*
D01*
G03X44450Y114412I-1270J-1382*
G01*
G75*
D01*
G03X41910Y114412I-1270J-1382*
G01*
G75*
D01*
G03X39370Y114412I-1270J-1382*
G01*
G75*
D01*
G03X36830Y114412I-1270J-1382*
G01*
G75*
D01*
G03X36830Y111648I-1270J-1382*
G01*
G75*
D01*
G03X39370Y111648I1270J1382*
G01*
G75*
D01*
G03X41910Y111648I1270J1382*
G01*
G75*
D01*
G03X44450Y111648I1270J1382*
G01*
G75*
D01*
G03X46990Y111648I1270J1382*
G01*
G75*
D01*
G03X49530Y111648I1270J1382*
G01*
G75*
D01*
G03X52070Y111648I1270J1382*
G01*
G75*
D01*
G03X54610Y111648I1270J1382*
G01*
G75*
D01*
G03X57150Y111648I1270J1382*
G01*
G75*
D01*
G03X59690Y111648I1270J1382*
G01*
G75*
D01*
G03X62230Y111648I1270J1382*
G01*
G75*
D01*
G03X62230Y114412I1270J1382*
G01*
G75*
D01*
G03X59690Y114412I-1270J-1382*
G01*
G75*
D01*
G03X57150Y114412I-1270J-1382*
G01*
G75*
D01*
G03X54610Y114412I-1270J-1382*
G01*
G75*
D01*
G03X52070Y114412I-1270J-1382*
G01*
G75*
D01*
G03X49530Y114412I-1270J-1382*
G01*
X51570Y11430D02*
G75*
D01*
G03X51570Y11430I500J0*
G01*
X10930Y76200D02*
G75*
D01*
G03X10930Y76200I500J0*
G01*
X9675Y76866D02*
X10764Y76866D01*
X10764Y77955D01*
G74*
D01*
G03X9675Y76866I666J1755*
G01*
X12096Y77955D02*
X12096Y76866D01*
X13185Y76866D01*
G74*
D01*
G03X12096Y77955I1755J666*
G01*
X9228Y84544D02*
X9228Y86068D01*
X7704Y86068D01*
G74*
D01*
G03X9228Y84544I2456J932*
G01*
X12616Y86068D02*
X11092Y86068D01*
X11092Y84544D01*
G74*
D01*
G03X12616Y86068I932J2456*
G01*
X7704Y87932D02*
X9228Y87932D01*
X9228Y89456D01*
G74*
D01*
G03X7704Y87932I932J2456*
G01*
X9160Y87000D02*
G75*
D01*
G03X9160Y87000I1000J0*
G01*
X11092Y89456D02*
X11092Y87932D01*
X12616Y87932D01*
G74*
D01*
G03X11092Y89456I2456J932*
G01*
X13780Y49088D02*
X13010Y49859D01*
X12240Y49088D01*
G75*
D01*
G03X13780Y49088I770J1712*
G01*
X11298Y51570D02*
G75*
D01*
G03X11298Y50030I1712J-770*
G01*
X12069Y50800D01*
X11298Y51570D01*
X12240Y52512D02*
X13010Y51741D01*
X13780Y52512D01*
G75*
D01*
G03X12240Y52512I-770J-1712*
G01*
X12560Y50800D02*
G75*
D01*
G03X12560Y50800I450J0*
G01*
X12560Y12700D02*
G75*
D01*
G03X12560Y12700I450J0*
G01*
X13780Y10988D02*
X13010Y11759D01*
X12240Y10988D01*
G75*
D01*
G03X13780Y10988I770J1712*
G01*
X11298Y13470D02*
G75*
D01*
G03X11298Y11930I1712J-770*
G01*
X12069Y12700D01*
X11298Y13470D01*
X2108Y113665D02*
G75*
D01*
G03X2108Y113665I4877J0*
G01*
X34894Y96035D02*
X34894Y97124D01*
X33805Y97124D01*
G74*
D01*
G03X34894Y96035I1755J666*
G01*
X35060Y97790D02*
G75*
D01*
G03X35060Y97790I500J0*
G01*
X33805Y98456D02*
X34894Y98456D01*
X34894Y99545D01*
G74*
D01*
G03X33805Y98456I666J1755*
G01*
X881Y881D02*
X881Y121039D01*
X80399Y121039D01*
X80399Y881D01*
X881Y881D01*
X45720Y7508D02*
G74*
D01*
G03X45732Y7497I1270J1382*
G01*
X45732Y6871D01*
X43469Y4608D01*
X40677Y4608D01*
X42799Y6729D01*
G74*
D01*
G03X43161Y7491I889J891*
G01*
G74*
D01*
G03X43180Y7508I1251J1399*
G01*
G75*
D01*
G03X45720Y7508I1270J1382*
G01*
X69040Y47432D02*
G75*
D01*
G03X67500Y47432I-770J-1712*
G01*
X67813Y47119D01*
X68270Y46661D01*
X68727Y47119D01*
X68727Y47119D01*
X69040Y47432D01*
X22256Y77955D02*
X22256Y76866D01*
X23345Y76866D01*
G74*
D01*
G03X22256Y77955I1755J666*
G01*
X22256Y39855D02*
X22256Y38766D01*
X23345Y38766D01*
G74*
D01*
G03X22256Y39855I1755J666*
G01*
X22972Y59690D02*
G74*
D01*
G03X23345Y60294I1382J1270*
G01*
X22256Y60294D01*
X22256Y60175D01*
G75*
D01*
G03X20924Y60175I-666J-1755*
G01*
X20924Y60294D01*
X19835Y60294D01*
G74*
D01*
G03X20208Y59690I1755J666*
G01*
G75*
D01*
G03X22972Y59690I1382J-1270*
G01*
X21162Y23119D02*
G75*
D01*
G03X21162Y23119I428J-259*
G01*
X22972Y21590D02*
G74*
D01*
G03X23345Y22194I1382J1270*
G01*
X22256Y22194D01*
X22256Y22075D01*
G75*
D01*
G03X20924Y22075I-666J-1755*
G01*
X20924Y22194D01*
X19835Y22194D01*
G74*
D01*
G03X20208Y21590I1755J666*
G01*
G75*
D01*
G03X22972Y21590I1382J-1270*
G01*
X69982Y46490D02*
X69211Y45720D01*
X69982Y44950D01*
G75*
D01*
G03X69982Y46490I-1712J770*
G01*
X67820Y45720D02*
G75*
D01*
G03X67820Y45720I450J0*
G01*
X69040Y44008D02*
X68270Y44779D01*
X67500Y44008D01*
G75*
D01*
G03X69040Y44008I770J1712*
G01*
X24900Y97790D02*
G75*
D01*
G03X24900Y97790I500J0*
G01*
X23645Y98456D02*
X24734Y98456D01*
X24734Y99664D01*
X23645Y99664D01*
G74*
D01*
G03X24018Y99060I1755J666*
G01*
G74*
D01*
G03X23645Y98456I1382J1270*
G01*
X24900Y100330D02*
G75*
D01*
G03X24900Y100330I500J0*
G01*
X27155Y99664D02*
X26066Y99664D01*
X26066Y98456D01*
X27155Y98456D01*
G74*
D01*
G03X26782Y99060I1755J666*
G01*
G74*
D01*
G03X27155Y99664I1382J1270*
G01*
X23645Y100996D02*
X24734Y100996D01*
X24734Y102204D01*
X23645Y102204D01*
G74*
D01*
G03X24018Y101600I1755J666*
G01*
G74*
D01*
G03X23645Y100996I1382J1270*
G01*
X27155Y102204D02*
X26066Y102204D01*
X26066Y100996D01*
X27155Y100996D01*
G74*
D01*
G03X26782Y101600I1755J666*
G01*
G74*
D01*
G03X27155Y102204I1382J1270*
G01*
X23645Y103536D02*
X24734Y103536D01*
X24734Y104744D01*
X23645Y104744D01*
G74*
D01*
G03X24018Y104140I1755J666*
G01*
G74*
D01*
G03X23645Y103536I1382J1270*
G01*
X24900Y102870D02*
G75*
D01*
G03X24900Y102870I500J0*
G01*
X27155Y104744D02*
X26066Y104744D01*
X26066Y103536D01*
X27155Y103536D01*
G74*
D01*
G03X26782Y104140I1755J666*
G01*
G74*
D01*
G03X27155Y104744I1382J1270*
G01*
X21090Y60960D02*
G75*
D01*
G03X21090Y60960I500J0*
G01*
X21090Y76200D02*
G75*
D01*
G03X21090Y76200I500J0*
G01*
X19835Y76866D02*
X20924Y76866D01*
X20924Y77955D01*
G74*
D01*
G03X19835Y76866I666J1755*
G01*
X12258Y105220D02*
G75*
D01*
G03X12258Y103680I1712J-770*
G01*
X13029Y104450D01*
X12258Y105220D01*
X14740Y102738D02*
X13970Y103509D01*
X13200Y102738D01*
G75*
D01*
G03X14740Y102738I770J1712*
G01*
X15682Y105220D02*
X14911Y104450D01*
X15682Y103680D01*
G75*
D01*
G03X15682Y105220I-1712J770*
G01*
X13520Y104450D02*
G75*
D01*
G03X13520Y104450I450J0*
G01*
X69350Y58420D02*
G75*
D01*
G03X69350Y58420I500J0*
G01*
X69184Y56665D02*
X69184Y57754D01*
X68095Y57754D01*
G74*
D01*
G03X69184Y56665I1755J666*
G01*
X59190Y73660D02*
G75*
D01*
G03X59190Y73660I500J0*
G01*
X60356Y74445D02*
X60356Y74326D01*
X61445Y74326D01*
G74*
D01*
G03X61072Y74930I1755J666*
G01*
G75*
D01*
G03X58308Y74930I-1382J1270*
G01*
G74*
D01*
G03X57935Y74326I1382J1270*
G01*
X59024Y74326D01*
X59024Y74445D01*
G75*
D01*
G03X60356Y74445I666J1755*
G01*
X12096Y39855D02*
X12096Y38766D01*
X13185Y38766D01*
G74*
D01*
G03X12096Y39855I1755J666*
G01*
X10930Y38100D02*
G75*
D01*
G03X10930Y38100I500J0*
G01*
X21090Y38100D02*
G75*
D01*
G03X21090Y38100I500J0*
G01*
X19835Y38766D02*
X20924Y38766D01*
X20924Y39855D01*
G74*
D01*
G03X19835Y38766I666J1755*
G01*
X71132Y57049D02*
X71132Y44336D01*
X70599Y43803D01*
X66561Y43803D01*
X66033Y44331D01*
G74*
D01*
G03X66520Y45041I1263J1389*
G01*
G74*
D01*
G03X66558Y44950I1750J679*
G01*
X67329Y45720D01*
X66558Y46490D01*
G74*
D01*
G03X66520Y46399I1712J770*
G01*
G75*
D01*
G03X63488Y47091I-1750J-679*
G01*
X63488Y59690D01*
G74*
D01*
G03X63119Y60581I1258J0*
G01*
X61851Y61849D01*
G74*
D01*
G03X61089Y62211I891J889*
G01*
G74*
D01*
G03X61072Y62230I1399J1251*
G01*
G75*
D01*
G03X61072Y64770I-1382J1270*
G01*
G75*
D01*
G03X61072Y67310I-1382J1270*
G01*
G75*
D01*
G03X61072Y69850I-1382J1270*
G01*
G75*
D01*
G03X61072Y72390I-1382J1270*
G01*
G74*
D01*
G03X61445Y72994I1382J1270*
G01*
X60356Y72994D01*
X60356Y72875D01*
G75*
D01*
G03X59024Y72875I-666J-1755*
G01*
X59024Y72994D01*
X57935Y72994D01*
G74*
D01*
G03X58308Y72390I1755J666*
G01*
G75*
D01*
G03X58308Y69850I1382J-1270*
G01*
G75*
D01*
G03X58308Y67310I1382J-1270*
G01*
G75*
D01*
G03X58308Y64770I1382J-1270*
G01*
G75*
D01*
G03X58308Y62230I1382J-1270*
G01*
G74*
D01*
G03X58297Y62218I1382J1270*
G01*
X51321Y62218D01*
X50788Y62751D01*
X50788Y78105D01*
G74*
D01*
G03X50419Y78996I1258J0*
G01*
X47119Y82295D01*
X47119Y82295D01*
X46611Y82804D01*
G74*
D01*
G03X45720Y83173I891J889*
G01*
X31001Y83173D01*
X30468Y83706D01*
X30468Y91440D01*
G74*
D01*
G03X30099Y92331I1258J0*
G01*
X28831Y93599D01*
G74*
D01*
G03X27940Y93968I891J889*
G01*
X26793Y93968D01*
G74*
D01*
G03X26782Y93980I1393J1258*
G01*
G75*
D01*
G03X26782Y96520I-1382J1270*
G01*
G74*
D01*
G03X27155Y97124I1382J1270*
G01*
X26066Y97124D01*
X26066Y97005D01*
G75*
D01*
G03X24734Y97005I-666J-1755*
G01*
X24734Y97124D01*
X23645Y97124D01*
G74*
D01*
G03X24018Y96520I1755J666*
G01*
G75*
D01*
G03X24018Y93980I1382J-1270*
G01*
G75*
D01*
G03X24018Y91440I1382J-1270*
G01*
G75*
D01*
G03X24018Y88900I1382J-1270*
G01*
G75*
D01*
G03X26782Y88900I1382J-1270*
G01*
G75*
D01*
G03X26782Y91440I-1382J1270*
G01*
G74*
D01*
G03X26793Y91452I1382J1270*
G01*
X27419Y91452D01*
X27952Y90919D01*
X27952Y83186D01*
G75*
D01*
G03X28320Y82295I1258J-1*
G01*
X29590Y81025D01*
G75*
D01*
G03X30481Y80657I890J890*
G01*
X31036Y80657D01*
X29360Y78981D01*
G75*
D01*
G03X28992Y78089I890J-890*
G01*
X28992Y73752D01*
X28196Y74549D01*
G74*
D01*
G03X27305Y74918I891J889*
G01*
X22983Y74918D01*
G74*
D01*
G03X22972Y74930I1393J1258*
G01*
G74*
D01*
G03X23345Y75534I1382J1270*
G01*
X22256Y75534D01*
X22256Y75415D01*
G75*
D01*
G03X20924Y75415I-666J-1755*
G01*
X20924Y75534D01*
X19835Y75534D01*
G74*
D01*
G03X20208Y74930I1755J666*
G01*
G75*
D01*
G03X20208Y72390I1382J-1270*
G01*
G75*
D01*
G03X20208Y69850I1382J-1270*
G01*
G75*
D01*
G03X20208Y67310I1382J-1270*
G01*
G75*
D01*
G03X20208Y64770I1382J-1270*
G01*
G75*
D01*
G03X20208Y62230I1382J-1270*
G01*
G74*
D01*
G03X19835Y61626I1382J1270*
G01*
X20924Y61626D01*
X20924Y61745D01*
G75*
D01*
G03X22256Y61745I666J1755*
G01*
X22256Y61626D01*
X23345Y61626D01*
G74*
D01*
G03X22972Y62230I1755J666*
G01*
G75*
D01*
G03X22972Y64770I-1382J1270*
G01*
G75*
D01*
G03X22972Y67310I-1382J1270*
G01*
G75*
D01*
G03X22972Y69850I-1382J1270*
G01*
G75*
D01*
G03X22972Y72390I-1382J1270*
G01*
G74*
D01*
G03X22983Y72402I1382J1270*
G01*
X26784Y72402D01*
X27317Y71869D01*
X27317Y55881D01*
G75*
D01*
G03X27685Y54990I1258J-1*
G01*
X29590Y53085D01*
G75*
D01*
G03X30481Y52717I890J890*
G01*
X35039Y52717D01*
X35567Y52189D01*
G75*
D01*
G03X35448Y49530I1263J-1389*
G01*
G75*
D01*
G03X35448Y46990I1382J-1270*
G01*
G75*
D01*
G03X34955Y45625I1382J-1270*
G01*
X34404Y45073D01*
X31750Y45073D01*
G75*
D01*
G03X31724Y45073I0J-1258*
G01*
G74*
D01*
G03X30860Y44705I26J1258*
G01*
X27685Y41530D01*
G75*
D01*
G03X27317Y40638I890J-890*
G01*
X27317Y37351D01*
X26784Y36818D01*
X22983Y36818D01*
G74*
D01*
G03X22972Y36830I1393J1258*
G01*
G74*
D01*
G03X23345Y37434I1382J1270*
G01*
X22256Y37434D01*
X22256Y37315D01*
G75*
D01*
G03X20924Y37315I-666J-1755*
G01*
X20924Y37434D01*
X19835Y37434D01*
G74*
D01*
G03X20208Y36830I1755J666*
G01*
G75*
D01*
G03X20208Y34290I1382J-1270*
G01*
G75*
D01*
G03X20208Y31750I1382J-1270*
G01*
G75*
D01*
G03X20208Y29210I1382J-1270*
G01*
G75*
D01*
G03X20208Y26670I1382J-1270*
G01*
G75*
D01*
G03X20208Y24130I1382J-1270*
G01*
G74*
D01*
G03X19835Y23526I1382J1270*
G01*
X20924Y23526D01*
X20924Y23645D01*
G75*
D01*
G03X22256Y23645I666J1755*
G01*
X22256Y23526D01*
X23345Y23526D01*
G74*
D01*
G03X22972Y24130I1755J666*
G01*
G75*
D01*
G03X22972Y26670I-1382J1270*
G01*
G75*
D01*
G03X22972Y29210I-1382J1270*
G01*
G75*
D01*
G03X22972Y31750I-1382J1270*
G01*
G75*
D01*
G03X22972Y34290I-1382J1270*
G01*
G74*
D01*
G03X22983Y34302I1382J1270*
G01*
X27304Y34302D01*
G75*
D01*
G03X27570Y34330I1J1258*
G01*
G74*
D01*
G03X28196Y34671I265J1230*
G01*
X28992Y35468D01*
X28992Y23091D01*
G75*
D01*
G03X29360Y22200I1258J-1*
G01*
X32130Y19430D01*
G74*
D01*
G03X32891Y19069I890J890*
G01*
G74*
D01*
G03X33027Y18931I1399J1251*
G01*
X29959Y15863D01*
X28576Y15863D01*
G75*
D01*
G03X27685Y15495I-1J-1258*
G01*
X25780Y13590D01*
G75*
D01*
G03X25412Y12699I890J-890*
G01*
X25412Y7622D01*
G75*
D01*
G03X25780Y6730I1258J-2*
G01*
X26403Y6108D01*
X26151Y6108D01*
X23119Y9140D01*
X23119Y9140D01*
X22848Y9411D01*
X22848Y15240D01*
G74*
D01*
G03X22479Y16131I1258J0*
G01*
X19038Y19571D01*
X19038Y30480D01*
G74*
D01*
G03X18669Y31371I1258J0*
G01*
X16131Y33909D01*
G74*
D01*
G03X15240Y34278I891J889*
G01*
X12823Y34278D01*
G74*
D01*
G03X12812Y34290I1393J1258*
G01*
G75*
D01*
G03X12812Y36830I-1382J1270*
G01*
G74*
D01*
G03X13185Y37434I1382J1270*
G01*
X12096Y37434D01*
X12096Y37315D01*
G75*
D01*
G03X10764Y37315I-666J-1755*
G01*
X10764Y37434D01*
X10148Y37434D01*
X10148Y38766D01*
X10764Y38766D01*
X10764Y39855D01*
G74*
D01*
G03X10148Y39471I666J1755*
G01*
X10148Y40119D01*
X11951Y41922D01*
X13970Y41922D01*
G74*
D01*
G03X14861Y42291I0J1258*
G01*
X17399Y44829D01*
G75*
D01*
G03X17768Y45720I-889J891*
G01*
X17768Y49407D01*
G75*
D01*
G03X17768Y52193I-1258J1393*
G01*
X17768Y94615D01*
G74*
D01*
G03X17399Y95506I1258J0*
G01*
X15496Y97409D01*
G74*
D01*
G03X14957Y97728I891J889*
G01*
G75*
D01*
G03X14604Y97778I-352J-1208*
G01*
X12466Y97778D01*
G74*
D01*
G03X11418Y98826I2306J1258*
G01*
X11418Y106159D01*
X11951Y106692D01*
X12577Y106692D01*
G74*
D01*
G03X13291Y106200I1393J1258*
G01*
G74*
D01*
G03X13200Y106162I679J1750*
G01*
X13970Y105391D01*
X14740Y106162D01*
G74*
D01*
G03X14649Y106200I770J1712*
G01*
G74*
D01*
G03X15363Y106692I679J1750*
G01*
X17145Y106692D01*
G74*
D01*
G03X18036Y107061I0J1258*
G01*
X20206Y109232D01*
X21343Y109232D01*
X21343Y109222D01*
G75*
D01*
G03X21436Y108826I882J-2*
G01*
X22706Y106286D01*
G74*
D01*
G03X23374Y105806I789J394*
G01*
G75*
D01*
G03X23495Y105798I121J874*
G01*
X25085Y105798D01*
G75*
D01*
G03X25715Y105798I315J-388*
G01*
X27304Y105798D01*
G75*
D01*
G03X27726Y105905I1J882*
G01*
G74*
D01*
G03X28094Y106287I421J775*
G01*
X29363Y108824D01*
G75*
D01*
G03X29457Y109220I-788J396*
G01*
X29457Y109232D01*
X29959Y109232D01*
X30492Y108699D01*
X30492Y86361D01*
G75*
D01*
G03X30860Y85470I1258J-1*
G01*
X32765Y83565D01*
G75*
D01*
G03X33656Y83197I890J890*
G01*
X62999Y83197D01*
G74*
D01*
G03X63512Y82427I1771J623*
G01*
X63512Y81282D01*
G75*
D01*
G03X63880Y80390I1258J-2*
G01*
X65150Y79120D01*
G74*
D01*
G03X65676Y78806I890J890*
G01*
G75*
D01*
G03X66040Y78752I364J1204*
G01*
X70599Y78752D01*
X71132Y78219D01*
X71132Y77571D01*
G75*
D01*
G03X68468Y74930I-1282J-1371*
G01*
G75*
D01*
G03X68468Y72390I1382J-1270*
G01*
G75*
D01*
G03X68468Y69850I1382J-1270*
G01*
G75*
D01*
G03X68468Y67310I1382J-1270*
G01*
G75*
D01*
G03X68468Y64770I1382J-1270*
G01*
G75*
D01*
G03X68468Y62230I1382J-1270*
G01*
G75*
D01*
G03X68468Y59690I1382J-1270*
G01*
G74*
D01*
G03X68095Y59086I1382J1270*
G01*
X69184Y59086D01*
X69184Y59205D01*
G75*
D01*
G03X70516Y59205I666J1755*
G01*
X70516Y59086D01*
X71132Y59086D01*
X71132Y57754D01*
X70516Y57754D01*
X70516Y56665D01*
G74*
D01*
G03X71132Y57049I666J1755*
G01*
X37719Y6729D02*
G74*
D01*
G03X38081Y7491I889J891*
G01*
G74*
D01*
G03X38100Y7508I1251J1399*
G01*
G75*
D01*
G03X39531Y7020I1270J1382*
G01*
X38619Y6108D01*
X37097Y6108D01*
X37719Y6729D01*
X16498Y29210D02*
X16498Y18301D01*
X19939Y14861D01*
G74*
D01*
G02X20308Y13970I889J891*
G01*
X20308Y8776D01*
X20340Y8744D01*
G75*
D01*
G02X20332Y8891I1250J146*
G01*
X20332Y14719D01*
X16890Y18160D01*
G75*
D01*
G02X16522Y19051I890J890*
G01*
X16522Y29959D01*
X14719Y31762D01*
X12823Y31762D01*
G74*
D01*
G02X12812Y31750I1393J1258*
G01*
G74*
D01*
G02X12823Y31738I1382J1270*
G01*
X13970Y31738D01*
G74*
D01*
G02X14861Y31369I0J1258*
G01*
X16129Y30101D01*
G74*
D01*
G02X16498Y29210I889J891*
G01*
X28710Y11430D02*
G75*
D01*
G03X28710Y11430I500J0*
G01*
X28544Y10645D02*
X28544Y10764D01*
X27928Y10764D01*
X27928Y12096D01*
X28544Y12096D01*
X28544Y12795D01*
X29096Y13347D01*
X30480Y13347D01*
G74*
D01*
G03X30492Y13347I0J1258*
G01*
G75*
D01*
G03X30492Y13333I1258J-12*
G01*
X30492Y12823D01*
G74*
D01*
G03X30480Y12812I1258J1393*
G01*
G74*
D01*
G03X29876Y13185I1270J1382*
G01*
X29876Y12096D01*
X29995Y12096D01*
G75*
D01*
G03X29995Y10764I1755J-666*
G01*
X29876Y10764D01*
X29876Y10645D01*
G75*
D01*
G03X28544Y10645I-666J-1755*
G01*
X71605Y19654D02*
X70516Y19654D01*
X70516Y18565D01*
G74*
D01*
G03X71605Y19654I666J1755*
G01*
X69184Y18565D02*
X69184Y19654D01*
X68095Y19654D01*
G74*
D01*
G03X69184Y18565I1755J666*
G01*
X69350Y20320D02*
G75*
D01*
G03X69350Y20320I500J0*
G01*
X59024Y18565D02*
X59024Y19654D01*
X57935Y19654D01*
G74*
D01*
G03X59024Y18565I1755J666*
G01*
X59190Y20320D02*
G75*
D01*
G03X59190Y20320I500J0*
G01*
X61445Y19654D02*
X60356Y19654D01*
X60356Y18565D01*
G74*
D01*
G03X61445Y19654I666J1755*
G01*
X59190Y35560D02*
G75*
D01*
G03X59190Y35560I500J0*
G01*
X66028Y19685D02*
X66028Y23609D01*
X66561Y24142D01*
X68457Y24142D01*
G74*
D01*
G03X68468Y24130I1393J1258*
G01*
G75*
D01*
G03X68468Y21590I1382J-1270*
G01*
G74*
D01*
G03X68095Y20986I1382J1270*
G01*
X69184Y20986D01*
X69184Y21105D01*
G75*
D01*
G03X70516Y21105I666J1755*
G01*
X70516Y20986D01*
X71605Y20986D01*
G74*
D01*
G03X71232Y21590I1755J666*
G01*
G75*
D01*
G03X71232Y24130I-1382J1270*
G01*
G75*
D01*
G03X71232Y26670I-1382J1270*
G01*
G75*
D01*
G03X71232Y29210I-1382J1270*
G01*
G75*
D01*
G03X71232Y31750I-1382J1270*
G01*
G75*
D01*
G03X71232Y34290I-1382J1270*
G01*
G75*
D01*
G03X71232Y36830I-1382J1270*
G01*
G75*
D01*
G03X68468Y36830I-1382J1270*
G01*
G75*
D01*
G03X68468Y34290I1382J-1270*
G01*
G75*
D01*
G03X68468Y31750I1382J-1270*
G01*
G75*
D01*
G03X68468Y29210I1382J-1270*
G01*
G75*
D01*
G03X68468Y26670I1382J-1270*
G01*
G74*
D01*
G03X68457Y26658I1382J1270*
G01*
X66041Y26658D01*
G75*
D01*
G03X65150Y26290I-1J-1258*
G01*
X63880Y25020D01*
G75*
D01*
G03X63512Y24129I890J-890*
G01*
X63512Y20206D01*
X58304Y14998D01*
X37871Y14998D01*
G75*
D01*
G03X36980Y14630I-1J-1258*
G01*
X35940Y13590D01*
G74*
D01*
G03X35579Y12829I890J890*
G01*
G74*
D01*
G03X35560Y12812I1251J1399*
G01*
G75*
D01*
G03X33020Y12812I-1270J-1382*
G01*
G74*
D01*
G03X33013Y12819I1270J1382*
G01*
X35446Y15252D01*
X42545Y15252D01*
G74*
D01*
G03X43436Y15621I0J1258*
G01*
X45377Y17563D01*
G75*
D01*
G03X48022Y16522I1613J217*
G01*
X49530Y16522D01*
G74*
D01*
G03X50421Y16891I0J1258*
G01*
X54229Y20699D01*
G75*
D01*
G03X54598Y21590I-889J891*
G01*
X54598Y27419D01*
X55892Y28713D01*
X55892Y24766D01*
G75*
D01*
G03X56260Y23875I1258J-1*
G01*
X57017Y23119D01*
X57931Y22205D01*
G74*
D01*
G03X58308Y21590I1759J655*
G01*
G74*
D01*
G03X57935Y20986I1382J1270*
G01*
X59024Y20986D01*
X59024Y21105D01*
G75*
D01*
G03X60356Y21105I666J1755*
G01*
X60356Y20986D01*
X61445Y20986D01*
G74*
D01*
G03X61072Y21590I1755J666*
G01*
G75*
D01*
G03X61072Y24130I-1382J1270*
G01*
G75*
D01*
G03X61072Y26670I-1382J1270*
G01*
G75*
D01*
G03X61072Y29210I-1382J1270*
G01*
G75*
D01*
G03X61072Y31750I-1382J1270*
G01*
G75*
D01*
G03X61072Y34290I-1382J1270*
G01*
G74*
D01*
G03X61445Y34894I1382J1270*
G01*
X60356Y34894D01*
X60356Y34775D01*
G75*
D01*
G03X59024Y34775I-666J-1755*
G01*
X59024Y34894D01*
X58408Y34894D01*
X58408Y36226D01*
X59024Y36226D01*
X59024Y36345D01*
G75*
D01*
G03X60356Y36345I666J1755*
G01*
X60356Y36226D01*
X61445Y36226D01*
G74*
D01*
G03X61072Y36830I1755J666*
G01*
G75*
D01*
G03X61061Y39382I-1382J1270*
G01*
X61594Y39382D01*
G75*
D01*
G03X61746Y39391I1J1258*
G01*
G74*
D01*
G03X62486Y39751I151J1249*
G01*
X63119Y40384D01*
G75*
D01*
G03X63488Y41275I-889J891*
G01*
X63488Y44349D01*
G74*
D01*
G03X63512Y44327I1282J1371*
G01*
X63512Y43816D01*
G75*
D01*
G03X63880Y42925I1258J-1*
G01*
X65150Y41655D01*
G75*
D01*
G03X66041Y41287I890J890*
G01*
X71120Y41287D01*
G74*
D01*
G03X72011Y41656I0J1258*
G01*
X73037Y42683D01*
X73037Y18301D01*
X71869Y17133D01*
X63997Y17133D01*
X65659Y18794D01*
G75*
D01*
G03X66028Y19685I-889J891*
G01*
X62246Y12797D02*
G74*
D01*
G03X62223Y12819I1286J1367*
G01*
X62250Y12846D01*
G74*
D01*
G03X62246Y12797I1250J146*
G01*
X13982Y17781D02*
X13982Y28689D01*
X13449Y29222D01*
X12823Y29222D01*
G74*
D01*
G02X12812Y29210I1393J1258*
G01*
G75*
D01*
G02X12812Y26670I-1382J-1270*
G01*
G75*
D01*
G02X12812Y24130I-1382J-1270*
G01*
G75*
D01*
G02X12812Y21590I-1382J-1270*
G01*
G75*
D01*
G02X10148Y18949I-1382J-1270*
G01*
X10148Y18301D01*
X10681Y17768D01*
X12699Y17768D01*
G75*
D01*
G02X12830Y17761I1J-1258*
G01*
G74*
D01*
G02X13591Y17399I130J1251*
G01*
X16415Y14575D01*
G75*
D01*
G02X16671Y14570I95J-1875*
G01*
X14350Y16890D01*
G75*
D01*
G02X13982Y17781I890J890*
G01*
X35672Y21590D02*
G75*
D01*
G03X35672Y24130I-1382J1270*
G01*
G75*
D01*
G03X35672Y26670I-1382J1270*
G01*
G75*
D01*
G03X35672Y29210I-1382J1270*
G01*
G75*
D01*
G03X35672Y31750I-1382J1270*
G01*
G75*
D01*
G03X35672Y34290I-1382J1270*
G01*
G75*
D01*
G03X35672Y36830I-1382J1270*
G01*
G74*
D01*
G03X35683Y36842I1382J1270*
G01*
X40119Y36842D01*
X40652Y36309D01*
X40652Y24131D01*
G75*
D01*
G03X41020Y23240I1258J-1*
G01*
X41142Y23119D01*
X41142Y23119D01*
X44258Y20003D01*
X42024Y17768D01*
X35369Y17768D01*
G75*
D01*
G03X35548Y18415I-1079J647*
G01*
X35548Y18927D01*
G75*
D01*
G03X35672Y21590I-1258J1393*
G01*
X48361Y19038D02*
X49009Y19038D01*
X52082Y22111D01*
X52082Y27443D01*
X52058Y27419D01*
X52058Y22860D01*
G75*
D01*
G02X51689Y21969I-1258J0*
G01*
X49151Y19431D01*
G74*
D01*
G02X48680Y19134I891J889*
G01*
G74*
D01*
G02X48389Y19069I420J1186*
G01*
G74*
D01*
G02X48361Y19038I1399J1251*
G01*
X32420Y22699D02*
X31508Y23611D01*
X31508Y27673D01*
X32130Y27050D01*
G74*
D01*
G03X32891Y26689I890J890*
G01*
G74*
D01*
G03X32908Y26670I1399J1251*
G01*
G75*
D01*
G03X32908Y24130I1382J-1270*
G01*
G75*
D01*
G03X32420Y22699I1382J-1270*
G01*
X45120Y22699D02*
X44700Y23119D01*
X44700Y23119D01*
X43168Y24651D01*
X43168Y36830D01*
G74*
D01*
G03X42799Y37721I1258J0*
G01*
X41531Y38989D01*
G74*
D01*
G03X40640Y39358I891J889*
G01*
X35683Y39358D01*
G74*
D01*
G03X35661Y39382I1393J1258*
G01*
X41389Y39382D01*
X43192Y37579D01*
X43192Y31752D01*
G75*
D01*
G03X43560Y30860I1258J-2*
G01*
X44830Y29590D01*
G74*
D01*
G03X45356Y29276I890J890*
G01*
G74*
D01*
G03X45591Y29229I364J1204*
G01*
G74*
D01*
G03X45608Y29210I1399J1251*
G01*
G75*
D01*
G03X45608Y26670I1382J-1270*
G01*
G75*
D01*
G03X45608Y24130I1382J-1270*
G01*
G75*
D01*
G03X45120Y22699I1382J-1270*
G01*
X48860Y22699D02*
G75*
D01*
G03X48372Y24130I-1870J161*
G01*
G75*
D01*
G03X48372Y26670I-1382J1270*
G01*
G75*
D01*
G03X48372Y29210I-1382J1270*
G01*
G74*
D01*
G03X48383Y29222I1382J1270*
G01*
X50164Y29222D01*
G75*
D01*
G03X50311Y29230I1J1258*
G01*
X49910Y28830D01*
G75*
D01*
G03X49542Y27938I890J-890*
G01*
X49542Y23381D01*
X48860Y22699D01*
X48372Y31750D02*
G74*
D01*
G03X48383Y31762I1382J1270*
G01*
X49309Y31762D01*
G75*
D01*
G03X49690Y31821I1J1258*
G01*
G74*
D01*
G03X49745Y31840I380J1199*
G01*
X49644Y31738D01*
X48383Y31738D01*
G74*
D01*
G03X48372Y31750I1393J1258*
G01*
X48372Y34290D02*
G74*
D01*
G03X48389Y34309I1382J1270*
G01*
G74*
D01*
G03X49151Y34671I129J1251*
G01*
X49892Y35413D01*
X49892Y35381D01*
X48789Y34278D01*
X48383Y34278D01*
G74*
D01*
G03X48372Y34290I1393J1258*
G01*
X46142Y44462D02*
X47739Y44462D01*
X48392Y43809D01*
X48392Y39348D01*
G74*
D01*
G03X48241Y39499I1402J1248*
G01*
G74*
D01*
G03X47879Y40261I1251J129*
G01*
X45111Y43029D01*
G74*
D01*
G03X44385Y43387I891J889*
G01*
G75*
D01*
G03X44219Y43398I-165J-1247*
G01*
X36287Y43398D01*
X36735Y43845D01*
G75*
D01*
G03X38212Y46990I95J1875*
G01*
G75*
D01*
G03X38212Y49530I-1382J1270*
G01*
G75*
D01*
G03X38088Y52193I-1382J1270*
G01*
X38088Y52705D01*
G74*
D01*
G03X37719Y53596I1258J0*
G01*
X36451Y54864D01*
G74*
D01*
G03X35560Y55233I891J889*
G01*
X31001Y55233D01*
X29833Y56401D01*
X29833Y59828D01*
X32130Y57530D01*
G74*
D01*
G03X32891Y57169I890J890*
G01*
G75*
D01*
G03X36160Y58581I1399J1251*
G01*
X38874Y55867D01*
X38874Y47499D01*
G75*
D01*
G03X39242Y46608I1258J-1*
G01*
X41020Y44830D01*
G75*
D01*
G03X41911Y44462I890J890*
G01*
X42758Y44462D01*
G75*
D01*
G03X43873Y43837I1115J681*
G01*
X45027Y43837D01*
G74*
D01*
G03X46142Y44462I0J1306*
G01*
X45338Y38991D02*
X43447Y40882D01*
X43699Y40882D01*
X45433Y39148D01*
G74*
D01*
G03X45338Y38991I1557J1048*
G01*
X59190Y58420D02*
G75*
D01*
G03X59190Y58420I500J0*
G01*
X59024Y56665D02*
X59024Y57754D01*
X57935Y57754D01*
G74*
D01*
G03X59024Y56665I1755J666*
G01*
X60972Y57049D02*
X60972Y41898D01*
X58959Y41898D01*
G75*
D01*
G03X58526Y41821I0J-1258*
G01*
G74*
D01*
G03X58069Y41530I433J1181*
G01*
X56908Y40368D01*
X56908Y48490D01*
G74*
D01*
G03X56539Y49381I1258J0*
G01*
X52693Y53226D01*
X52693Y57785D01*
G74*
D01*
G03X52324Y58676I1258J0*
G01*
X51297Y59702D01*
X58297Y59702D01*
G74*
D01*
G03X58308Y59690I1393J1258*
G01*
G74*
D01*
G03X57935Y59086I1382J1270*
G01*
X59024Y59086D01*
X59024Y59205D01*
G75*
D01*
G03X60356Y59205I666J1755*
G01*
X60356Y59086D01*
X60972Y59086D01*
X60972Y57754D01*
X60356Y57754D01*
X60356Y56665D01*
G74*
D01*
G03X60972Y57049I666J1755*
G01*
X42758Y46978D02*
X42431Y46978D01*
X41390Y48019D01*
X41390Y48271D01*
X42290Y47370D01*
G74*
D01*
G03X42811Y47057I890J890*
G01*
G74*
D01*
G03X42758Y46978I1062J760*
G01*
X46127Y47002D02*
X47739Y47002D01*
X47763Y46978D01*
X46142Y46978D01*
G74*
D01*
G03X46127Y47002I1115J681*
G01*
X45843Y49542D02*
X47739Y49542D01*
X47763Y49518D01*
X45843Y49518D01*
G74*
D01*
G03X45832Y49530I1393J1258*
G01*
G74*
D01*
G03X45843Y49542I1382J1270*
G01*
X48260Y52058D02*
X45843Y52058D01*
G75*
D01*
G03X44438Y52677I-1393J-1258*
G01*
X44438Y57923D01*
X44830Y57530D01*
G74*
D01*
G03X45591Y57169I890J890*
G01*
G75*
D01*
G03X48038Y56863I1399J1251*
G01*
X48272Y56629D01*
X48272Y52071D01*
G75*
D01*
G03X48272Y52058I1258J-1*
G01*
G74*
D01*
G03X48260Y52058I12J1258*
G01*
X32130Y65150D02*
X31508Y65773D01*
X31508Y61711D01*
X32420Y60799D01*
G75*
D01*
G02X32908Y62230I1870J161*
G01*
G75*
D01*
G02X32908Y64770I1382J1270*
G01*
G74*
D01*
G02X32891Y64789I1382J1270*
G01*
G74*
D01*
G02X32130Y65150I129J1251*
G01*
X35661Y77482D02*
X41389Y77482D01*
X43192Y75679D01*
X43192Y69852D01*
G75*
D01*
G03X43560Y68960I1258J-2*
G01*
X44830Y67690D01*
G74*
D01*
G03X45356Y67376I890J890*
G01*
G74*
D01*
G03X45591Y67329I364J1204*
G01*
G74*
D01*
G03X45608Y67310I1399J1251*
G01*
G75*
D01*
G03X45608Y64770I1382J-1270*
G01*
G75*
D01*
G03X45608Y62230I1382J-1270*
G01*
G75*
D01*
G03X45120Y60799I1382J-1270*
G01*
X43168Y62751D01*
X43168Y74930D01*
G74*
D01*
G03X42799Y75821I1258J0*
G01*
X41531Y77089D01*
G74*
D01*
G03X40640Y77458I891J889*
G01*
X35683Y77458D01*
G74*
D01*
G03X35661Y77482I1393J1258*
G01*
X35683Y74942D02*
X40119Y74942D01*
X40652Y74409D01*
X40652Y62727D01*
X36451Y66929D01*
G74*
D01*
G03X35689Y67291I891J889*
G01*
G74*
D01*
G03X35672Y67310I1399J1251*
G01*
G75*
D01*
G03X35672Y69850I-1382J1270*
G01*
G75*
D01*
G03X35672Y72390I-1382J1270*
G01*
G75*
D01*
G03X35672Y74930I-1382J1270*
G01*
G74*
D01*
G03X35683Y74942I1382J1270*
G01*
X45338Y77091D02*
G74*
D01*
G02X45433Y77248I1652J891*
G01*
X43699Y78982D01*
X43447Y78982D01*
X45338Y77091D01*
X48272Y77571D02*
X48272Y77584D01*
X48240Y77616D01*
G74*
D01*
G02X48241Y77599I1250J146*
G01*
G74*
D01*
G02X48272Y77571I1251J1399*
G01*
X69040Y82108D02*
X68270Y82879D01*
X67500Y82108D01*
G75*
D01*
G03X69040Y82108I770J1712*
G01*
X67820Y83820D02*
G75*
D01*
G03X67820Y83820I450J0*
G01*
X69982Y84590D02*
X69211Y83820D01*
X69982Y83050D01*
G75*
D01*
G03X69982Y84590I-1712J770*
G01*
X72011Y80899D02*
G74*
D01*
G03X71385Y81240I891J889*
G01*
G75*
D01*
G03X71119Y81268I-265J-1230*
G01*
X66561Y81268D01*
X66028Y81801D01*
X66028Y82427D01*
G74*
D01*
G03X66520Y83141I1258J1393*
G01*
G74*
D01*
G03X66558Y83050I1750J679*
G01*
X67329Y83820D01*
X66558Y84590D01*
G74*
D01*
G03X66520Y84499I1712J770*
G01*
G74*
D01*
G03X66141Y85102I1750J679*
G01*
X67929Y85102D01*
X68270Y84761D01*
X68611Y85102D01*
X69964Y85102D01*
X73037Y82029D01*
X73037Y79872D01*
X72011Y80899D01*
X41898Y96397D02*
X41898Y88151D01*
X42431Y87618D01*
X43318Y87618D01*
X42290Y88645D01*
G75*
D01*
G02X41922Y89536I890J890*
G01*
X41922Y96397D01*
G74*
D01*
G02X41910Y96408I1258J1393*
G01*
G74*
D01*
G02X41898Y96397I1270J1382*
G01*
G54D13*
X46990Y6350D02*
X46990Y8890D01*
X36830Y8890D02*
X36830Y7620D01*
X41910Y7620D02*
X41910Y8890D01*
X21590Y15240D02*
X21590Y8890D01*
X62865Y8890D02*
X60960Y8890D01*
X63500Y9525D02*
X62865Y8890D01*
X63500Y12700D02*
X63500Y9525D01*
X36830Y11430D02*
X36830Y12700D01*
X60960Y13335D02*
X60960Y11430D01*
X16510Y12700D02*
X12700Y16510D01*
X15240Y17780D02*
X19050Y13970D01*
X36830Y12700D02*
X37870Y13740D01*
X58825Y13740D01*
X64770Y19685D01*
X63500Y15875D02*
X60960Y13335D01*
X73660Y13970D02*
X64770Y13970D01*
X63500Y12700D01*
X76200Y16510D02*
X73660Y13970D01*
X17780Y19050D02*
X21590Y15240D01*
X72390Y15875D02*
X63500Y15875D01*
X74295Y17780D02*
X72390Y15875D01*
X10160Y16510D02*
X8890Y17780D01*
X8890Y40640D01*
X12700Y16510D02*
X10160Y16510D01*
X15240Y29210D02*
X15240Y17780D01*
X74295Y82550D02*
X74295Y17780D01*
X76200Y83820D02*
X76200Y16510D01*
X17780Y30480D02*
X17780Y19050D01*
X30250Y23090D02*
X33020Y20320D01*
X34290Y20320D01*
X41910Y24130D02*
X45720Y20320D01*
X48260Y20320D01*
X46355Y20320D02*
X46990Y20320D01*
X50800Y22860D02*
X48260Y20320D01*
X64770Y19685D02*
X64770Y24130D01*
X53340Y21590D02*
X53340Y27940D01*
X30250Y39775D02*
X30250Y23090D01*
X41910Y36830D02*
X41910Y24130D01*
X50800Y27940D02*
X50800Y22860D01*
X59055Y22860D02*
X59690Y22860D01*
X64770Y24130D02*
X66040Y25400D01*
X69850Y25400D01*
X33020Y27940D02*
X34290Y27940D01*
X31750Y29210D02*
X33020Y27940D01*
X13970Y30480D02*
X15240Y29210D01*
X31750Y38735D02*
X31750Y29210D01*
X11430Y30480D02*
X13970Y30480D01*
X15240Y33020D02*
X17780Y30480D01*
X45720Y30480D02*
X44450Y31750D01*
X44450Y38100D01*
X45720Y30480D02*
X50165Y30480D01*
X15240Y33020D02*
X11430Y33020D01*
X49310Y33020D02*
X46990Y33020D01*
X27305Y35560D02*
X21590Y35560D01*
X28575Y36830D02*
X27305Y35560D01*
X46990Y35560D02*
X48260Y35560D01*
X28575Y40640D02*
X28575Y36830D01*
X40640Y38100D02*
X34290Y38100D01*
X40640Y38100D02*
X41910Y36830D01*
X46990Y38100D02*
X46990Y39370D01*
X8890Y40640D02*
X11430Y43180D01*
X31750Y43815D02*
X28575Y40640D01*
X62230Y41275D02*
X62230Y59690D01*
X11430Y43180D02*
X13970Y43180D01*
X16510Y45720D01*
X34925Y43815D02*
X31750Y43815D01*
X34925Y43815D02*
X36830Y45720D01*
X36830Y52705D01*
X40132Y47498D02*
X41910Y45720D01*
X48260Y45720D01*
X40132Y56388D02*
X40132Y47498D01*
X43180Y48260D02*
X41680Y49760D01*
X43180Y48260D02*
X48260Y48260D01*
X41680Y57380D02*
X41680Y49760D01*
X43180Y52070D02*
X44450Y50800D01*
X43180Y58420D02*
X43180Y52070D01*
X44450Y50800D02*
X48260Y50800D01*
X49530Y57150D02*
X49530Y52070D01*
X28575Y55880D02*
X30480Y53975D01*
X35560Y53975D01*
X36830Y52705D01*
X51435Y52705D02*
X51435Y57785D01*
X28575Y72390D02*
X28575Y55880D01*
X35560Y60960D02*
X40132Y56388D01*
X35560Y63500D02*
X41680Y57380D01*
X48260Y58420D02*
X49530Y57150D01*
X51435Y57785D02*
X48260Y60960D01*
X30250Y61190D02*
X33020Y58420D01*
X34290Y58420D01*
X35560Y66040D02*
X43180Y58420D01*
X41910Y62230D02*
X45720Y58420D01*
X48260Y58420D01*
X60960Y60960D02*
X62230Y59690D01*
X30250Y78091D02*
X30250Y61190D01*
X34290Y60960D02*
X35560Y60960D01*
X41910Y74930D02*
X41910Y62230D01*
X48260Y60960D02*
X46990Y60960D01*
X34290Y63500D02*
X35560Y63500D01*
X31750Y67310D02*
X33020Y66040D01*
X35560Y66040D01*
X31750Y76835D02*
X31750Y67310D01*
X45720Y68580D02*
X44450Y69850D01*
X44450Y76200D01*
X45720Y68580D02*
X46990Y68580D01*
X27305Y73660D02*
X28575Y72390D01*
X21590Y73660D02*
X27305Y73660D01*
X34290Y76200D02*
X40640Y76200D01*
X41910Y74930D01*
X46990Y76200D02*
X46990Y77470D01*
X32399Y80240D02*
X30250Y78091D01*
X46990Y77470D02*
X44220Y80240D01*
X32399Y80240D01*
X66040Y80010D02*
X64770Y81280D01*
X71120Y80010D02*
X66040Y80010D01*
X72390Y78740D02*
X71120Y80010D01*
X64770Y81280D02*
X64770Y83820D01*
X64135Y84455D02*
X64770Y83820D01*
X70485Y86360D02*
X74295Y82550D01*
X71755Y88265D02*
X76200Y83820D01*
X31750Y86360D02*
X33655Y84455D01*
X31750Y109220D02*
X31750Y86360D01*
X33655Y84455D02*
X64135Y84455D01*
X40640Y87630D02*
X41910Y86360D01*
X70485Y86360D01*
X40640Y87630D02*
X40640Y97790D01*
X43180Y89535D02*
X44450Y88265D01*
X71755Y88265D01*
X43180Y97790D02*
X43180Y89535D01*
X17145Y107950D02*
X19685Y110490D01*
X30480Y110490D02*
X31750Y109220D01*
X64770Y43815D02*
X66040Y42545D01*
X64770Y45720D02*
X64770Y43815D01*
X71120Y42545D02*
X72390Y43815D01*
X72390Y78740D01*
X66040Y42545D02*
X71120Y42545D01*
X30480Y14605D02*
X34290Y18415D01*
X34290Y20320D01*
X31750Y13335D02*
X34925Y16510D01*
X31750Y13335D02*
X31750Y11430D01*
X19050Y13970D02*
X19050Y8255D01*
X16510Y94615D02*
X14605Y96520D01*
X11430Y107950D02*
X17145Y107950D01*
X14605Y96520D02*
X10160Y96520D01*
X10160Y106680D01*
X11430Y107950D01*
X16510Y45720D02*
X16510Y94615D01*
X19685Y110490D02*
X30480Y110490D01*
X25400Y107950D02*
X25400Y113030D01*
X30480Y81915D02*
X45720Y81915D01*
X29210Y91440D02*
X29210Y83185D01*
X25400Y92710D02*
X27940Y92710D01*
X29210Y91440D01*
X25400Y90170D02*
X25400Y95250D01*
X29210Y83185D02*
X30480Y81915D01*
X45720Y81915D02*
X49530Y78105D01*
X50800Y60960D02*
X60960Y60960D01*
X49530Y78105D02*
X49530Y62230D01*
X50800Y60960D01*
X49650Y44330D02*
X49650Y36950D01*
X48260Y45720D02*
X49650Y44330D01*
X48260Y35560D02*
X49650Y36950D01*
X51150Y34860D02*
X49310Y33020D01*
X48260Y48260D02*
X51150Y45370D01*
X51150Y34860D01*
X52650Y46410D02*
X52650Y32965D01*
X50165Y30480D01*
X48260Y50800D02*
X52650Y46410D01*
X54150Y47450D02*
X54150Y31290D01*
X49530Y52070D02*
X54150Y47450D01*
X54150Y31290D02*
X50800Y27940D01*
X55650Y30250D02*
X55650Y48490D01*
X51435Y52705D01*
X53340Y27940D02*
X55650Y30250D01*
X57150Y24765D02*
X59055Y22860D01*
X62230Y41275D02*
X61595Y40640D01*
X58959Y40640D02*
X57150Y38831D01*
X57150Y24765D01*
X61595Y40640D02*
X58959Y40640D01*
X46990Y17780D02*
X49530Y17780D01*
X53340Y21590D01*
X28575Y14605D02*
X30480Y14605D01*
X26670Y12700D02*
X28575Y14605D01*
X23955Y3350D02*
X19050Y8255D01*
X43990Y3350D02*
X23955Y3350D01*
X46990Y6350D02*
X43990Y3350D01*
X21590Y8890D02*
X25630Y4850D01*
X39140Y4850D01*
X41910Y7620D01*
X36830Y7620D02*
X35560Y6350D01*
X27940Y6350D02*
X26670Y7620D01*
X35560Y6350D02*
X27940Y6350D01*
X26670Y7620D02*
X26670Y12700D01*
X41910Y40640D02*
X33655Y40640D01*
X44220Y42140D02*
X32615Y42140D01*
X30250Y39775D01*
X46990Y39370D02*
X44220Y42140D01*
X44450Y38100D02*
X41910Y40640D01*
X33655Y40640D02*
X31750Y38735D01*
X41910Y78740D02*
X33655Y78740D01*
X31750Y76835D01*
X44450Y76200D02*
X41910Y78740D01*
X46038Y20003D02*
X46355Y20320D01*
X42545Y16510D02*
X46038Y20003D01*
X34925Y16510D02*
X42545Y16510D01*
G54D14*
X65227Y104081D02*
X64516Y104081D01*
X64161Y104438D01*
X64161Y105509D01*
X64516Y105866D01*
X65227Y105866D01*
X65049Y105866D02*
X65049Y104081D01*
X63449Y105331D02*
X62916Y105331D01*
X62738Y105152D01*
X62738Y104259D01*
X62916Y104081D01*
X63449Y104081D01*
X63627Y104259D01*
X63627Y104616D01*
X63449Y104795D01*
X62738Y104795D01*
X62738Y104259D02*
X62561Y104081D01*
X61849Y105866D02*
X61849Y104438D01*
X61494Y104081D01*
X60249Y105866D02*
X60249Y104438D01*
X59894Y104081D01*
X58649Y105331D02*
X58116Y105331D01*
X57938Y105152D01*
X57938Y104259D01*
X58116Y104081D01*
X58649Y104081D01*
X58827Y104259D01*
X58827Y104616D01*
X58649Y104795D01*
X57938Y104795D01*
X57938Y104259D02*
X57761Y104081D01*
X57227Y104438D02*
X56872Y104081D01*
X56516Y104081D01*
X56161Y104438D01*
X57227Y104974D01*
X56872Y105331D01*
X56516Y105331D01*
X56161Y104974D01*
X52961Y104438D02*
X53316Y104081D01*
X53672Y104081D01*
X54027Y104438D01*
X54027Y105509D01*
X53672Y105866D01*
X53316Y105866D01*
X52961Y105509D01*
X52249Y105331D02*
X51716Y105331D01*
X51538Y105152D01*
X51538Y104259D01*
X51716Y104081D01*
X52249Y104081D01*
X52427Y104259D01*
X52427Y104616D01*
X52249Y104795D01*
X51538Y104795D01*
X51538Y104259D02*
X51361Y104081D01*
X50827Y104795D02*
X50294Y105331D01*
X50116Y105331D01*
X49761Y104974D01*
X50827Y104081D02*
X50827Y105331D01*
X49227Y104795D02*
X48694Y105331D01*
X48516Y105331D01*
X48161Y104974D01*
X49227Y104081D02*
X49227Y105331D01*
X47094Y104081D02*
X47094Y105152D01*
X47094Y105509D02*
X47094Y105688D01*
X44961Y104438D02*
X45316Y104081D01*
X45672Y104081D01*
X46027Y104438D01*
X46027Y104974D01*
X45672Y105331D01*
X45316Y105331D01*
X44961Y104974D01*
X45138Y104795D01*
X46027Y104795D01*
X44427Y104795D02*
X43894Y105331D01*
X43716Y105331D01*
X43361Y104974D01*
X44427Y104081D02*
X44427Y105331D01*
X41227Y104081D02*
X41227Y105866D01*
X40516Y105866D01*
X40161Y105509D01*
X40161Y105331D01*
X40516Y104974D01*
X41227Y104974D01*
X38561Y104438D02*
X38916Y104081D01*
X39272Y104081D01*
X39627Y104438D01*
X39627Y105509D01*
X39272Y105866D01*
X38916Y105866D01*
X38561Y105509D01*
X38027Y104081D02*
X37316Y104081D01*
X36961Y104438D01*
X36961Y104616D01*
X37316Y104974D01*
X36961Y105331D01*
X36961Y105509D01*
X37316Y105866D01*
X37849Y105866D01*
X38027Y105866D01*
X37849Y104974D02*
X37316Y104974D01*
X37849Y105866D02*
X37849Y104081D01*
G54D15*
X-254Y-254D02*
X-254Y11989D01*
X-254Y-254D02*
X7925Y-254D01*
X81534Y-254D02*
X73355Y-254D01*
X81534Y-254D02*
X81534Y11989D01*
X81534Y122174D02*
X81534Y109931D01*
X81534Y122174D02*
X73355Y122174D01*
X-254Y122174D02*
X7925Y122174D01*
X-254Y122174D02*
X-254Y109931D01*
X-5254Y-254D02*
X-15254Y-254D01*
X-10254Y-5254D02*
X-10254Y4746D01*
X-14004Y-254D02*
G75*
D01*
G02X-14004Y-254I3750J0*
G01*
X86534Y-254D02*
X96534Y-254D01*
X91534Y-5254D02*
X91534Y4746D01*
X87784Y-254D02*
G75*
D01*
G02X87784Y-254I3750J0*
G01*
X90284Y-254D02*
G75*
D01*
G02X90284Y-254I1250J0*
G01*
X-5254Y122174D02*
X-15254Y122174D01*
X-10254Y117174D02*
X-10254Y127174D01*
X-14004Y122174D02*
G75*
D01*
G02X-14004Y122174I3750J0*
G01*
X-12754Y122174D02*
G75*
D01*
G02X-12754Y122174I2500J0*
G01*
X-11504Y122174D02*
G75*
D01*
G02X-11504Y122174I1250J0*
G01*
G54D16*
X36830Y45720D03*
X36830Y48260D03*
X44450Y48260D03*
X36830Y50800D03*
X44450Y50800D03*
X68270Y83820D03*
X64770Y83820D03*
X68270Y45720D03*
X64770Y45720D03*
X25400Y87630D03*
X25400Y90170D03*
X25400Y92710D03*
X25400Y95250D03*
X25400Y97790D03*
X25400Y100330D03*
X25400Y102870D03*
X25400Y113030D03*
X25400Y110490D03*
X25400Y107950D03*
X25400Y105410D03*
X25400Y115570D03*
X55880Y113030D03*
X58420Y113030D03*
X60960Y113030D03*
X63500Y113030D03*
X35560Y97790D03*
X38100Y97790D03*
X40640Y97790D03*
X43180Y97790D03*
X45720Y97790D03*
X48260Y97790D03*
X50800Y97790D03*
X53340Y97790D03*
X55880Y97790D03*
X58420Y97790D03*
X60960Y97790D03*
X63500Y97790D03*
X35560Y113030D03*
X38100Y113030D03*
X40640Y113030D03*
X43180Y113030D03*
X45720Y113030D03*
X48260Y113030D03*
X50800Y113030D03*
X53340Y113030D03*
X29210Y8890D03*
X31750Y8890D03*
X34290Y8890D03*
X36830Y8890D03*
X39370Y8890D03*
X41910Y8890D03*
X44450Y8890D03*
X46990Y8890D03*
X49530Y8890D03*
X52070Y8890D03*
X29210Y11430D03*
X31750Y11430D03*
X34290Y11430D03*
X36830Y11430D03*
X39370Y11430D03*
X41910Y11430D03*
X44450Y11430D03*
X46990Y11430D03*
X49530Y11430D03*
X52070Y11430D03*
X69850Y20320D03*
X69850Y22860D03*
X69850Y25400D03*
X69850Y27940D03*
X69850Y30480D03*
X69850Y33020D03*
X69850Y35560D03*
X69850Y38100D03*
X11430Y20320D03*
X11430Y22860D03*
X11430Y25400D03*
X11430Y27940D03*
X11430Y30480D03*
X11430Y33020D03*
X11430Y35560D03*
X11430Y38100D03*
X11430Y63500D03*
X11430Y76200D03*
X11430Y73660D03*
X11430Y66040D03*
X11430Y60960D03*
X11430Y58420D03*
X11430Y68580D03*
X11430Y71120D03*
X69850Y58420D03*
X69850Y73660D03*
X69850Y76200D03*
X69850Y66040D03*
X69850Y63500D03*
X69850Y71120D03*
X69850Y68580D03*
X69850Y60960D03*
X60960Y11430D03*
X46990Y58420D03*
X59690Y58420D03*
X46990Y60960D03*
X59690Y60960D03*
X46990Y63500D03*
X59690Y63500D03*
X46990Y66040D03*
X59690Y66040D03*
X46990Y68580D03*
X59690Y68580D03*
X46990Y71120D03*
X59690Y71120D03*
X46990Y73660D03*
X59690Y73660D03*
X46990Y76200D03*
X59690Y76200D03*
X21590Y58420D03*
X34290Y58420D03*
X21590Y60960D03*
X34290Y60960D03*
X21590Y63500D03*
X34290Y63500D03*
X21590Y66040D03*
X34290Y66040D03*
X21590Y68580D03*
X34290Y68580D03*
X21590Y71120D03*
X34290Y71120D03*
X21590Y73660D03*
X34290Y73660D03*
X21590Y76200D03*
X34290Y76200D03*
X46990Y20320D03*
X59690Y20320D03*
X46990Y22860D03*
X59690Y22860D03*
X46990Y25400D03*
X59690Y25400D03*
X46990Y27940D03*
X59690Y27940D03*
X46990Y30480D03*
X59690Y30480D03*
X46990Y33020D03*
X59690Y33020D03*
X46990Y35560D03*
X59690Y35560D03*
X46990Y38100D03*
X59690Y38100D03*
X21590Y20320D03*
X34290Y20320D03*
X21590Y22860D03*
X34290Y22860D03*
X21590Y25400D03*
X34290Y25400D03*
X21590Y27940D03*
X34290Y27940D03*
X21590Y30480D03*
X34290Y30480D03*
X21590Y33020D03*
X34290Y33020D03*
X21590Y35560D03*
X34290Y35560D03*
X21590Y38100D03*
X34290Y38100D03*
X16510Y50800D03*
X13010Y50800D03*
X16510Y12700D03*
X13010Y12700D03*
X13970Y104450D03*
X13970Y107950D03*
G54D17*
X44450Y45720D03*
G54D18*
X43874Y45144D02*
X45026Y45144D01*
X45026Y46296D01*
X43874Y46296D01*
X43874Y45144D01*D02*
G54D19*
X10160Y87000D03*
X10160Y96520D03*
G54D20*
X46990Y17780D03*
G54D21*
X60960Y8890D03*
G54D22*
X60458Y8388D02*
X61462Y8388D01*
X61462Y9392D01*
X60458Y9392D01*
X60458Y8388D01*D02*

M02*
