G04 Generated by Ultiboard 14.1 *
%FSLAX33Y33*%
%MOMM*%

%ADD10C,0.001*%
%ADD11C,0.254*%
%ADD12C,0.750*%
%ADD13C,0.167*%
%ADD14C,0.127*%
%ADD15C,2.000*%
%ADD16R,1.153X1.153*%
%ADD17C,0.847*%
%ADD18R,1.050X1.400*%
%ADD19R,1.150X1.450*%
%ADD20R,2.000X2.000*%
%ADD21C,3.500*%
%ADD22C,1.500*%
%ADD23R,1.005X1.005*%
%ADD24C,0.995*%


G04 ColorRGB 00FF00 for the following layer *
%LNCopper Top*%
%LPD*%
G54D10*
G36*
X881Y881D02*
X881Y881D01*
X80399Y881D01*
X80399Y121039D01*
X881Y121039D01*
X881Y881D01*
D02*
G37*
%LPC*%
G36*
X4457Y67943D02*
G75*
D01*
G02X4825Y68835I1258J2*
G01*
X4825Y68835D01*
X7110Y71119D01*
X7110Y71119D01*
X8000Y72010D01*
G74*
D01*
G02X8864Y72378I890J890*
G01*
G75*
D01*
G02X8890Y72378I26J-1258*
G01*
X8890Y72378D01*
X10037Y72378D01*
G74*
D01*
G02X10048Y72390I1393J1258*
G01*
G74*
D01*
G02X10031Y72409I1382J1270*
G01*
G74*
D01*
G02X9270Y72770I129J1251*
G01*
X9270Y72770D01*
X8000Y74040D01*
G75*
D01*
G02X7632Y74931I890J890*
G01*
X7632Y74931D01*
X7632Y78738D01*
G75*
D01*
G02X8000Y79630I1258J2*
G01*
X8000Y79630D01*
X9270Y80900D01*
G74*
D01*
G02X9796Y81214I890J890*
G01*
G75*
D01*
G02X10160Y81268I364J-1204*
G01*
X10160Y81268D01*
X19799Y81268D01*
X20702Y82171D01*
X20702Y82538D01*
G75*
D01*
G02X20504Y83095I683J557*
G01*
X20504Y83095D01*
X20504Y84545D01*
G74*
D01*
G02X20702Y85102I881J0*
G01*
X20702Y85102D01*
X20702Y91173D01*
G75*
D01*
G02X21070Y92065I1258J2*
G01*
X21070Y92065D01*
X22605Y93600D01*
G74*
D01*
G02X23037Y93882I890J890*
G01*
G75*
D01*
G02X23495Y93968I458J-1172*
G01*
X23495Y93968D01*
X24007Y93968D01*
G74*
D01*
G02X24018Y93980I1393J1258*
G01*
G75*
D01*
G02X24018Y96520I1382J1270*
G01*
G74*
D01*
G02X23645Y97124I1382J1270*
G01*
X23645Y97124D01*
X24734Y97124D01*
X24734Y97005D01*
G75*
D01*
G02X26066Y97005I666J-1755*
G01*
X26066Y97005D01*
X26066Y97124D01*
X27155Y97124D01*
G74*
D01*
G02X26782Y96520I1755J666*
G01*
G75*
D01*
G02X26782Y93980I-1382J-1270*
G01*
G74*
D01*
G02X26793Y93968I1382J1270*
G01*
X26793Y93968D01*
X27419Y93968D01*
X27952Y94501D01*
X27952Y108584D01*
G75*
D01*
G02X28320Y109475I1258J1*
G01*
X28320Y109475D01*
X29590Y110745D01*
G75*
D01*
G02X30481Y111113I890J-890*
G01*
X30481Y111113D01*
X59169Y111113D01*
X59697Y111641D01*
X59690Y111648D01*
G75*
D01*
G02X57150Y111648I-1270J1382*
G01*
G75*
D01*
G02X54610Y111648I-1270J1382*
G01*
G75*
D01*
G02X52070Y111648I-1270J1382*
G01*
G75*
D01*
G02X49530Y111648I-1270J1382*
G01*
G75*
D01*
G02X46990Y111648I-1270J1382*
G01*
G75*
D01*
G02X44450Y111648I-1270J1382*
G01*
G75*
D01*
G02X41910Y111648I-1270J1382*
G01*
G75*
D01*
G02X39370Y111648I-1270J1382*
G01*
G75*
D01*
G02X36830Y111648I-1270J1382*
G01*
G75*
D01*
G02X36830Y114412I-1270J1382*
G01*
G75*
D01*
G02X39370Y114412I1270J-1382*
G01*
G75*
D01*
G02X41910Y114412I1270J-1382*
G01*
G75*
D01*
G02X44450Y114412I1270J-1382*
G01*
G75*
D01*
G02X46990Y114412I1270J-1382*
G01*
G75*
D01*
G02X49530Y114412I1270J-1382*
G01*
G75*
D01*
G02X52070Y114412I1270J-1382*
G01*
G75*
D01*
G02X54610Y114412I1270J-1382*
G01*
G75*
D01*
G02X57150Y114412I1270J-1382*
G01*
G75*
D01*
G02X59690Y114412I1270J-1382*
G01*
G75*
D01*
G02X62230Y114412I1270J-1382*
G01*
G75*
D01*
G02X62230Y111648I1270J-1382*
G01*
G74*
D01*
G02X62218Y111637I1270J1382*
G01*
X62218Y111637D01*
X62218Y111125D01*
G75*
D01*
G02X61849Y110234I-1258J0*
G01*
X61849Y110234D01*
X60581Y108966D01*
G74*
D01*
G02X59690Y108597I891J889*
G01*
X59690Y108597D01*
X31001Y108597D01*
X30468Y108064D01*
X30468Y93980D01*
G75*
D01*
G02X30099Y93089I-1258J0*
G01*
X30099Y93089D01*
X28831Y91821D01*
G74*
D01*
G02X28205Y91480I891J889*
G01*
G75*
D01*
G02X27939Y91452I-265J1230*
G01*
X27939Y91452D01*
X26793Y91452D01*
G74*
D01*
G02X26782Y91440I1393J1258*
G01*
G75*
D01*
G02X26782Y88900I-1382J-1270*
G01*
G75*
D01*
G02X24018Y88900I-1382J-1270*
G01*
G75*
D01*
G02X24018Y91440I1382J1270*
G01*
X24011Y91447D01*
X24011Y91447D01*
X23218Y90654D01*
X23218Y85426D01*
X23244Y85426D01*
X23244Y85069D01*
G74*
D01*
G02X23416Y84545I709J524*
G01*
X23416Y84545D01*
X23416Y83095D01*
G75*
D01*
G02X23244Y82571I-881J0*
G01*
X23244Y82571D01*
X23244Y82214D01*
X23218Y82214D01*
X23218Y81650D01*
G75*
D01*
G02X22849Y80759I-1258J0*
G01*
X22849Y80759D01*
X21211Y79121D01*
G74*
D01*
G02X20770Y78835I891J889*
G01*
G75*
D01*
G02X20319Y78752I-450J1175*
G01*
X20319Y78752D01*
X10681Y78752D01*
X10148Y78219D01*
X10148Y77571D01*
G74*
D01*
G02X10764Y77955I1282J1371*
G01*
X10764Y77955D01*
X10764Y76866D01*
X10148Y76866D01*
X10148Y75534D01*
X10764Y75534D01*
X10764Y75415D01*
G75*
D01*
G02X12096Y75415I666J-1755*
G01*
X12096Y75415D01*
X12096Y75534D01*
X13185Y75534D01*
G74*
D01*
G02X12812Y74930I1755J666*
G01*
G74*
D01*
G02X12823Y74918I1382J1270*
G01*
X12823Y74918D01*
X20197Y74918D01*
G74*
D01*
G02X20208Y74930I1393J1258*
G01*
G74*
D01*
G02X19835Y75534I1382J1270*
G01*
X19835Y75534D01*
X20924Y75534D01*
X20924Y75415D01*
G75*
D01*
G02X22256Y75415I666J-1755*
G01*
X22256Y75415D01*
X22256Y75534D01*
X23345Y75534D01*
G74*
D01*
G02X22972Y74930I1755J666*
G01*
G75*
D01*
G02X22972Y72390I-1382J-1270*
G01*
G75*
D01*
G02X22972Y69850I-1382J-1270*
G01*
G75*
D01*
G02X22972Y67310I-1382J-1270*
G01*
G75*
D01*
G02X22972Y64770I-1382J-1270*
G01*
G75*
D01*
G02X22972Y62230I-1382J-1270*
G01*
G74*
D01*
G02X23345Y61626I1382J1270*
G01*
X23345Y61626D01*
X22256Y61626D01*
X22256Y61745D01*
G75*
D01*
G02X20924Y61745I-666J1755*
G01*
X20924Y61745D01*
X20924Y61626D01*
X19835Y61626D01*
G74*
D01*
G02X20208Y62230I1755J666*
G01*
G74*
D01*
G02X20197Y62242I1382J1270*
G01*
X20197Y62242D01*
X19571Y62242D01*
X14861Y57531D01*
G74*
D01*
G02X13970Y57162I891J889*
G01*
X13970Y57162D01*
X12823Y57162D01*
G75*
D01*
G02X10048Y59690I-1393J1258*
G01*
G75*
D01*
G02X10048Y62230I1382J1270*
G01*
G75*
D01*
G02X10048Y64770I1382J1270*
G01*
G75*
D01*
G02X9560Y66201I1382J1270*
G01*
X9560Y66201D01*
X8648Y65289D01*
X8648Y40272D01*
X9905Y41530D01*
G75*
D01*
G02X10796Y41898I890J-890*
G01*
X10796Y41898D01*
X22974Y41898D01*
X23119Y42043D01*
X23507Y42431D01*
X23507Y80643D01*
G75*
D01*
G02X23875Y81535I1258J2*
G01*
X23875Y81535D01*
X24593Y82252D01*
G74*
D01*
G02X24335Y82214I258J843*
G01*
X24335Y82214D01*
X24276Y82214D01*
X24276Y83304D01*
X25216Y83304D01*
X25216Y83095D01*
G75*
D01*
G02X25178Y82837I-881J0*
G01*
X25178Y82837D01*
X33400Y91060D01*
G75*
D01*
G02X34291Y91428I890J-890*
G01*
X34291Y91428D01*
X72390Y91428D01*
G74*
D01*
G02X73281Y91059I0J1258*
G01*
X73281Y91059D01*
X77089Y87251D01*
G74*
D01*
G02X77458Y86360I889J891*
G01*
X77458Y86360D01*
X77458Y60960D01*
G75*
D01*
G02X77089Y60069I-1258J0*
G01*
X77089Y60069D01*
X72011Y54991D01*
G74*
D01*
G02X71460Y54669I891J889*
G01*
G75*
D01*
G02X71119Y54622I-340J1211*
G01*
X71119Y54622D01*
X50800Y54622D01*
G75*
D01*
G02X50436Y54676I0J1258*
G01*
G74*
D01*
G02X49910Y54990I364J1204*
G01*
X49910Y54990D01*
X48640Y56260D01*
G74*
D01*
G02X48276Y57053I890J890*
G01*
G75*
D01*
G02X45608Y59690I-1286J1367*
G01*
G75*
D01*
G02X45608Y62230I1382J1270*
G01*
G75*
D01*
G02X45608Y64770I1382J1270*
G01*
G75*
D01*
G02X45608Y67310I1382J1270*
G01*
G75*
D01*
G02X45608Y69850I1382J1270*
G01*
G74*
D01*
G02X45597Y69862I1382J1270*
G01*
X45597Y69862D01*
X44971Y69862D01*
X43168Y68059D01*
X43168Y62230D01*
G75*
D01*
G02X42799Y61339I-1258J0*
G01*
X42799Y61339D01*
X36451Y54991D01*
G74*
D01*
G02X36026Y54712I891J889*
G01*
G75*
D01*
G02X35559Y54622I-466J1168*
G01*
X35559Y54622D01*
X33020Y54622D01*
G75*
D01*
G02X32975Y54623I0J1258*
G01*
G74*
D01*
G02X32130Y54990I45J1257*
G01*
X32130Y54990D01*
X31738Y55383D01*
X31738Y25897D01*
X32130Y26290D01*
G74*
D01*
G02X32891Y26651I890J890*
G01*
G74*
D01*
G02X32908Y26670I1399J1251*
G01*
G75*
D01*
G02X32908Y29210I1382J1270*
G01*
G75*
D01*
G02X32908Y31750I1382J1270*
G01*
G75*
D01*
G02X32908Y34290I1382J1270*
G01*
G75*
D01*
G02X32908Y36830I1382J1270*
G01*
G75*
D01*
G02X35672Y36830I1382J1270*
G01*
G74*
D01*
G02X35683Y36818I1382J1270*
G01*
X35683Y36818D01*
X38214Y36818D01*
X44195Y42800D01*
G75*
D01*
G02X45086Y43168I890J-890*
G01*
X45086Y43168D01*
X52184Y43168D01*
X59435Y50420D01*
G75*
D01*
G02X60326Y50788I890J-890*
G01*
X60326Y50788D01*
X72390Y50788D01*
G74*
D01*
G02X73281Y50419I0J1258*
G01*
X73281Y50419D01*
X75184Y48516D01*
G74*
D01*
G02X75553Y47625I889J891*
G01*
X75553Y47625D01*
X75553Y17780D01*
G75*
D01*
G02X75184Y16889I-1258J0*
G01*
X75184Y16889D01*
X73281Y14986D01*
G74*
D01*
G02X72742Y14667I891J889*
G01*
G75*
D01*
G02X72389Y14617I-352J1208*
G01*
X72389Y14617D01*
X57036Y14617D01*
X56503Y14084D01*
X56503Y7620D01*
G75*
D01*
G02X56134Y6729I-1258J0*
G01*
X56134Y6729D01*
X54866Y5461D01*
G74*
D01*
G02X54240Y5120I891J889*
G01*
G75*
D01*
G02X53974Y5092I-265J1230*
G01*
X53974Y5092D01*
X50801Y5092D01*
G75*
D01*
G02X49910Y5460I-1J1258*
G01*
X49910Y5460D01*
X48640Y6730D01*
G74*
D01*
G02X48279Y7491I890J890*
G01*
G74*
D01*
G02X48260Y7508I1251J1399*
G01*
G75*
D01*
G02X45720Y7508I-1270J1382*
G01*
G75*
D01*
G02X43180Y7508I-1270J1382*
G01*
G75*
D01*
G02X40640Y7508I-1270J1382*
G01*
G74*
D01*
G02X40628Y7497I1270J1382*
G01*
X40628Y7497D01*
X40628Y5715D01*
G75*
D01*
G02X40259Y4824I-1258J0*
G01*
X40259Y4824D01*
X37896Y2461D01*
G74*
D01*
G02X37005Y2092I891J889*
G01*
X37005Y2092D01*
X10621Y2092D01*
G75*
D01*
G02X9730Y2460I-1J1258*
G01*
X9730Y2460D01*
X4825Y7365D01*
G75*
D01*
G02X4457Y8256I890J890*
G01*
X4457Y8256D01*
X4457Y67943D01*
D02*
G37*
G36*
X22972Y59690D02*
G75*
D01*
G02X20197Y57162I-1382J-1270*
G01*
X20197Y57162D01*
X19571Y57162D01*
X17768Y55359D01*
X17768Y52643D01*
G74*
D01*
G02X18391Y51800I258J843*
G01*
X18391Y51800D01*
X18391Y49800D01*
G75*
D01*
G02X17510Y48919I-881J0*
G01*
X17510Y48919D01*
X15510Y48919D01*
G75*
D01*
G02X14629Y49800I0J881*
G01*
X14629Y49800D01*
X14629Y50123D01*
X13951Y50800D01*
X14629Y51477D01*
X14629Y51800D01*
G74*
D01*
G02X15252Y52643I881J0*
G01*
X15252Y52643D01*
X15252Y55878D01*
G75*
D01*
G02X15620Y56770I1258J2*
G01*
X15620Y56770D01*
X18160Y59310D01*
G74*
D01*
G02X18879Y59666I890J890*
G01*
G75*
D01*
G02X19050Y59678I171J-1246*
G01*
X19050Y59678D01*
X20197Y59678D01*
G74*
D01*
G02X20208Y59690I1393J1258*
G01*
G74*
D01*
G02X19835Y60294I1382J1270*
G01*
X19835Y60294D01*
X20924Y60294D01*
X20924Y60175D01*
G75*
D01*
G02X22256Y60175I666J-1755*
G01*
X22256Y60175D01*
X22256Y60294D01*
X23345Y60294D01*
G74*
D01*
G02X22972Y59690I1755J666*
G01*
D02*
G37*
G36*
X12382Y95119D02*
G75*
D01*
G02X12382Y95119I-2222J1401*
G01*
D02*
G37*
G36*
X23345Y76866D02*
X23345Y76866D01*
X22256Y76866D01*
X22256Y77955D01*
G74*
D01*
G02X23345Y76866I666J1755*
G01*
D02*
G37*
G36*
X71119Y3419D02*
G75*
D01*
G02X71119Y3419I-634J4836*
G01*
D02*
G37*
G36*
X47835Y44139D02*
X47835Y44139D01*
X46785Y44139D01*
G75*
D01*
G02X46125Y44436I0J881*
G01*
G74*
D01*
G02X45027Y43837I1098J707*
G01*
X45027Y43837D01*
X43873Y43837D01*
G75*
D01*
G02X42567Y45143I0J1306*
G01*
X42567Y45143D01*
X42567Y46297D01*
G74*
D01*
G02X42913Y47183I1306J0*
G01*
G75*
D01*
G02X43068Y49530I1537J1077*
G01*
G75*
D01*
G02X45843Y52058I1382J1270*
G01*
X45843Y52058D01*
X46103Y52058D01*
G75*
D01*
G02X46785Y52381I682J-558*
G01*
X46785Y52381D01*
X47835Y52381D01*
G74*
D01*
G02X48260Y52272I0J881*
G01*
G75*
D01*
G02X48685Y52381I425J-772*
G01*
X48685Y52381D01*
X48711Y52381D01*
X48711Y51593D01*
G74*
D01*
G02X48716Y51500I876J93*
G01*
X48716Y51500D01*
X48716Y50100D01*
G75*
D01*
G02X48711Y50007I-881J0*
G01*
X48711Y50007D01*
X48711Y49053D01*
G74*
D01*
G02X48716Y48960I876J93*
G01*
X48716Y48960D01*
X48716Y47560D01*
G75*
D01*
G02X48711Y47467I-881J0*
G01*
X48711Y47467D01*
X48711Y46513D01*
G74*
D01*
G02X48716Y46420I876J93*
G01*
X48716Y46420D01*
X48716Y45020D01*
G75*
D01*
G02X48711Y44927I-881J0*
G01*
X48711Y44927D01*
X48711Y44139D01*
X48685Y44139D01*
G75*
D01*
G02X48260Y44248I0J881*
G01*
G74*
D01*
G02X47835Y44139I425J772*
G01*
D02*
G37*
G36*
X38212Y49530D02*
G75*
D01*
G02X38212Y46990I-1382J-1270*
G01*
G75*
D01*
G02X35448Y46990I-1382J-1270*
G01*
G75*
D01*
G02X35448Y49530I1382J1270*
G01*
G75*
D01*
G02X38212Y49530I1382J1270*
G01*
D02*
G37*
G36*
X36424Y107005D02*
X36424Y107005D01*
X66036Y107005D01*
G74*
D01*
G02X66590Y106451I0J554*
G01*
X66590Y106451D01*
X66590Y103139D01*
G75*
D01*
G02X66036Y102585I-554J0*
G01*
X66036Y102585D01*
X36424Y102585D01*
G75*
D01*
G02X35870Y103139I0J554*
G01*
X35870Y103139D01*
X35870Y106451D01*
G75*
D01*
G02X36424Y107005I554J0*
G01*
D02*
G37*
G36*
X46990Y99172D02*
G75*
D01*
G02X49530Y99172I1270J-1382*
G01*
G75*
D01*
G02X52070Y99172I1270J-1382*
G01*
G75*
D01*
G02X54610Y99172I1270J-1382*
G01*
G75*
D01*
G02X57150Y99172I1270J-1382*
G01*
G75*
D01*
G02X59690Y99172I1270J-1382*
G01*
G75*
D01*
G02X62230Y99172I1270J-1382*
G01*
G75*
D01*
G02X62230Y96408I1270J-1382*
G01*
G75*
D01*
G02X59690Y96408I-1270J1382*
G01*
G75*
D01*
G02X57150Y96408I-1270J1382*
G01*
G75*
D01*
G02X54610Y96408I-1270J1382*
G01*
G75*
D01*
G02X52070Y96408I-1270J1382*
G01*
G75*
D01*
G02X49530Y96408I-1270J1382*
G01*
G75*
D01*
G02X46990Y96408I-1270J1382*
G01*
G75*
D01*
G02X44450Y96408I-1270J1382*
G01*
G75*
D01*
G02X41910Y96408I-1270J1382*
G01*
G75*
D01*
G02X39370Y96408I-1270J1382*
G01*
G75*
D01*
G02X36830Y96408I-1270J1382*
G01*
G74*
D01*
G02X36226Y96035I1270J1382*
G01*
X36226Y96035D01*
X36226Y97124D01*
X36345Y97124D01*
G75*
D01*
G02X36345Y98456I1755J666*
G01*
X36345Y98456D01*
X36226Y98456D01*
X36226Y99545D01*
G74*
D01*
G02X36830Y99172I666J1755*
G01*
G75*
D01*
G02X39370Y99172I1270J-1382*
G01*
G75*
D01*
G02X41910Y99172I1270J-1382*
G01*
G75*
D01*
G02X44450Y99172I1270J-1382*
G01*
G75*
D01*
G02X46990Y99172I1270J-1382*
G01*
D02*
G37*
G36*
X50616Y47560D02*
G75*
D01*
G02X50407Y46990I-881J0*
G01*
G74*
D01*
G02X50616Y46420I672J570*
G01*
X50616Y46420D01*
X50616Y46219D01*
X49709Y46219D01*
X49709Y47761D01*
X50616Y47761D01*
X50616Y47560D01*
D02*
G37*
G36*
X49735Y44139D02*
X49735Y44139D01*
X49709Y44139D01*
X49709Y45221D01*
X50616Y45221D01*
X50616Y45020D01*
G75*
D01*
G02X49735Y44139I-881J0*
G01*
D02*
G37*
G36*
X10930Y76200D02*
G75*
D01*
G02X10930Y76200I500J0*
G01*
D02*
G37*
G36*
X21090Y76200D02*
G75*
D01*
G02X21090Y76200I500J0*
G01*
D02*
G37*
G36*
X12096Y77955D02*
G74*
D01*
G02X13185Y76866I666J1755*
G01*
X13185Y76866D01*
X12096Y76866D01*
X12096Y77955D01*
D02*
G37*
G36*
X19835Y76866D02*
G74*
D01*
G02X20924Y77955I1755J666*
G01*
X20924Y77955D01*
X20924Y76866D01*
X19835Y76866D01*
D02*
G37*
G36*
X34894Y96035D02*
G74*
D01*
G02X33805Y97124I666J1755*
G01*
X33805Y97124D01*
X34894Y97124D01*
X34894Y96035D01*
D02*
G37*
G36*
X35060Y97790D02*
G75*
D01*
G02X35060Y97790I500J0*
G01*
D02*
G37*
G36*
X33805Y98456D02*
G74*
D01*
G02X34894Y99545I1755J666*
G01*
X34894Y99545D01*
X34894Y98456D01*
X33805Y98456D01*
D02*
G37*
G36*
X50616Y51500D02*
X50616Y51500D01*
X50616Y51299D01*
X49709Y51299D01*
X49709Y52381D01*
X49735Y52381D01*
G74*
D01*
G02X50616Y51500I0J881*
G01*
D02*
G37*
G36*
X50616Y48960D02*
X50616Y48960D01*
X50616Y48759D01*
X49709Y48759D01*
X49709Y50301D01*
X50616Y50301D01*
X50616Y50100D01*
G75*
D01*
G02X50407Y49530I-881J0*
G01*
G74*
D01*
G02X50616Y48960I672J570*
G01*
D02*
G37*
G36*
X13780Y49088D02*
G75*
D01*
G02X12240Y49088I-770J1712*
G01*
X12240Y49088D01*
X13010Y49859D01*
X13780Y49088D01*
D02*
G37*
G36*
X11298Y51570D02*
X11298Y51570D01*
X12069Y50800D01*
X11298Y50030D01*
G75*
D01*
G02X11298Y51570I1712J770*
G01*
D02*
G37*
G36*
X12240Y52512D02*
G75*
D01*
G02X13780Y52512I770J-1712*
G01*
X13780Y52512D01*
X13010Y51741D01*
X12240Y52512D01*
D02*
G37*
G36*
X12560Y50800D02*
G75*
D01*
G02X12560Y50800I450J0*
G01*
D02*
G37*
G36*
X21090Y60960D02*
G75*
D01*
G02X21090Y60960I500J0*
G01*
D02*
G37*
G36*
X62479Y10327D02*
G74*
D01*
G02X62844Y9393I1016J934*
G01*
X62844Y9393D01*
X62844Y8387D01*
G75*
D01*
G02X61463Y7006I-1381J0*
G01*
X61463Y7006D01*
X60457Y7006D01*
G75*
D01*
G02X59076Y8387I0J1381*
G01*
X59076Y8387D01*
X59076Y9393D01*
G74*
D01*
G02X59441Y10327I1381J0*
G01*
G75*
D01*
G02X62479Y10327I1519J1103*
G01*
D02*
G37*
G36*
X9228Y84544D02*
G74*
D01*
G02X7704Y86068I932J2456*
G01*
X7704Y86068D01*
X9228Y86068D01*
X9228Y84544D01*
D02*
G37*
G36*
X12616Y86068D02*
G74*
D01*
G02X11092Y84544I2456J932*
G01*
X11092Y84544D01*
X11092Y86068D01*
X12616Y86068D01*
D02*
G37*
G36*
X7704Y87932D02*
G74*
D01*
G02X9228Y89456I2456J932*
G01*
X9228Y89456D01*
X9228Y87932D01*
X7704Y87932D01*
D02*
G37*
G36*
X9160Y87000D02*
G75*
D01*
G02X9160Y87000I1000J0*
G01*
D02*
G37*
G36*
X11092Y89456D02*
G74*
D01*
G02X12616Y87932I932J2456*
G01*
X12616Y87932D01*
X11092Y87932D01*
X11092Y89456D01*
D02*
G37*
G36*
X2108Y113665D02*
G75*
D01*
G02X2108Y113665I4877J0*
G01*
D02*
G37*
G36*
X12258Y105220D02*
X12258Y105220D01*
X13029Y104450D01*
X12258Y103680D01*
G75*
D01*
G02X12258Y105220I1712J770*
G01*
D02*
G37*
G36*
X14740Y102738D02*
G75*
D01*
G02X13200Y102738I-770J1712*
G01*
X13200Y102738D01*
X13970Y103509D01*
X14740Y102738D01*
D02*
G37*
G36*
X15682Y105220D02*
G75*
D01*
G02X15682Y103680I-1712J-770*
G01*
X15682Y103680D01*
X14911Y104450D01*
X15682Y105220D01*
D02*
G37*
G36*
X14970Y106069D02*
X14970Y106069D01*
X14647Y106069D01*
X13970Y105391D01*
X13293Y106069D01*
X12970Y106069D01*
G75*
D01*
G02X12089Y106950I0J881*
G01*
X12089Y106950D01*
X12089Y108950D01*
G75*
D01*
G02X12970Y109831I881J0*
G01*
X12970Y109831D01*
X14970Y109831D01*
G74*
D01*
G02X15851Y108950I0J881*
G01*
X15851Y108950D01*
X15851Y106950D01*
G75*
D01*
G02X14970Y106069I-881J0*
G01*
D02*
G37*
G36*
X13520Y104450D02*
G75*
D01*
G02X13520Y104450I450J0*
G01*
D02*
G37*
G36*
X24734Y106195D02*
X24734Y106195D01*
X24734Y106076D01*
X23645Y106076D01*
G74*
D01*
G02X24018Y106680I1755J666*
G01*
G75*
D01*
G02X24018Y109220I1382J1270*
G01*
G75*
D01*
G02X24018Y111760I1382J1270*
G01*
G75*
D01*
G02X24018Y114300I1382J1270*
G01*
G75*
D01*
G02X26782Y114300I1382J1270*
G01*
G75*
D01*
G02X26782Y111760I-1382J-1270*
G01*
G75*
D01*
G02X26782Y109220I-1382J-1270*
G01*
G75*
D01*
G02X26782Y106680I-1382J-1270*
G01*
G74*
D01*
G02X27155Y106076I1382J1270*
G01*
X27155Y106076D01*
X26066Y106076D01*
X26066Y106195D01*
G75*
D01*
G02X24734Y106195I-666J1755*
G01*
D02*
G37*
G36*
X24900Y97790D02*
G75*
D01*
G02X24900Y97790I500J0*
G01*
D02*
G37*
G36*
X23645Y98456D02*
G74*
D01*
G02X24018Y99060I1755J666*
G01*
G74*
D01*
G02X23645Y99664I1382J1270*
G01*
X23645Y99664D01*
X24734Y99664D01*
X24734Y98456D01*
X23645Y98456D01*
D02*
G37*
G36*
X24900Y100330D02*
G75*
D01*
G02X24900Y100330I500J0*
G01*
D02*
G37*
G36*
X27155Y99664D02*
G74*
D01*
G02X26782Y99060I1755J666*
G01*
G74*
D01*
G02X27155Y98456I1382J1270*
G01*
X27155Y98456D01*
X26066Y98456D01*
X26066Y99664D01*
X27155Y99664D01*
D02*
G37*
G36*
X23645Y100996D02*
G74*
D01*
G02X24018Y101600I1755J666*
G01*
G74*
D01*
G02X23645Y102204I1382J1270*
G01*
X23645Y102204D01*
X24734Y102204D01*
X24734Y100996D01*
X23645Y100996D01*
D02*
G37*
G36*
X27155Y102204D02*
G74*
D01*
G02X26782Y101600I1755J666*
G01*
G74*
D01*
G02X27155Y100996I1382J1270*
G01*
X27155Y100996D01*
X26066Y100996D01*
X26066Y102204D01*
X27155Y102204D01*
D02*
G37*
G36*
X23645Y103536D02*
G74*
D01*
G02X24018Y104140I1755J666*
G01*
G74*
D01*
G02X23645Y104744I1382J1270*
G01*
X23645Y104744D01*
X24734Y104744D01*
X24734Y103536D01*
X23645Y103536D01*
D02*
G37*
G36*
X24900Y102870D02*
G75*
D01*
G02X24900Y102870I500J0*
G01*
D02*
G37*
G36*
X27155Y104744D02*
G74*
D01*
G02X26782Y104140I1755J666*
G01*
G74*
D01*
G02X27155Y103536I1382J1270*
G01*
X27155Y103536D01*
X26066Y103536D01*
X26066Y104744D01*
X27155Y104744D01*
D02*
G37*
G36*
X24900Y105410D02*
G75*
D01*
G02X24900Y105410I500J0*
G01*
D02*
G37*
G36*
X25216Y84545D02*
X25216Y84545D01*
X25216Y84336D01*
X24276Y84336D01*
X24276Y85426D01*
X24335Y85426D01*
G74*
D01*
G02X25216Y84545I0J881*
G01*
D02*
G37*
%LPD*%
G36*
X70516Y59205D02*
G75*
D01*
G02X69184Y59205I-666J1755*
G01*
X69184Y59205D01*
X69184Y59086D01*
X68095Y59086D01*
G74*
D01*
G02X68468Y59690I1755J666*
G01*
G74*
D01*
G02X68457Y59702I1382J1270*
G01*
X68457Y59702D01*
X61083Y59702D01*
G74*
D01*
G02X61072Y59690I1393J1258*
G01*
G74*
D01*
G02X61445Y59086I1382J1270*
G01*
X61445Y59086D01*
X60356Y59086D01*
X60356Y59205D01*
G75*
D01*
G02X59024Y59205I-666J1755*
G01*
X59024Y59205D01*
X59024Y59086D01*
X57935Y59086D01*
G74*
D01*
G02X58308Y59690I1755J666*
G01*
G75*
D01*
G02X58308Y62230I1382J1270*
G01*
G75*
D01*
G02X58308Y64770I1382J1270*
G01*
G75*
D01*
G02X58308Y67310I1382J1270*
G01*
G75*
D01*
G02X58308Y69850I1382J1270*
G01*
G75*
D01*
G02X58308Y72390I1382J1270*
G01*
G74*
D01*
G02X57935Y72994I1382J1270*
G01*
X57935Y72994D01*
X59024Y72994D01*
X59024Y72875D01*
G75*
D01*
G02X60356Y72875I666J-1755*
G01*
X60356Y72875D01*
X60356Y72994D01*
X61445Y72994D01*
G74*
D01*
G02X61072Y72390I1755J666*
G01*
G74*
D01*
G02X61083Y72378I1382J1270*
G01*
X61083Y72378D01*
X61709Y72378D01*
X66420Y77090D01*
G75*
D01*
G02X67311Y77458I890J-890*
G01*
X67311Y77458D01*
X68457Y77458D01*
G75*
D01*
G02X71132Y77571I1393J-1258*
G01*
X71132Y77571D01*
X71132Y83299D01*
X71119Y83312D01*
X70066Y84365D01*
G75*
D01*
G02X69982Y83050I-1796J-545*
G01*
X69982Y83050D01*
X69211Y83820D01*
X69911Y84520D01*
X69329Y85102D01*
X68611Y85102D01*
X68270Y84761D01*
X67929Y85102D01*
X66605Y85102D01*
G74*
D01*
G02X66651Y84820I835J282*
G01*
X66651Y84820D01*
X66651Y84497D01*
X67329Y83820D01*
X66651Y83143D01*
X66651Y82820D01*
G75*
D01*
G02X66028Y81977I-881J0*
G01*
X66028Y81977D01*
X66028Y78740D01*
G75*
D01*
G02X65659Y77849I-1258J0*
G01*
X65659Y77849D01*
X63121Y75311D01*
G74*
D01*
G02X62650Y75014I891J889*
G01*
G75*
D01*
G02X62229Y74942I-420J1186*
G01*
X62229Y74942D01*
X61083Y74942D01*
G74*
D01*
G02X61072Y74930I1393J1258*
G01*
G74*
D01*
G02X61445Y74326I1382J1270*
G01*
X61445Y74326D01*
X60356Y74326D01*
X60356Y74445D01*
G75*
D01*
G02X59024Y74445I-666J1755*
G01*
X59024Y74445D01*
X59024Y74326D01*
X57935Y74326D01*
G74*
D01*
G02X58308Y74930I1755J666*
G01*
G75*
D01*
G02X61083Y77458I1382J1270*
G01*
X61083Y77458D01*
X61709Y77458D01*
X63512Y79261D01*
X63512Y81977D01*
G75*
D01*
G02X62889Y82820I258J843*
G01*
X62889Y82820D01*
X62889Y84820D01*
G74*
D01*
G02X62935Y85102I881J0*
G01*
X62935Y85102D01*
X36716Y85102D01*
X29833Y78219D01*
X29833Y73522D01*
X30860Y74550D01*
G74*
D01*
G02X31386Y74864I890J890*
G01*
G75*
D01*
G02X31750Y74918I364J-1204*
G01*
X31750Y74918D01*
X32897Y74918D01*
G74*
D01*
G02X32908Y74930I1393J1258*
G01*
G75*
D01*
G02X35672Y74930I1382J1270*
G01*
G75*
D01*
G02X35672Y72390I-1382J-1270*
G01*
G75*
D01*
G02X35672Y69850I-1382J-1270*
G01*
G75*
D01*
G02X35672Y67310I-1382J-1270*
G01*
G75*
D01*
G02X35672Y64770I-1382J-1270*
G01*
G75*
D01*
G02X35672Y62230I-1382J-1270*
G01*
G74*
D01*
G02X35683Y62218I1382J1270*
G01*
X35683Y62218D01*
X36309Y62218D01*
X37882Y63791D01*
X37882Y69618D01*
G75*
D01*
G02X38250Y70510I1258J2*
G01*
X38250Y70510D01*
X42290Y74550D01*
G74*
D01*
G02X42911Y74889I890J890*
G01*
G75*
D01*
G02X43180Y74918I269J-1229*
G01*
X43180Y74918D01*
X45597Y74918D01*
G74*
D01*
G02X45608Y74930I1393J1258*
G01*
G75*
D01*
G02X48389Y77451I1382J1270*
G01*
G74*
D01*
G02X48525Y77430I129J1251*
G01*
G74*
D01*
G02X49151Y77089I265J1230*
G01*
X49151Y77089D01*
X50419Y75821D01*
G74*
D01*
G02X50788Y74930I889J891*
G01*
X50788Y74930D01*
X50788Y57671D01*
X51321Y57138D01*
X58319Y57138D01*
G74*
D01*
G02X57935Y57754I1371J1282*
G01*
X57935Y57754D01*
X59024Y57754D01*
X59024Y57138D01*
X60356Y57138D01*
X60356Y57754D01*
X61445Y57754D01*
G74*
D01*
G02X61061Y57138I1755J666*
G01*
X61061Y57138D01*
X68479Y57138D01*
G74*
D01*
G02X68095Y57754I1371J1282*
G01*
X68095Y57754D01*
X69184Y57754D01*
X69184Y57138D01*
X70516Y57138D01*
X70516Y57754D01*
X71215Y57754D01*
X74942Y61481D01*
X74942Y65127D01*
X72426Y62611D01*
G74*
D01*
G02X71906Y62298I891J889*
G01*
G75*
D01*
G02X71534Y62242I-371J1202*
G01*
X71534Y62242D01*
X71243Y62242D01*
G74*
D01*
G02X71232Y62230I1393J1258*
G01*
G75*
D01*
G02X71232Y59690I-1382J-1270*
G01*
G74*
D01*
G02X71605Y59086I1382J1270*
G01*
X71605Y59086D01*
X70516Y59086D01*
X70516Y59205D01*
D02*
G37*
%LPC*%
G36*
X69350Y58420D02*
G75*
D01*
G02X69350Y58420I500J0*
G01*
D02*
G37*
G36*
X59190Y58420D02*
G75*
D01*
G02X59190Y58420I500J0*
G01*
D02*
G37*
G36*
X67820Y83820D02*
G75*
D01*
G02X67820Y83820I450J0*
G01*
D02*
G37*
G36*
X59190Y73660D02*
G75*
D01*
G02X59190Y73660I500J0*
G01*
D02*
G37*
G36*
X69040Y82108D02*
G75*
D01*
G02X67500Y82108I-770J1712*
G01*
X67500Y82108D01*
X68270Y82879D01*
X69040Y82108D01*
D02*
G37*
%LPD*%
G36*
X68095Y19654D02*
X68095Y19654D01*
X69184Y19654D01*
X69184Y19038D01*
X70516Y19038D01*
X70516Y19654D01*
X71132Y19654D01*
X71132Y20986D01*
X70516Y20986D01*
X70516Y21105D01*
G75*
D01*
G02X69184Y21105I-666J1755*
G01*
X69184Y21105D01*
X69184Y20986D01*
X68095Y20986D01*
G74*
D01*
G02X68468Y21590I1755J666*
G01*
G74*
D01*
G02X68457Y21602I1382J1270*
G01*
X68457Y21602D01*
X61083Y21602D01*
G74*
D01*
G02X61072Y21590I1393J1258*
G01*
G74*
D01*
G02X61445Y20986I1382J1270*
G01*
X61445Y20986D01*
X60356Y20986D01*
X60356Y21105D01*
G75*
D01*
G02X59024Y21105I-666J1755*
G01*
X59024Y21105D01*
X59024Y20986D01*
X57935Y20986D01*
G74*
D01*
G02X58308Y21590I1755J666*
G01*
G75*
D01*
G02X58308Y24130I1382J1270*
G01*
G75*
D01*
G02X58308Y26670I1382J1270*
G01*
G75*
D01*
G02X58308Y29210I1382J1270*
G01*
G75*
D01*
G02X58308Y31750I1382J1270*
G01*
G75*
D01*
G02X58308Y34290I1382J1270*
G01*
G74*
D01*
G02X57935Y34894I1382J1270*
G01*
X57935Y34894D01*
X59024Y34894D01*
X59024Y34775D01*
G75*
D01*
G02X60356Y34775I666J-1755*
G01*
X60356Y34775D01*
X60356Y34894D01*
X61445Y34894D01*
G74*
D01*
G02X61072Y34290I1755J666*
G01*
G74*
D01*
G02X61083Y34278I1382J1270*
G01*
X61083Y34278D01*
X61709Y34278D01*
X66420Y38990D01*
G75*
D01*
G02X67311Y39358I890J-890*
G01*
X67311Y39358D01*
X68457Y39358D01*
G75*
D01*
G02X71232Y36830I1393J-1258*
G01*
G75*
D01*
G02X71232Y34290I-1382J-1270*
G01*
G75*
D01*
G02X71232Y31750I-1382J-1270*
G01*
G75*
D01*
G02X71232Y29210I-1382J-1270*
G01*
G74*
D01*
G02X71249Y29191I1382J1270*
G01*
G74*
D01*
G02X72011Y28829I129J1251*
G01*
X72011Y28829D01*
X73037Y27802D01*
X73037Y47104D01*
X73022Y47119D01*
X73022Y47119D01*
X71869Y48272D01*
X60846Y48272D01*
X59693Y47119D01*
X53596Y41021D01*
G74*
D01*
G02X52705Y40652I891J889*
G01*
X52705Y40652D01*
X45606Y40652D01*
X39626Y34671D01*
G74*
D01*
G02X38735Y34302I891J889*
G01*
X38735Y34302D01*
X35683Y34302D01*
G74*
D01*
G02X35672Y34290I1393J1258*
G01*
G75*
D01*
G02X35672Y31750I-1382J-1270*
G01*
G75*
D01*
G02X35672Y29210I-1382J-1270*
G01*
G75*
D01*
G02X35672Y26670I-1382J-1270*
G01*
G75*
D01*
G02X35672Y24130I-1382J-1270*
G01*
G74*
D01*
G02X35683Y24118I1382J1270*
G01*
X35683Y24118D01*
X36309Y24118D01*
X38112Y25921D01*
X38112Y31748D01*
G75*
D01*
G02X38480Y32640I1258J2*
G01*
X38480Y32640D01*
X42290Y36450D01*
G74*
D01*
G02X42742Y36739I890J890*
G01*
G75*
D01*
G02X43180Y36818I438J-1179*
G01*
X43180Y36818D01*
X45597Y36818D01*
G74*
D01*
G02X45608Y36830I1393J1258*
G01*
G75*
D01*
G02X48372Y36830I1382J1270*
G01*
G75*
D01*
G02X48372Y34290I-1382J-1270*
G01*
G75*
D01*
G02X48372Y31750I-1382J-1270*
G01*
G75*
D01*
G02X48372Y29210I-1382J-1270*
G01*
G75*
D01*
G02X48372Y26670I-1382J-1270*
G01*
G75*
D01*
G02X48372Y24130I-1382J-1270*
G01*
G74*
D01*
G02X48389Y24111I1382J1270*
G01*
G74*
D01*
G02X49151Y23749I129J1251*
G01*
X49151Y23749D01*
X49780Y23119D01*
X50419Y22481D01*
G74*
D01*
G02X50788Y21590I889J891*
G01*
X50788Y21590D01*
X50788Y18061D01*
X51397Y18670D01*
G75*
D01*
G02X52287Y19038I889J-890*
G01*
X52287Y19038D01*
X58319Y19038D01*
G74*
D01*
G02X57935Y19654I1371J1282*
G01*
X57935Y19654D01*
X59024Y19654D01*
X59024Y19038D01*
X60356Y19038D01*
X60356Y19654D01*
X61445Y19654D01*
G74*
D01*
G02X61061Y19038I1755J666*
G01*
X61061Y19038D01*
X68479Y19038D01*
G74*
D01*
G02X68095Y19654I1371J1282*
G01*
D02*
G37*
%LPC*%
G36*
X67500Y47432D02*
G75*
D01*
G02X69040Y47432I770J-1712*
G01*
X69040Y47432D01*
X68727Y47119D01*
X68727Y47119D01*
X68270Y46661D01*
X67813Y47119D01*
X67500Y47432D01*
D02*
G37*
G36*
X66651Y46720D02*
X66651Y46720D01*
X66651Y46397D01*
X67329Y45720D01*
X66651Y45043D01*
X66651Y44720D01*
G75*
D01*
G02X66028Y43877I-881J0*
G01*
X66028Y43877D01*
X66028Y40640D01*
G75*
D01*
G02X65659Y39749I-1258J0*
G01*
X65659Y39749D01*
X63121Y37211D01*
G74*
D01*
G02X62650Y36914I891J889*
G01*
G75*
D01*
G02X62229Y36842I-420J1186*
G01*
X62229Y36842D01*
X61083Y36842D01*
G74*
D01*
G02X61072Y36830I1393J1258*
G01*
G74*
D01*
G02X61445Y36226I1382J1270*
G01*
X61445Y36226D01*
X60356Y36226D01*
X60356Y36345D01*
G75*
D01*
G02X59024Y36345I-666J1755*
G01*
X59024Y36345D01*
X59024Y36226D01*
X57935Y36226D01*
G74*
D01*
G02X58308Y36830I1755J666*
G01*
G75*
D01*
G02X61083Y39358I1382J1270*
G01*
X61083Y39358D01*
X61709Y39358D01*
X63512Y41161D01*
X63512Y43877D01*
G75*
D01*
G02X62889Y44720I258J843*
G01*
X62889Y44720D01*
X62889Y46720D01*
G75*
D01*
G02X63770Y47601I881J0*
G01*
X63770Y47601D01*
X65770Y47601D01*
G74*
D01*
G02X66651Y46720I0J881*
G01*
D02*
G37*
G36*
X59190Y20320D02*
G75*
D01*
G02X59190Y20320I500J0*
G01*
D02*
G37*
G36*
X69350Y20320D02*
G75*
D01*
G02X69350Y20320I500J0*
G01*
D02*
G37*
G36*
X69982Y46490D02*
G75*
D01*
G02X69982Y44950I-1712J-770*
G01*
X69982Y44950D01*
X69211Y45720D01*
X69982Y46490D01*
D02*
G37*
G36*
X67820Y45720D02*
G75*
D01*
G02X67820Y45720I450J0*
G01*
D02*
G37*
G36*
X69040Y44008D02*
G75*
D01*
G02X67500Y44008I-770J1712*
G01*
X67500Y44008D01*
X68270Y44779D01*
X69040Y44008D01*
D02*
G37*
G36*
X59190Y35560D02*
G75*
D01*
G02X59190Y35560I500J0*
G01*
D02*
G37*
%LPD*%
G36*
X23345Y38766D02*
X23345Y38766D01*
X22256Y38766D01*
X22256Y39382D01*
X20924Y39382D01*
X20924Y38766D01*
X19835Y38766D01*
G74*
D01*
G02X20219Y39382I1755J666*
G01*
X20219Y39382D01*
X12801Y39382D01*
G74*
D01*
G02X13185Y38766I1371J1282*
G01*
X13185Y38766D01*
X12096Y38766D01*
X12096Y39382D01*
X11316Y39382D01*
X10764Y38830D01*
X10764Y38766D01*
X10700Y38766D01*
X10148Y38214D01*
X10148Y37434D01*
X10764Y37434D01*
X10764Y37315D01*
G75*
D01*
G02X12096Y37315I666J-1755*
G01*
X12096Y37315D01*
X12096Y37434D01*
X13185Y37434D01*
G74*
D01*
G02X12812Y36830I1755J666*
G01*
G74*
D01*
G02X12823Y36818I1382J1270*
G01*
X12823Y36818D01*
X20197Y36818D01*
G74*
D01*
G02X20208Y36830I1393J1258*
G01*
G74*
D01*
G02X19835Y37434I1382J1270*
G01*
X19835Y37434D01*
X20924Y37434D01*
X20924Y37315D01*
G75*
D01*
G02X22256Y37315I666J-1755*
G01*
X22256Y37315D01*
X22256Y37434D01*
X23345Y37434D01*
G74*
D01*
G02X22972Y36830I1755J666*
G01*
G75*
D01*
G02X22972Y34290I-1382J-1270*
G01*
G75*
D01*
G02X22972Y31750I-1382J-1270*
G01*
G75*
D01*
G02X22972Y29210I-1382J-1270*
G01*
G75*
D01*
G02X22972Y26670I-1382J-1270*
G01*
G75*
D01*
G02X22972Y24130I-1382J-1270*
G01*
G74*
D01*
G02X23345Y23526I1382J1270*
G01*
X23345Y23526D01*
X22256Y23526D01*
X22256Y23645D01*
G75*
D01*
G02X20924Y23645I-666J1755*
G01*
X20924Y23645D01*
X20924Y23526D01*
X19835Y23526D01*
G74*
D01*
G02X20208Y24130I1755J666*
G01*
G74*
D01*
G02X20197Y24142I1382J1270*
G01*
X20197Y24142D01*
X19571Y24142D01*
X14861Y19431D01*
G74*
D01*
G02X13970Y19062I891J889*
G01*
X13970Y19062D01*
X12823Y19062D01*
G75*
D01*
G02X10148Y18949I-1393J1258*
G01*
X10148Y18949D01*
X10148Y10681D01*
X13221Y7608D01*
X27839Y7608D01*
G75*
D01*
G02X27828Y10160I1371J1282*
G01*
G74*
D01*
G02X27455Y10764I1382J1270*
G01*
X27455Y10764D01*
X28544Y10764D01*
X28544Y10645D01*
G75*
D01*
G02X29876Y10645I666J-1755*
G01*
X29876Y10645D01*
X29876Y10764D01*
X29995Y10764D01*
G75*
D01*
G02X29995Y12096I1755J666*
G01*
X29995Y12096D01*
X29876Y12096D01*
X29876Y12379D01*
X29544Y12379D01*
G75*
D01*
G02X28653Y12747I-1J1258*
G01*
X28653Y12747D01*
X28544Y12856D01*
X28544Y12096D01*
X27455Y12096D01*
G74*
D01*
G02X28319Y13082I1755J666*
G01*
X28319Y13082D01*
X25550Y15850D01*
G75*
D01*
G02X25182Y16741I890J890*
G01*
X25182Y16741D01*
X25182Y40548D01*
X24386Y39751D01*
G74*
D01*
G02X23495Y39382I891J889*
G01*
X23495Y39382D01*
X22961Y39382D01*
G74*
D01*
G02X23345Y38766I1371J1282*
G01*
D02*
G37*
%LPC*%
G36*
X21162Y23119D02*
G75*
D01*
G02X21162Y23119I428J-259*
G01*
D02*
G37*
G36*
X22972Y21590D02*
G75*
D01*
G02X20197Y19062I-1382J-1270*
G01*
X20197Y19062D01*
X19571Y19062D01*
X17768Y17259D01*
X17768Y14543D01*
G74*
D01*
G02X18391Y13700I258J843*
G01*
X18391Y13700D01*
X18391Y11700D01*
G75*
D01*
G02X17510Y10819I-881J0*
G01*
X17510Y10819D01*
X15510Y10819D01*
G75*
D01*
G02X14629Y11700I0J881*
G01*
X14629Y11700D01*
X14629Y12023D01*
X13951Y12700D01*
X14629Y13377D01*
X14629Y13700D01*
G74*
D01*
G02X15252Y14543I881J0*
G01*
X15252Y14543D01*
X15252Y17779D01*
G75*
D01*
G02X15620Y18670I1258J1*
G01*
X15620Y18670D01*
X18160Y21210D01*
G75*
D01*
G02X19051Y21578I890J-890*
G01*
X19051Y21578D01*
X20197Y21578D01*
G74*
D01*
G02X20208Y21590I1393J1258*
G01*
G74*
D01*
G02X19835Y22194I1382J1270*
G01*
X19835Y22194D01*
X20924Y22194D01*
X20924Y22075D01*
G75*
D01*
G02X22256Y22075I666J-1755*
G01*
X22256Y22075D01*
X22256Y22194D01*
X23345Y22194D01*
G74*
D01*
G02X22972Y21590I1755J666*
G01*
D02*
G37*
G36*
X10930Y38100D02*
G75*
D01*
G02X10930Y38100I500J0*
G01*
D02*
G37*
G36*
X21090Y38100D02*
G75*
D01*
G02X21090Y38100I500J0*
G01*
D02*
G37*
G36*
X28710Y11430D02*
G75*
D01*
G02X28710Y11430I500J0*
G01*
D02*
G37*
G36*
X11298Y13470D02*
X11298Y13470D01*
X12069Y12700D01*
X11298Y11930D01*
G75*
D01*
G02X11298Y13470I1712J770*
G01*
D02*
G37*
G36*
X13780Y10988D02*
G75*
D01*
G02X12240Y10988I-770J1712*
G01*
X12240Y10988D01*
X13010Y11759D01*
X13780Y10988D01*
D02*
G37*
G36*
X12240Y14412D02*
G75*
D01*
G02X13780Y14412I770J-1712*
G01*
X13780Y14412D01*
X13010Y13641D01*
X12240Y14412D01*
D02*
G37*
G36*
X12560Y12700D02*
G75*
D01*
G02X12560Y12700I450J0*
G01*
D02*
G37*
%LPD*%
G36*
X45608Y24130D02*
G75*
D01*
G03X45608Y21590I1382J-1270*
G01*
G75*
D01*
G03X45789Y18878I1382J-1270*
G01*
G74*
D01*
G03X45371Y17940I1201J1098*
G01*
X45371Y17940D01*
X43560Y16130D01*
G75*
D01*
G03X43192Y15239I890J-890*
G01*
X43192Y15239D01*
X43192Y12823D01*
G74*
D01*
G03X43180Y12812I1258J1393*
G01*
G74*
D01*
G03X43168Y12823I1270J1382*
G01*
X43168Y12823D01*
X43168Y13335D01*
G74*
D01*
G03X42799Y14226I1258J0*
G01*
X42799Y14226D01*
X39499Y17526D01*
G74*
D01*
G03X38608Y17895I891J889*
G01*
X38608Y17895D01*
X37454Y17895D01*
X42678Y23119D01*
X42799Y23239D01*
G75*
D01*
G03X43168Y24130I-889J891*
G01*
X43168Y24130D01*
X43168Y29959D01*
X44971Y31762D01*
X45597Y31762D01*
G74*
D01*
G03X45608Y31750I1393J1258*
G01*
G75*
D01*
G03X45608Y29210I1382J-1270*
G01*
G75*
D01*
G03X45608Y26670I1382J-1270*
G01*
G75*
D01*
G03X45608Y24130I1382J-1270*
G01*
D02*
G37*
G36*
X40652Y30478D02*
X40652Y30478D01*
X40652Y24651D01*
X39120Y23119D01*
X36160Y20159D01*
G75*
D01*
G03X35672Y21590I-1870J161*
G01*
G74*
D01*
G03X35683Y21602I1382J1270*
G01*
X35683Y21602D01*
X36829Y21602D01*
G75*
D01*
G03X37250Y21674I1J1258*
G01*
G74*
D01*
G03X37721Y21971I420J1186*
G01*
X37721Y21971D01*
X40259Y24509D01*
G75*
D01*
G03X40628Y25400I-889J891*
G01*
X40628Y25400D01*
X40628Y31229D01*
X43701Y34302D01*
X45597Y34302D01*
G74*
D01*
G03X45608Y34290I1393J1258*
G01*
G74*
D01*
G03X45597Y34278I1382J1270*
G01*
X45597Y34278D01*
X44450Y34278D01*
G75*
D01*
G03X44279Y34266I0J-1258*
G01*
G74*
D01*
G03X43560Y33910I171J1246*
G01*
X43560Y33910D01*
X41020Y31370D01*
G75*
D01*
G03X40652Y30478I890J-890*
G01*
D02*
G37*
G36*
X45597Y72402D02*
X45597Y72402D01*
X43701Y72402D01*
X40398Y69099D01*
X40398Y63270D01*
G75*
D01*
G02X40029Y62379I-1258J0*
G01*
X40029Y62379D01*
X37721Y60071D01*
G74*
D01*
G02X37067Y59724I891J889*
G01*
G75*
D01*
G02X36829Y59702I-237J1236*
G01*
X36829Y59702D01*
X35683Y59702D01*
G74*
D01*
G02X35672Y59690I1393J1258*
G01*
G75*
D01*
G02X36160Y58259I-1382J-1270*
G01*
X36160Y58259D01*
X40652Y62751D01*
X40652Y68578D01*
G75*
D01*
G02X41020Y69470I1258J2*
G01*
X41020Y69470D01*
X42670Y71119D01*
X43560Y72010D01*
G74*
D01*
G02X44279Y72366I890J890*
G01*
G75*
D01*
G02X44450Y72378I171J-1246*
G01*
X44450Y72378D01*
X45597Y72378D01*
G74*
D01*
G02X45608Y72390I1393J1258*
G01*
G74*
D01*
G02X45597Y72402I1382J1270*
G01*
D02*
G37*
G36*
X54355Y15495D02*
X54355Y15495D01*
X55383Y16522D01*
X52807Y16522D01*
X50788Y14503D01*
X50788Y12823D01*
G74*
D01*
G02X50800Y12812I1258J1393*
G01*
G74*
D01*
G02X51404Y13185I1270J1382*
G01*
X51404Y13185D01*
X51404Y12096D01*
X51285Y12096D01*
G75*
D01*
G02X51285Y10764I-1755J-666*
G01*
X51285Y10764D01*
X51404Y10764D01*
X51404Y10645D01*
G75*
D01*
G02X52736Y10645I666J-1755*
G01*
X52736Y10645D01*
X52736Y10764D01*
X53825Y10764D01*
G74*
D01*
G02X53452Y10160I1755J666*
G01*
G75*
D01*
G02X53441Y7608I-1382J-1270*
G01*
X53441Y7608D01*
X53454Y7608D01*
X53987Y8141D01*
X53987Y14603D01*
G75*
D01*
G02X54355Y15495I1258J2*
G01*
D02*
G37*
%LPC*%
G36*
X51570Y11430D02*
G75*
D01*
G02X51570Y11430I500J0*
G01*
D02*
G37*
G36*
X52736Y13185D02*
G74*
D01*
G02X53825Y12096I666J1755*
G01*
X53825Y12096D01*
X52736Y12096D01*
X52736Y13185D01*
D02*
G37*
%LPD*%
G36*
X20208Y34290D02*
G74*
D01*
G03X20197Y34278I1382J1270*
G01*
X20197Y34278D01*
X19051Y34278D01*
G75*
D01*
G03X18160Y33910I-1J-1258*
G01*
X18160Y33910D01*
X13449Y29198D01*
X12823Y29198D01*
G74*
D01*
G03X12812Y29210I1393J1258*
G01*
G75*
D01*
G03X12812Y31750I-1382J1270*
G01*
G75*
D01*
G03X12812Y34290I-1382J1270*
G01*
G74*
D01*
G03X12823Y34302I1382J1270*
G01*
X12823Y34302D01*
X20197Y34302D01*
G74*
D01*
G03X20208Y34290I1393J1258*
G01*
D02*
G37*
G36*
X63121Y62611D02*
X63121Y62611D01*
X67831Y67322D01*
X68457Y67322D01*
G74*
D01*
G03X68468Y67310I1393J1258*
G01*
G75*
D01*
G03X68468Y64770I1382J-1270*
G01*
G75*
D01*
G03X68468Y62230I1382J-1270*
G01*
G74*
D01*
G03X68457Y62218I1382J1270*
G01*
X68457Y62218D01*
X61083Y62218D01*
G74*
D01*
G03X61072Y62230I1393J1258*
G01*
G74*
D01*
G03X61083Y62242I1382J1270*
G01*
X61083Y62242D01*
X62230Y62242D01*
G74*
D01*
G03X63121Y62611I0J1258*
G01*
D02*
G37*
G36*
X61072Y24130D02*
G74*
D01*
G02X61083Y24118I1382J1270*
G01*
X61083Y24118D01*
X68457Y24118D01*
G74*
D01*
G02X68468Y24130I1393J1258*
G01*
G75*
D01*
G02X68468Y26670I1382J1270*
G01*
G75*
D01*
G02X68468Y29210I1382J1270*
G01*
G74*
D01*
G02X68457Y29222I1382J1270*
G01*
X68457Y29222D01*
X67831Y29222D01*
X63121Y24511D01*
G74*
D01*
G02X62230Y24142I891J889*
G01*
X62230Y24142D01*
X61083Y24142D01*
G74*
D01*
G02X61072Y24130I1393J1258*
G01*
D02*
G37*
G36*
X12823Y67298D02*
X12823Y67298D01*
X13449Y67298D01*
X18160Y72010D01*
G75*
D01*
G02X19051Y72378I890J-890*
G01*
X19051Y72378D01*
X20197Y72378D01*
G74*
D01*
G02X20208Y72390I1393J1258*
G01*
G74*
D01*
G02X20197Y72402I1382J1270*
G01*
X20197Y72402D01*
X12823Y72402D01*
G74*
D01*
G02X12812Y72390I1393J1258*
G01*
G75*
D01*
G02X12812Y69850I-1382J-1270*
G01*
G75*
D01*
G02X12812Y67310I-1382J-1270*
G01*
G74*
D01*
G02X12823Y67298I1382J1270*
G01*
D02*
G37*
G36*
X38112Y7497D02*
G74*
D01*
G02X38100Y7508I1258J1393*
G01*
G75*
D01*
G02X35560Y7508I-1270J1382*
G01*
G74*
D01*
G02X35548Y7497I1270J1382*
G01*
X35548Y7497D01*
X35548Y6985D01*
G75*
D01*
G02X35179Y6094I-1258J0*
G01*
X35179Y6094D01*
X33692Y4608D01*
X36484Y4608D01*
X38112Y6236D01*
X38112Y7497D01*
D02*
G37*
G36*
X32130Y64390D02*
X32130Y64390D01*
X31738Y63997D01*
X31738Y71869D01*
X32271Y72402D01*
X32897Y72402D01*
G74*
D01*
G03X32908Y72390I1393J1258*
G01*
G75*
D01*
G03X32908Y69850I1382J-1270*
G01*
G75*
D01*
G03X32908Y67310I1382J-1270*
G01*
G75*
D01*
G03X32908Y64770I1382J-1270*
G01*
G74*
D01*
G03X32891Y64751I1382J1270*
G01*
G74*
D01*
G03X32130Y64390I129J1251*
G01*
D02*
G37*
G36*
X10048Y69850D02*
G74*
D01*
G02X10037Y69862I1382J1270*
G01*
X10037Y69862D01*
X9411Y69862D01*
X6973Y67424D01*
X6973Y67172D01*
X9270Y69470D01*
G74*
D01*
G02X9737Y69765I890J890*
G01*
G74*
D01*
G02X10031Y69831I423J1185*
G01*
G74*
D01*
G02X10048Y69850I1399J1251*
G01*
D02*
G37*
G36*
X35560Y12812D02*
G75*
D01*
G02X38100Y12812I1270J-1382*
G01*
X38107Y12819D01*
X38107Y12819D01*
X37047Y13879D01*
X34890Y13879D01*
X35179Y13591D01*
G74*
D01*
G02X35541Y12829I889J891*
G01*
G74*
D01*
G02X35560Y12812I1251J1399*
G01*
D02*
G37*
G36*
X45732Y14603D02*
G75*
D01*
G02X45740Y14751I1258J2*
G01*
X45740Y14751D01*
X45708Y14719D01*
X45708Y12823D01*
G74*
D01*
G02X45720Y12812I1258J1393*
G01*
G74*
D01*
G02X45732Y12823I1270J1382*
G01*
X45732Y12823D01*
X45732Y14603D01*
D02*
G37*
G36*
X48272Y12823D02*
X48272Y12823D01*
X48272Y14108D01*
X48248Y14084D01*
X48248Y12823D01*
G74*
D01*
G02X48260Y12812I1258J1393*
G01*
G74*
D01*
G02X48272Y12823I1270J1382*
G01*
D02*
G37*
G36*
X68457Y31762D02*
X68457Y31762D01*
X67831Y31762D01*
X67807Y31738D01*
X68457Y31738D01*
G74*
D01*
G02X68468Y31750I1393J1258*
G01*
G74*
D01*
G02X68457Y31762I1382J1270*
G01*
D02*
G37*
G36*
X68457Y34278D02*
G74*
D01*
G02X68468Y34290I1393J1258*
G01*
G74*
D01*
G02X68457Y34302I1382J1270*
G01*
X68457Y34302D01*
X67831Y34302D01*
X67807Y34278D01*
X68457Y34278D01*
D02*
G37*
G36*
X68468Y36830D02*
G74*
D01*
G02X68457Y36842I1382J1270*
G01*
X68457Y36842D01*
X67831Y36842D01*
X67807Y36818D01*
X68457Y36818D01*
G74*
D01*
G02X68468Y36830I1393J1258*
G01*
D02*
G37*
G36*
X68457Y69838D02*
X68457Y69838D01*
X67807Y69838D01*
X67831Y69862D01*
X68457Y69862D01*
G74*
D01*
G03X68468Y69850I1393J1258*
G01*
G74*
D01*
G03X68457Y69838I1382J1270*
G01*
D02*
G37*
G36*
X68457Y72402D02*
G74*
D01*
G03X68468Y72390I1393J1258*
G01*
G74*
D01*
G03X68457Y72378I1382J1270*
G01*
X68457Y72378D01*
X67807Y72378D01*
X67831Y72402D01*
X68457Y72402D01*
D02*
G37*
G36*
X68457Y74942D02*
G74*
D01*
G03X68468Y74930I1393J1258*
G01*
G74*
D01*
G03X68457Y74918I1382J1270*
G01*
X68457Y74918D01*
X67807Y74918D01*
X67831Y74942D01*
X68457Y74942D01*
D02*
G37*
G36*
X20208Y31750D02*
G74*
D01*
G03X20197Y31738I1382J1270*
G01*
X20197Y31738D01*
X19547Y31738D01*
X19571Y31762D01*
X20197Y31762D01*
G74*
D01*
G03X20208Y31750I1393J1258*
G01*
D02*
G37*
G36*
X20197Y64758D02*
G74*
D01*
G02X20208Y64770I1393J1258*
G01*
G74*
D01*
G02X20197Y64782I1382J1270*
G01*
X20197Y64782D01*
X19571Y64782D01*
X19547Y64758D01*
X20197Y64758D01*
D02*
G37*
G36*
X20197Y67298D02*
G74*
D01*
G02X20208Y67310I1393J1258*
G01*
G74*
D01*
G02X20197Y67322I1382J1270*
G01*
X20197Y67322D01*
X19571Y67322D01*
X19547Y67298D01*
X20197Y67298D01*
D02*
G37*
G36*
X20197Y29222D02*
G74*
D01*
G03X20208Y29210I1393J1258*
G01*
G74*
D01*
G03X20197Y29198I1382J1270*
G01*
X20197Y29198D01*
X19547Y29198D01*
X19571Y29222D01*
X20197Y29222D01*
D02*
G37*
G36*
X20208Y26670D02*
G74*
D01*
G03X20197Y26658I1382J1270*
G01*
X20197Y26658D01*
X19547Y26658D01*
X19571Y26682D01*
X20197Y26682D01*
G74*
D01*
G03X20208Y26670I1393J1258*
G01*
D02*
G37*
G36*
X20197Y69838D02*
G74*
D01*
G02X20208Y69850I1393J1258*
G01*
G74*
D01*
G02X20197Y69862I1382J1270*
G01*
X20197Y69862D01*
X19571Y69862D01*
X19547Y69838D01*
X20197Y69838D01*
D02*
G37*
G36*
X12823Y21602D02*
G74*
D01*
G02X12812Y21590I1393J1258*
G01*
G74*
D01*
G02X12823Y21578I1382J1270*
G01*
X12823Y21578D01*
X13449Y21578D01*
X13473Y21602D01*
X12823Y21602D01*
D02*
G37*
G36*
X12823Y24118D02*
G74*
D01*
G03X12812Y24130I1393J1258*
G01*
G74*
D01*
G03X12823Y24142I1382J1270*
G01*
X12823Y24142D01*
X13473Y24142D01*
X13449Y24118D01*
X12823Y24118D01*
D02*
G37*
G36*
X12812Y59690D02*
G74*
D01*
G02X12823Y59678I1382J1270*
G01*
X12823Y59678D01*
X13449Y59678D01*
X13473Y59702D01*
X12823Y59702D01*
G74*
D01*
G02X12812Y59690I1393J1258*
G01*
D02*
G37*
G36*
X12823Y64782D02*
G74*
D01*
G02X12812Y64770I1393J1258*
G01*
G74*
D01*
G02X12823Y64758I1382J1270*
G01*
X12823Y64758D01*
X13449Y64758D01*
X13473Y64782D01*
X12823Y64782D01*
D02*
G37*
G36*
X12823Y26658D02*
G74*
D01*
G03X12812Y26670I1393J1258*
G01*
G74*
D01*
G03X12823Y26682I1382J1270*
G01*
X12823Y26682D01*
X13473Y26682D01*
X13449Y26658D01*
X12823Y26658D01*
D02*
G37*
G36*
X12823Y62218D02*
X12823Y62218D01*
X13449Y62218D01*
X13473Y62242D01*
X12823Y62242D01*
G74*
D01*
G02X12812Y62230I1393J1258*
G01*
G74*
D01*
G02X12823Y62218I1382J1270*
G01*
D02*
G37*
G36*
X61083Y29222D02*
G74*
D01*
G02X61072Y29210I1393J1258*
G01*
G74*
D01*
G02X61083Y29198I1382J1270*
G01*
X61083Y29198D01*
X61709Y29198D01*
X61733Y29222D01*
X61083Y29222D01*
D02*
G37*
G36*
X61083Y64758D02*
G74*
D01*
G03X61072Y64770I1393J1258*
G01*
G74*
D01*
G03X61083Y64782I1382J1270*
G01*
X61083Y64782D01*
X61733Y64782D01*
X61709Y64758D01*
X61083Y64758D01*
D02*
G37*
G36*
X61072Y26670D02*
G74*
D01*
G02X61083Y26658I1382J1270*
G01*
X61083Y26658D01*
X61709Y26658D01*
X61733Y26682D01*
X61083Y26682D01*
G74*
D01*
G02X61072Y26670I1393J1258*
G01*
D02*
G37*
G36*
X61072Y69850D02*
G74*
D01*
G03X61083Y69862I1382J1270*
G01*
X61083Y69862D01*
X61733Y69862D01*
X61709Y69838D01*
X61083Y69838D01*
G74*
D01*
G03X61072Y69850I1393J1258*
G01*
D02*
G37*
G36*
X61083Y31738D02*
X61083Y31738D01*
X61709Y31738D01*
X61733Y31762D01*
X61083Y31762D01*
G74*
D01*
G02X61072Y31750I1393J1258*
G01*
G74*
D01*
G02X61083Y31738I1382J1270*
G01*
D02*
G37*
G36*
X61083Y67322D02*
X61083Y67322D01*
X61733Y67322D01*
X61709Y67298D01*
X61083Y67298D01*
G74*
D01*
G03X61072Y67310I1393J1258*
G01*
G74*
D01*
G03X61083Y67322I1382J1270*
G01*
D02*
G37*
G36*
X48272Y18949D02*
G74*
D01*
G02X48191Y18878I1282J1371*
G01*
G74*
D01*
G02X48272Y18782I1201J1098*
G01*
X48272Y18782D01*
X48272Y18949D01*
D02*
G37*
G36*
X46113Y49530D02*
G74*
D01*
G02X46103Y49542I672J570*
G01*
X46103Y49542D01*
X45843Y49542D01*
G74*
D01*
G02X45832Y49530I1393J1258*
G01*
G74*
D01*
G02X45843Y49518I1382J1270*
G01*
X45843Y49518D01*
X46103Y49518D01*
G74*
D01*
G02X46113Y49530I682J558*
G01*
D02*
G37*
G36*
X33000Y7474D02*
X33000Y7474D01*
X33027Y7501D01*
X33020Y7508D01*
G74*
D01*
G02X33001Y7491I1270J1382*
G01*
G74*
D01*
G02X33000Y7474I1251J129*
G01*
D02*
G37*
G36*
X40647Y12819D02*
X40647Y12819D01*
X40628Y12838D01*
X40628Y12823D01*
G74*
D01*
G02X40640Y12812I1258J1393*
G01*
X40647Y12819D01*
D02*
G37*
G54D11*
X4457Y67943D02*
G75*
D01*
G02X4825Y68835I1258J2*
G01*
X7110Y71119D01*
X7110Y71119D01*
X8000Y72010D01*
G74*
D01*
G02X8864Y72378I890J890*
G01*
G75*
D01*
G02X8890Y72378I26J-1258*
G01*
X10037Y72378D01*
G74*
D01*
G02X10048Y72390I1393J1258*
G01*
G74*
D01*
G02X10031Y72409I1382J1270*
G01*
G74*
D01*
G02X9270Y72770I129J1251*
G01*
X8000Y74040D01*
G75*
D01*
G02X7632Y74931I890J890*
G01*
X7632Y78738D01*
G75*
D01*
G02X8000Y79630I1258J2*
G01*
X9270Y80900D01*
G74*
D01*
G02X9796Y81214I890J890*
G01*
G75*
D01*
G02X10160Y81268I364J-1204*
G01*
X19799Y81268D01*
X20702Y82171D01*
X20702Y82538D01*
G75*
D01*
G02X20504Y83095I683J557*
G01*
X20504Y84545D01*
G74*
D01*
G02X20702Y85102I881J0*
G01*
X20702Y91173D01*
G75*
D01*
G02X21070Y92065I1258J2*
G01*
X22605Y93600D01*
G74*
D01*
G02X23037Y93882I890J890*
G01*
G75*
D01*
G02X23495Y93968I458J-1172*
G01*
X24007Y93968D01*
G74*
D01*
G02X24018Y93980I1393J1258*
G01*
G75*
D01*
G02X24018Y96520I1382J1270*
G01*
G74*
D01*
G02X23645Y97124I1382J1270*
G01*
X24734Y97124D01*
X24734Y97005D01*
G75*
D01*
G02X26066Y97005I666J-1755*
G01*
X26066Y97124D01*
X27155Y97124D01*
G74*
D01*
G02X26782Y96520I1755J666*
G01*
G75*
D01*
G02X26782Y93980I-1382J-1270*
G01*
G74*
D01*
G02X26793Y93968I1382J1270*
G01*
X27419Y93968D01*
X27952Y94501D01*
X27952Y108584D01*
G75*
D01*
G02X28320Y109475I1258J1*
G01*
X29590Y110745D01*
G75*
D01*
G02X30481Y111113I890J-890*
G01*
X59169Y111113D01*
X59697Y111641D01*
X59690Y111648D01*
G75*
D01*
G02X57150Y111648I-1270J1382*
G01*
G75*
D01*
G02X54610Y111648I-1270J1382*
G01*
G75*
D01*
G02X52070Y111648I-1270J1382*
G01*
G75*
D01*
G02X49530Y111648I-1270J1382*
G01*
G75*
D01*
G02X46990Y111648I-1270J1382*
G01*
G75*
D01*
G02X44450Y111648I-1270J1382*
G01*
G75*
D01*
G02X41910Y111648I-1270J1382*
G01*
G75*
D01*
G02X39370Y111648I-1270J1382*
G01*
G75*
D01*
G02X36830Y111648I-1270J1382*
G01*
G75*
D01*
G02X36830Y114412I-1270J1382*
G01*
G75*
D01*
G02X39370Y114412I1270J-1382*
G01*
G75*
D01*
G02X41910Y114412I1270J-1382*
G01*
G75*
D01*
G02X44450Y114412I1270J-1382*
G01*
G75*
D01*
G02X46990Y114412I1270J-1382*
G01*
G75*
D01*
G02X49530Y114412I1270J-1382*
G01*
G75*
D01*
G02X52070Y114412I1270J-1382*
G01*
G75*
D01*
G02X54610Y114412I1270J-1382*
G01*
G75*
D01*
G02X57150Y114412I1270J-1382*
G01*
G75*
D01*
G02X59690Y114412I1270J-1382*
G01*
G75*
D01*
G02X62230Y114412I1270J-1382*
G01*
G75*
D01*
G02X62230Y111648I1270J-1382*
G01*
G74*
D01*
G02X62218Y111637I1270J1382*
G01*
X62218Y111125D01*
G75*
D01*
G02X61849Y110234I-1258J0*
G01*
X60581Y108966D01*
G74*
D01*
G02X59690Y108597I891J889*
G01*
X31001Y108597D01*
X30468Y108064D01*
X30468Y93980D01*
G75*
D01*
G02X30099Y93089I-1258J0*
G01*
X28831Y91821D01*
G74*
D01*
G02X28205Y91480I891J889*
G01*
G75*
D01*
G02X27939Y91452I-265J1230*
G01*
X26793Y91452D01*
G74*
D01*
G02X26782Y91440I1393J1258*
G01*
G75*
D01*
G02X26782Y88900I-1382J-1270*
G01*
G75*
D01*
G02X24018Y88900I-1382J-1270*
G01*
G75*
D01*
G02X24018Y91440I1382J1270*
G01*
X24011Y91447D01*
X23218Y90654D01*
X23218Y85426D01*
X23244Y85426D01*
X23244Y85069D01*
G74*
D01*
G02X23416Y84545I709J524*
G01*
X23416Y83095D01*
G75*
D01*
G02X23244Y82571I-881J0*
G01*
X23244Y82214D01*
X23218Y82214D01*
X23218Y81650D01*
G75*
D01*
G02X22849Y80759I-1258J0*
G01*
X21211Y79121D01*
G74*
D01*
G02X20770Y78835I891J889*
G01*
G75*
D01*
G02X20319Y78752I-450J1175*
G01*
X10681Y78752D01*
X10148Y78219D01*
X10148Y77571D01*
G74*
D01*
G02X10764Y77955I1282J1371*
G01*
X10764Y76866D01*
X10148Y76866D01*
X10148Y75534D01*
X10764Y75534D01*
X10764Y75415D01*
G75*
D01*
G02X12096Y75415I666J-1755*
G01*
X12096Y75534D01*
X13185Y75534D01*
G74*
D01*
G02X12812Y74930I1755J666*
G01*
G74*
D01*
G02X12823Y74918I1382J1270*
G01*
X20197Y74918D01*
G74*
D01*
G02X20208Y74930I1393J1258*
G01*
G74*
D01*
G02X19835Y75534I1382J1270*
G01*
X20924Y75534D01*
X20924Y75415D01*
G75*
D01*
G02X22256Y75415I666J-1755*
G01*
X22256Y75534D01*
X23345Y75534D01*
G74*
D01*
G02X22972Y74930I1755J666*
G01*
G75*
D01*
G02X22972Y72390I-1382J-1270*
G01*
G75*
D01*
G02X22972Y69850I-1382J-1270*
G01*
G75*
D01*
G02X22972Y67310I-1382J-1270*
G01*
G75*
D01*
G02X22972Y64770I-1382J-1270*
G01*
G75*
D01*
G02X22972Y62230I-1382J-1270*
G01*
G74*
D01*
G02X23345Y61626I1382J1270*
G01*
X22256Y61626D01*
X22256Y61745D01*
G75*
D01*
G02X20924Y61745I-666J1755*
G01*
X20924Y61626D01*
X19835Y61626D01*
G74*
D01*
G02X20208Y62230I1755J666*
G01*
G74*
D01*
G02X20197Y62242I1382J1270*
G01*
X19571Y62242D01*
X14861Y57531D01*
G74*
D01*
G02X13970Y57162I891J889*
G01*
X12823Y57162D01*
G75*
D01*
G02X10048Y59690I-1393J1258*
G01*
G75*
D01*
G02X10048Y62230I1382J1270*
G01*
G75*
D01*
G02X10048Y64770I1382J1270*
G01*
G75*
D01*
G02X9560Y66201I1382J1270*
G01*
X8648Y65289D01*
X8648Y40272D01*
X9905Y41530D01*
G75*
D01*
G02X10796Y41898I890J-890*
G01*
X22974Y41898D01*
X23119Y42043D01*
X23507Y42431D01*
X23507Y80643D01*
G75*
D01*
G02X23875Y81535I1258J2*
G01*
X24593Y82252D01*
G74*
D01*
G02X24335Y82214I258J843*
G01*
X24276Y82214D01*
X24276Y83304D01*
X25216Y83304D01*
X25216Y83095D01*
G75*
D01*
G02X25178Y82837I-881J0*
G01*
X33400Y91060D01*
G75*
D01*
G02X34291Y91428I890J-890*
G01*
X72390Y91428D01*
G74*
D01*
G02X73281Y91059I0J1258*
G01*
X77089Y87251D01*
G74*
D01*
G02X77458Y86360I889J891*
G01*
X77458Y60960D01*
G75*
D01*
G02X77089Y60069I-1258J0*
G01*
X72011Y54991D01*
G74*
D01*
G02X71460Y54669I891J889*
G01*
G75*
D01*
G02X71119Y54622I-340J1211*
G01*
X50800Y54622D01*
G75*
D01*
G02X50436Y54676I0J1258*
G01*
G74*
D01*
G02X49910Y54990I364J1204*
G01*
X48640Y56260D01*
G74*
D01*
G02X48276Y57053I890J890*
G01*
G75*
D01*
G02X45608Y59690I-1286J1367*
G01*
G75*
D01*
G02X45608Y62230I1382J1270*
G01*
G75*
D01*
G02X45608Y64770I1382J1270*
G01*
G75*
D01*
G02X45608Y67310I1382J1270*
G01*
G75*
D01*
G02X45608Y69850I1382J1270*
G01*
G74*
D01*
G02X45597Y69862I1382J1270*
G01*
X44971Y69862D01*
X43168Y68059D01*
X43168Y62230D01*
G75*
D01*
G02X42799Y61339I-1258J0*
G01*
X36451Y54991D01*
G74*
D01*
G02X36026Y54712I891J889*
G01*
G75*
D01*
G02X35559Y54622I-466J1168*
G01*
X33020Y54622D01*
G75*
D01*
G02X32975Y54623I0J1258*
G01*
G74*
D01*
G02X32130Y54990I45J1257*
G01*
X31738Y55383D01*
X31738Y25897D01*
X32130Y26290D01*
G74*
D01*
G02X32891Y26651I890J890*
G01*
G74*
D01*
G02X32908Y26670I1399J1251*
G01*
G75*
D01*
G02X32908Y29210I1382J1270*
G01*
G75*
D01*
G02X32908Y31750I1382J1270*
G01*
G75*
D01*
G02X32908Y34290I1382J1270*
G01*
G75*
D01*
G02X32908Y36830I1382J1270*
G01*
G75*
D01*
G02X35672Y36830I1382J1270*
G01*
G74*
D01*
G02X35683Y36818I1382J1270*
G01*
X38214Y36818D01*
X44195Y42800D01*
G75*
D01*
G02X45086Y43168I890J-890*
G01*
X52184Y43168D01*
X59435Y50420D01*
G75*
D01*
G02X60326Y50788I890J-890*
G01*
X72390Y50788D01*
G74*
D01*
G02X73281Y50419I0J1258*
G01*
X75184Y48516D01*
G74*
D01*
G02X75553Y47625I889J891*
G01*
X75553Y17780D01*
G75*
D01*
G02X75184Y16889I-1258J0*
G01*
X73281Y14986D01*
G74*
D01*
G02X72742Y14667I891J889*
G01*
G75*
D01*
G02X72389Y14617I-352J1208*
G01*
X57036Y14617D01*
X56503Y14084D01*
X56503Y7620D01*
G75*
D01*
G02X56134Y6729I-1258J0*
G01*
X54866Y5461D01*
G74*
D01*
G02X54240Y5120I891J889*
G01*
G75*
D01*
G02X53974Y5092I-265J1230*
G01*
X50801Y5092D01*
G75*
D01*
G02X49910Y5460I-1J1258*
G01*
X48640Y6730D01*
G74*
D01*
G02X48279Y7491I890J890*
G01*
G74*
D01*
G02X48260Y7508I1251J1399*
G01*
G75*
D01*
G02X45720Y7508I-1270J1382*
G01*
G75*
D01*
G02X43180Y7508I-1270J1382*
G01*
G75*
D01*
G02X40640Y7508I-1270J1382*
G01*
G74*
D01*
G02X40628Y7497I1270J1382*
G01*
X40628Y5715D01*
G75*
D01*
G02X40259Y4824I-1258J0*
G01*
X37896Y2461D01*
G74*
D01*
G02X37005Y2092I891J889*
G01*
X10621Y2092D01*
G75*
D01*
G02X9730Y2460I-1J1258*
G01*
X4825Y7365D01*
G75*
D01*
G02X4457Y8256I890J890*
G01*
X4457Y67943D01*
X22972Y59690D02*
G75*
D01*
G02X20197Y57162I-1382J-1270*
G01*
X19571Y57162D01*
X17768Y55359D01*
X17768Y52643D01*
G74*
D01*
G02X18391Y51800I258J843*
G01*
X18391Y49800D01*
G75*
D01*
G02X17510Y48919I-881J0*
G01*
X15510Y48919D01*
G75*
D01*
G02X14629Y49800I0J881*
G01*
X14629Y50123D01*
X13951Y50800D01*
X14629Y51477D01*
X14629Y51800D01*
G74*
D01*
G02X15252Y52643I881J0*
G01*
X15252Y55878D01*
G75*
D01*
G02X15620Y56770I1258J2*
G01*
X18160Y59310D01*
G74*
D01*
G02X18879Y59666I890J890*
G01*
G75*
D01*
G02X19050Y59678I171J-1246*
G01*
X20197Y59678D01*
G74*
D01*
G02X20208Y59690I1393J1258*
G01*
G74*
D01*
G02X19835Y60294I1382J1270*
G01*
X20924Y60294D01*
X20924Y60175D01*
G75*
D01*
G02X22256Y60175I666J-1755*
G01*
X22256Y60294D01*
X23345Y60294D01*
G74*
D01*
G02X22972Y59690I1755J666*
G01*
X12382Y95119D02*
G75*
D01*
G02X12382Y95119I-2222J1401*
G01*
X23345Y76866D02*
X22256Y76866D01*
X22256Y77955D01*
G74*
D01*
G02X23345Y76866I666J1755*
G01*
X71119Y3419D02*
G75*
D01*
G02X71119Y3419I-634J4836*
G01*
X47835Y44139D02*
X46785Y44139D01*
G75*
D01*
G02X46125Y44436I0J881*
G01*
G74*
D01*
G02X45027Y43837I1098J707*
G01*
X43873Y43837D01*
G75*
D01*
G02X42567Y45143I0J1306*
G01*
X42567Y46297D01*
G74*
D01*
G02X42913Y47183I1306J0*
G01*
G75*
D01*
G02X43068Y49530I1537J1077*
G01*
G75*
D01*
G02X45843Y52058I1382J1270*
G01*
X46103Y52058D01*
G75*
D01*
G02X46785Y52381I682J-558*
G01*
X47835Y52381D01*
G74*
D01*
G02X48260Y52272I0J881*
G01*
G75*
D01*
G02X48685Y52381I425J-772*
G01*
X48711Y52381D01*
X48711Y51593D01*
G74*
D01*
G02X48716Y51500I876J93*
G01*
X48716Y50100D01*
G75*
D01*
G02X48711Y50007I-881J0*
G01*
X48711Y49053D01*
G74*
D01*
G02X48716Y48960I876J93*
G01*
X48716Y47560D01*
G75*
D01*
G02X48711Y47467I-881J0*
G01*
X48711Y46513D01*
G74*
D01*
G02X48716Y46420I876J93*
G01*
X48716Y45020D01*
G75*
D01*
G02X48711Y44927I-881J0*
G01*
X48711Y44139D01*
X48685Y44139D01*
G75*
D01*
G02X48260Y44248I0J881*
G01*
G74*
D01*
G02X47835Y44139I425J772*
G01*
X38212Y49530D02*
G75*
D01*
G02X38212Y46990I-1382J-1270*
G01*
G75*
D01*
G02X35448Y46990I-1382J-1270*
G01*
G75*
D01*
G02X35448Y49530I1382J1270*
G01*
G75*
D01*
G02X38212Y49530I1382J1270*
G01*
X36424Y107005D02*
X66036Y107005D01*
G74*
D01*
G02X66590Y106451I0J554*
G01*
X66590Y103139D01*
G75*
D01*
G02X66036Y102585I-554J0*
G01*
X36424Y102585D01*
G75*
D01*
G02X35870Y103139I0J554*
G01*
X35870Y106451D01*
G75*
D01*
G02X36424Y107005I554J0*
G01*
X46990Y99172D02*
G75*
D01*
G02X49530Y99172I1270J-1382*
G01*
G75*
D01*
G02X52070Y99172I1270J-1382*
G01*
G75*
D01*
G02X54610Y99172I1270J-1382*
G01*
G75*
D01*
G02X57150Y99172I1270J-1382*
G01*
G75*
D01*
G02X59690Y99172I1270J-1382*
G01*
G75*
D01*
G02X62230Y99172I1270J-1382*
G01*
G75*
D01*
G02X62230Y96408I1270J-1382*
G01*
G75*
D01*
G02X59690Y96408I-1270J1382*
G01*
G75*
D01*
G02X57150Y96408I-1270J1382*
G01*
G75*
D01*
G02X54610Y96408I-1270J1382*
G01*
G75*
D01*
G02X52070Y96408I-1270J1382*
G01*
G75*
D01*
G02X49530Y96408I-1270J1382*
G01*
G75*
D01*
G02X46990Y96408I-1270J1382*
G01*
G75*
D01*
G02X44450Y96408I-1270J1382*
G01*
G75*
D01*
G02X41910Y96408I-1270J1382*
G01*
G75*
D01*
G02X39370Y96408I-1270J1382*
G01*
G75*
D01*
G02X36830Y96408I-1270J1382*
G01*
G74*
D01*
G02X36226Y96035I1270J1382*
G01*
X36226Y97124D01*
X36345Y97124D01*
G75*
D01*
G02X36345Y98456I1755J666*
G01*
X36226Y98456D01*
X36226Y99545D01*
G74*
D01*
G02X36830Y99172I666J1755*
G01*
G75*
D01*
G02X39370Y99172I1270J-1382*
G01*
G75*
D01*
G02X41910Y99172I1270J-1382*
G01*
G75*
D01*
G02X44450Y99172I1270J-1382*
G01*
G75*
D01*
G02X46990Y99172I1270J-1382*
G01*
X50616Y47560D02*
G75*
D01*
G02X50407Y46990I-881J0*
G01*
G74*
D01*
G02X50616Y46420I672J570*
G01*
X50616Y46219D01*
X49709Y46219D01*
X49709Y47761D01*
X50616Y47761D01*
X50616Y47560D01*
X49735Y44139D02*
X49709Y44139D01*
X49709Y45221D01*
X50616Y45221D01*
X50616Y45020D01*
G75*
D01*
G02X49735Y44139I-881J0*
G01*
X10930Y76200D02*
G75*
D01*
G02X10930Y76200I500J0*
G01*
X21090Y76200D02*
G75*
D01*
G02X21090Y76200I500J0*
G01*
X12096Y77955D02*
G74*
D01*
G02X13185Y76866I666J1755*
G01*
X12096Y76866D01*
X12096Y77955D01*
X19835Y76866D02*
G74*
D01*
G02X20924Y77955I1755J666*
G01*
X20924Y76866D01*
X19835Y76866D01*
X34894Y96035D02*
G74*
D01*
G02X33805Y97124I666J1755*
G01*
X34894Y97124D01*
X34894Y96035D01*
X35060Y97790D02*
G75*
D01*
G02X35060Y97790I500J0*
G01*
X33805Y98456D02*
G74*
D01*
G02X34894Y99545I1755J666*
G01*
X34894Y98456D01*
X33805Y98456D01*
X50616Y51500D02*
X50616Y51299D01*
X49709Y51299D01*
X49709Y52381D01*
X49735Y52381D01*
G74*
D01*
G02X50616Y51500I0J881*
G01*
X50616Y48960D02*
X50616Y48759D01*
X49709Y48759D01*
X49709Y50301D01*
X50616Y50301D01*
X50616Y50100D01*
G75*
D01*
G02X50407Y49530I-881J0*
G01*
G74*
D01*
G02X50616Y48960I672J570*
G01*
X13780Y49088D02*
G75*
D01*
G02X12240Y49088I-770J1712*
G01*
X13010Y49859D01*
X13780Y49088D01*
X11298Y51570D02*
X12069Y50800D01*
X11298Y50030D01*
G75*
D01*
G02X11298Y51570I1712J770*
G01*
X12240Y52512D02*
G75*
D01*
G02X13780Y52512I770J-1712*
G01*
X13010Y51741D01*
X12240Y52512D01*
X12560Y50800D02*
G75*
D01*
G02X12560Y50800I450J0*
G01*
X21090Y60960D02*
G75*
D01*
G02X21090Y60960I500J0*
G01*
X62479Y10327D02*
G74*
D01*
G02X62844Y9393I1016J934*
G01*
X62844Y8387D01*
G75*
D01*
G02X61463Y7006I-1381J0*
G01*
X60457Y7006D01*
G75*
D01*
G02X59076Y8387I0J1381*
G01*
X59076Y9393D01*
G74*
D01*
G02X59441Y10327I1381J0*
G01*
G75*
D01*
G02X62479Y10327I1519J1103*
G01*
X9228Y84544D02*
G74*
D01*
G02X7704Y86068I932J2456*
G01*
X9228Y86068D01*
X9228Y84544D01*
X12616Y86068D02*
G74*
D01*
G02X11092Y84544I2456J932*
G01*
X11092Y86068D01*
X12616Y86068D01*
X7704Y87932D02*
G74*
D01*
G02X9228Y89456I2456J932*
G01*
X9228Y87932D01*
X7704Y87932D01*
X9160Y87000D02*
G75*
D01*
G02X9160Y87000I1000J0*
G01*
X11092Y89456D02*
G74*
D01*
G02X12616Y87932I932J2456*
G01*
X11092Y87932D01*
X11092Y89456D01*
X2108Y113665D02*
G75*
D01*
G02X2108Y113665I4877J0*
G01*
X12258Y105220D02*
X13029Y104450D01*
X12258Y103680D01*
G75*
D01*
G02X12258Y105220I1712J770*
G01*
X14740Y102738D02*
G75*
D01*
G02X13200Y102738I-770J1712*
G01*
X13970Y103509D01*
X14740Y102738D01*
X15682Y105220D02*
G75*
D01*
G02X15682Y103680I-1712J-770*
G01*
X14911Y104450D01*
X15682Y105220D01*
X14970Y106069D02*
X14647Y106069D01*
X13970Y105391D01*
X13293Y106069D01*
X12970Y106069D01*
G75*
D01*
G02X12089Y106950I0J881*
G01*
X12089Y108950D01*
G75*
D01*
G02X12970Y109831I881J0*
G01*
X14970Y109831D01*
G74*
D01*
G02X15851Y108950I0J881*
G01*
X15851Y106950D01*
G75*
D01*
G02X14970Y106069I-881J0*
G01*
X13520Y104450D02*
G75*
D01*
G02X13520Y104450I450J0*
G01*
X24734Y106195D02*
X24734Y106076D01*
X23645Y106076D01*
G74*
D01*
G02X24018Y106680I1755J666*
G01*
G75*
D01*
G02X24018Y109220I1382J1270*
G01*
G75*
D01*
G02X24018Y111760I1382J1270*
G01*
G75*
D01*
G02X24018Y114300I1382J1270*
G01*
G75*
D01*
G02X26782Y114300I1382J1270*
G01*
G75*
D01*
G02X26782Y111760I-1382J-1270*
G01*
G75*
D01*
G02X26782Y109220I-1382J-1270*
G01*
G75*
D01*
G02X26782Y106680I-1382J-1270*
G01*
G74*
D01*
G02X27155Y106076I1382J1270*
G01*
X26066Y106076D01*
X26066Y106195D01*
G75*
D01*
G02X24734Y106195I-666J1755*
G01*
X24900Y97790D02*
G75*
D01*
G02X24900Y97790I500J0*
G01*
X23645Y98456D02*
G74*
D01*
G02X24018Y99060I1755J666*
G01*
G74*
D01*
G02X23645Y99664I1382J1270*
G01*
X24734Y99664D01*
X24734Y98456D01*
X23645Y98456D01*
X24900Y100330D02*
G75*
D01*
G02X24900Y100330I500J0*
G01*
X27155Y99664D02*
G74*
D01*
G02X26782Y99060I1755J666*
G01*
G74*
D01*
G02X27155Y98456I1382J1270*
G01*
X26066Y98456D01*
X26066Y99664D01*
X27155Y99664D01*
X23645Y100996D02*
G74*
D01*
G02X24018Y101600I1755J666*
G01*
G74*
D01*
G02X23645Y102204I1382J1270*
G01*
X24734Y102204D01*
X24734Y100996D01*
X23645Y100996D01*
X27155Y102204D02*
G74*
D01*
G02X26782Y101600I1755J666*
G01*
G74*
D01*
G02X27155Y100996I1382J1270*
G01*
X26066Y100996D01*
X26066Y102204D01*
X27155Y102204D01*
X23645Y103536D02*
G74*
D01*
G02X24018Y104140I1755J666*
G01*
G74*
D01*
G02X23645Y104744I1382J1270*
G01*
X24734Y104744D01*
X24734Y103536D01*
X23645Y103536D01*
X24900Y102870D02*
G75*
D01*
G02X24900Y102870I500J0*
G01*
X27155Y104744D02*
G74*
D01*
G02X26782Y104140I1755J666*
G01*
G74*
D01*
G02X27155Y103536I1382J1270*
G01*
X26066Y103536D01*
X26066Y104744D01*
X27155Y104744D01*
X24900Y105410D02*
G75*
D01*
G02X24900Y105410I500J0*
G01*
X25216Y84545D02*
X25216Y84336D01*
X24276Y84336D01*
X24276Y85426D01*
X24335Y85426D01*
G74*
D01*
G02X25216Y84545I0J881*
G01*
X881Y881D02*
X80399Y881D01*
X80399Y121039D01*
X881Y121039D01*
X881Y881D01*
X38112Y7497D02*
G74*
D01*
G02X38100Y7508I1258J1393*
G01*
G75*
D01*
G02X35560Y7508I-1270J1382*
G01*
G74*
D01*
G02X35548Y7497I1270J1382*
G01*
X35548Y6985D01*
G75*
D01*
G02X35179Y6094I-1258J0*
G01*
X33692Y4608D01*
X36484Y4608D01*
X38112Y6236D01*
X38112Y7497D01*
X21162Y23119D02*
G75*
D01*
G02X21162Y23119I428J-259*
G01*
X22972Y21590D02*
G75*
D01*
G02X20197Y19062I-1382J-1270*
G01*
X19571Y19062D01*
X17768Y17259D01*
X17768Y14543D01*
G74*
D01*
G02X18391Y13700I258J843*
G01*
X18391Y11700D01*
G75*
D01*
G02X17510Y10819I-881J0*
G01*
X15510Y10819D01*
G75*
D01*
G02X14629Y11700I0J881*
G01*
X14629Y12023D01*
X13951Y12700D01*
X14629Y13377D01*
X14629Y13700D01*
G74*
D01*
G02X15252Y14543I881J0*
G01*
X15252Y17779D01*
G75*
D01*
G02X15620Y18670I1258J1*
G01*
X18160Y21210D01*
G75*
D01*
G02X19051Y21578I890J-890*
G01*
X20197Y21578D01*
G74*
D01*
G02X20208Y21590I1393J1258*
G01*
G74*
D01*
G02X19835Y22194I1382J1270*
G01*
X20924Y22194D01*
X20924Y22075D01*
G75*
D01*
G02X22256Y22075I666J-1755*
G01*
X22256Y22194D01*
X23345Y22194D01*
G74*
D01*
G02X22972Y21590I1755J666*
G01*
X10930Y38100D02*
G75*
D01*
G02X10930Y38100I500J0*
G01*
X21090Y38100D02*
G75*
D01*
G02X21090Y38100I500J0*
G01*
X28710Y11430D02*
G75*
D01*
G02X28710Y11430I500J0*
G01*
X11298Y13470D02*
X12069Y12700D01*
X11298Y11930D01*
G75*
D01*
G02X11298Y13470I1712J770*
G01*
X13780Y10988D02*
G75*
D01*
G02X12240Y10988I-770J1712*
G01*
X13010Y11759D01*
X13780Y10988D01*
X12240Y14412D02*
G75*
D01*
G02X13780Y14412I770J-1712*
G01*
X13010Y13641D01*
X12240Y14412D01*
X12560Y12700D02*
G75*
D01*
G02X12560Y12700I450J0*
G01*
X23345Y38766D02*
X22256Y38766D01*
X22256Y39382D01*
X20924Y39382D01*
X20924Y38766D01*
X19835Y38766D01*
G74*
D01*
G02X20219Y39382I1755J666*
G01*
X12801Y39382D01*
G74*
D01*
G02X13185Y38766I1371J1282*
G01*
X12096Y38766D01*
X12096Y39382D01*
X11316Y39382D01*
X10764Y38830D01*
X10764Y38766D01*
X10700Y38766D01*
X10148Y38214D01*
X10148Y37434D01*
X10764Y37434D01*
X10764Y37315D01*
G75*
D01*
G02X12096Y37315I666J-1755*
G01*
X12096Y37434D01*
X13185Y37434D01*
G74*
D01*
G02X12812Y36830I1755J666*
G01*
G74*
D01*
G02X12823Y36818I1382J1270*
G01*
X20197Y36818D01*
G74*
D01*
G02X20208Y36830I1393J1258*
G01*
G74*
D01*
G02X19835Y37434I1382J1270*
G01*
X20924Y37434D01*
X20924Y37315D01*
G75*
D01*
G02X22256Y37315I666J-1755*
G01*
X22256Y37434D01*
X23345Y37434D01*
G74*
D01*
G02X22972Y36830I1755J666*
G01*
G75*
D01*
G02X22972Y34290I-1382J-1270*
G01*
G75*
D01*
G02X22972Y31750I-1382J-1270*
G01*
G75*
D01*
G02X22972Y29210I-1382J-1270*
G01*
G75*
D01*
G02X22972Y26670I-1382J-1270*
G01*
G75*
D01*
G02X22972Y24130I-1382J-1270*
G01*
G74*
D01*
G02X23345Y23526I1382J1270*
G01*
X22256Y23526D01*
X22256Y23645D01*
G75*
D01*
G02X20924Y23645I-666J1755*
G01*
X20924Y23526D01*
X19835Y23526D01*
G74*
D01*
G02X20208Y24130I1755J666*
G01*
G74*
D01*
G02X20197Y24142I1382J1270*
G01*
X19571Y24142D01*
X14861Y19431D01*
G74*
D01*
G02X13970Y19062I891J889*
G01*
X12823Y19062D01*
G75*
D01*
G02X10148Y18949I-1393J1258*
G01*
X10148Y10681D01*
X13221Y7608D01*
X27839Y7608D01*
G75*
D01*
G02X27828Y10160I1371J1282*
G01*
G74*
D01*
G02X27455Y10764I1382J1270*
G01*
X28544Y10764D01*
X28544Y10645D01*
G75*
D01*
G02X29876Y10645I666J-1755*
G01*
X29876Y10764D01*
X29995Y10764D01*
G75*
D01*
G02X29995Y12096I1755J666*
G01*
X29876Y12096D01*
X29876Y12379D01*
X29544Y12379D01*
G75*
D01*
G02X28653Y12747I-1J1258*
G01*
X28544Y12856D01*
X28544Y12096D01*
X27455Y12096D01*
G74*
D01*
G02X28319Y13082I1755J666*
G01*
X25550Y15850D01*
G75*
D01*
G02X25182Y16741I890J890*
G01*
X25182Y40548D01*
X24386Y39751D01*
G74*
D01*
G02X23495Y39382I891J889*
G01*
X22961Y39382D01*
G74*
D01*
G02X23345Y38766I1371J1282*
G01*
X33000Y7474D02*
X33027Y7501D01*
X33020Y7508D01*
G74*
D01*
G02X33001Y7491I1270J1382*
G01*
G74*
D01*
G02X33000Y7474I1251J129*
G01*
X51570Y11430D02*
G75*
D01*
G02X51570Y11430I500J0*
G01*
X52736Y13185D02*
G74*
D01*
G02X53825Y12096I666J1755*
G01*
X52736Y12096D01*
X52736Y13185D01*
X54355Y15495D02*
X55383Y16522D01*
X52807Y16522D01*
X50788Y14503D01*
X50788Y12823D01*
G74*
D01*
G02X50800Y12812I1258J1393*
G01*
G74*
D01*
G02X51404Y13185I1270J1382*
G01*
X51404Y12096D01*
X51285Y12096D01*
G75*
D01*
G02X51285Y10764I-1755J-666*
G01*
X51404Y10764D01*
X51404Y10645D01*
G75*
D01*
G02X52736Y10645I666J-1755*
G01*
X52736Y10764D01*
X53825Y10764D01*
G74*
D01*
G02X53452Y10160I1755J666*
G01*
G75*
D01*
G02X53441Y7608I-1382J-1270*
G01*
X53454Y7608D01*
X53987Y8141D01*
X53987Y14603D01*
G75*
D01*
G02X54355Y15495I1258J2*
G01*
X35560Y12812D02*
G75*
D01*
G02X38100Y12812I1270J-1382*
G01*
X38107Y12819D01*
X37047Y13879D01*
X34890Y13879D01*
X35179Y13591D01*
G74*
D01*
G02X35541Y12829I889J891*
G01*
G74*
D01*
G02X35560Y12812I1251J1399*
G01*
X45608Y24130D02*
G75*
D01*
G03X45608Y21590I1382J-1270*
G01*
G75*
D01*
G03X45789Y18878I1382J-1270*
G01*
G74*
D01*
G03X45371Y17940I1201J1098*
G01*
X43560Y16130D01*
G75*
D01*
G03X43192Y15239I890J-890*
G01*
X43192Y12823D01*
G74*
D01*
G03X43180Y12812I1258J1393*
G01*
G74*
D01*
G03X43168Y12823I1270J1382*
G01*
X43168Y13335D01*
G74*
D01*
G03X42799Y14226I1258J0*
G01*
X39499Y17526D01*
G74*
D01*
G03X38608Y17895I891J889*
G01*
X37454Y17895D01*
X42678Y23119D01*
X42799Y23239D01*
G75*
D01*
G03X43168Y24130I-889J891*
G01*
X43168Y29959D01*
X44971Y31762D01*
X45597Y31762D01*
G74*
D01*
G03X45608Y31750I1393J1258*
G01*
G75*
D01*
G03X45608Y29210I1382J-1270*
G01*
G75*
D01*
G03X45608Y26670I1382J-1270*
G01*
G75*
D01*
G03X45608Y24130I1382J-1270*
G01*
X40647Y12819D02*
X40628Y12838D01*
X40628Y12823D01*
G74*
D01*
G02X40640Y12812I1258J1393*
G01*
X40647Y12819D01*
X45732Y14603D02*
G75*
D01*
G02X45740Y14751I1258J2*
G01*
X45708Y14719D01*
X45708Y12823D01*
G74*
D01*
G02X45720Y12812I1258J1393*
G01*
G74*
D01*
G02X45732Y12823I1270J1382*
G01*
X45732Y14603D01*
X48272Y12823D02*
X48272Y14108D01*
X48248Y14084D01*
X48248Y12823D01*
G74*
D01*
G02X48260Y12812I1258J1393*
G01*
G74*
D01*
G02X48272Y12823I1270J1382*
G01*
X67500Y47432D02*
G75*
D01*
G02X69040Y47432I770J-1712*
G01*
X68727Y47119D01*
X68727Y47119D01*
X68270Y46661D01*
X67813Y47119D01*
X67500Y47432D01*
X66651Y46720D02*
X66651Y46397D01*
X67329Y45720D01*
X66651Y45043D01*
X66651Y44720D01*
G75*
D01*
G02X66028Y43877I-881J0*
G01*
X66028Y40640D01*
G75*
D01*
G02X65659Y39749I-1258J0*
G01*
X63121Y37211D01*
G74*
D01*
G02X62650Y36914I891J889*
G01*
G75*
D01*
G02X62229Y36842I-420J1186*
G01*
X61083Y36842D01*
G74*
D01*
G02X61072Y36830I1393J1258*
G01*
G74*
D01*
G02X61445Y36226I1382J1270*
G01*
X60356Y36226D01*
X60356Y36345D01*
G75*
D01*
G02X59024Y36345I-666J1755*
G01*
X59024Y36226D01*
X57935Y36226D01*
G74*
D01*
G02X58308Y36830I1755J666*
G01*
G75*
D01*
G02X61083Y39358I1382J1270*
G01*
X61709Y39358D01*
X63512Y41161D01*
X63512Y43877D01*
G75*
D01*
G02X62889Y44720I258J843*
G01*
X62889Y46720D01*
G75*
D01*
G02X63770Y47601I881J0*
G01*
X65770Y47601D01*
G74*
D01*
G02X66651Y46720I0J881*
G01*
X59190Y20320D02*
G75*
D01*
G02X59190Y20320I500J0*
G01*
X69350Y20320D02*
G75*
D01*
G02X69350Y20320I500J0*
G01*
X69982Y46490D02*
G75*
D01*
G02X69982Y44950I-1712J-770*
G01*
X69211Y45720D01*
X69982Y46490D01*
X67820Y45720D02*
G75*
D01*
G02X67820Y45720I450J0*
G01*
X69040Y44008D02*
G75*
D01*
G02X67500Y44008I-770J1712*
G01*
X68270Y44779D01*
X69040Y44008D01*
X59190Y35560D02*
G75*
D01*
G02X59190Y35560I500J0*
G01*
X68095Y19654D02*
X69184Y19654D01*
X69184Y19038D01*
X70516Y19038D01*
X70516Y19654D01*
X71132Y19654D01*
X71132Y20986D01*
X70516Y20986D01*
X70516Y21105D01*
G75*
D01*
G02X69184Y21105I-666J1755*
G01*
X69184Y20986D01*
X68095Y20986D01*
G74*
D01*
G02X68468Y21590I1755J666*
G01*
G74*
D01*
G02X68457Y21602I1382J1270*
G01*
X61083Y21602D01*
G74*
D01*
G02X61072Y21590I1393J1258*
G01*
G74*
D01*
G02X61445Y20986I1382J1270*
G01*
X60356Y20986D01*
X60356Y21105D01*
G75*
D01*
G02X59024Y21105I-666J1755*
G01*
X59024Y20986D01*
X57935Y20986D01*
G74*
D01*
G02X58308Y21590I1755J666*
G01*
G75*
D01*
G02X58308Y24130I1382J1270*
G01*
G75*
D01*
G02X58308Y26670I1382J1270*
G01*
G75*
D01*
G02X58308Y29210I1382J1270*
G01*
G75*
D01*
G02X58308Y31750I1382J1270*
G01*
G75*
D01*
G02X58308Y34290I1382J1270*
G01*
G74*
D01*
G02X57935Y34894I1382J1270*
G01*
X59024Y34894D01*
X59024Y34775D01*
G75*
D01*
G02X60356Y34775I666J-1755*
G01*
X60356Y34894D01*
X61445Y34894D01*
G74*
D01*
G02X61072Y34290I1755J666*
G01*
G74*
D01*
G02X61083Y34278I1382J1270*
G01*
X61709Y34278D01*
X66420Y38990D01*
G75*
D01*
G02X67311Y39358I890J-890*
G01*
X68457Y39358D01*
G75*
D01*
G02X71232Y36830I1393J-1258*
G01*
G75*
D01*
G02X71232Y34290I-1382J-1270*
G01*
G75*
D01*
G02X71232Y31750I-1382J-1270*
G01*
G75*
D01*
G02X71232Y29210I-1382J-1270*
G01*
G74*
D01*
G02X71249Y29191I1382J1270*
G01*
G74*
D01*
G02X72011Y28829I129J1251*
G01*
X73037Y27802D01*
X73037Y47104D01*
X73022Y47119D01*
X73022Y47119D01*
X71869Y48272D01*
X60846Y48272D01*
X59693Y47119D01*
X53596Y41021D01*
G74*
D01*
G02X52705Y40652I891J889*
G01*
X45606Y40652D01*
X39626Y34671D01*
G74*
D01*
G02X38735Y34302I891J889*
G01*
X35683Y34302D01*
G74*
D01*
G02X35672Y34290I1393J1258*
G01*
G75*
D01*
G02X35672Y31750I-1382J-1270*
G01*
G75*
D01*
G02X35672Y29210I-1382J-1270*
G01*
G75*
D01*
G02X35672Y26670I-1382J-1270*
G01*
G75*
D01*
G02X35672Y24130I-1382J-1270*
G01*
G74*
D01*
G02X35683Y24118I1382J1270*
G01*
X36309Y24118D01*
X38112Y25921D01*
X38112Y31748D01*
G75*
D01*
G02X38480Y32640I1258J2*
G01*
X42290Y36450D01*
G74*
D01*
G02X42742Y36739I890J890*
G01*
G75*
D01*
G02X43180Y36818I438J-1179*
G01*
X45597Y36818D01*
G74*
D01*
G02X45608Y36830I1393J1258*
G01*
G75*
D01*
G02X48372Y36830I1382J1270*
G01*
G75*
D01*
G02X48372Y34290I-1382J-1270*
G01*
G75*
D01*
G02X48372Y31750I-1382J-1270*
G01*
G75*
D01*
G02X48372Y29210I-1382J-1270*
G01*
G75*
D01*
G02X48372Y26670I-1382J-1270*
G01*
G75*
D01*
G02X48372Y24130I-1382J-1270*
G01*
G74*
D01*
G02X48389Y24111I1382J1270*
G01*
G74*
D01*
G02X49151Y23749I129J1251*
G01*
X49780Y23119D01*
X50419Y22481D01*
G74*
D01*
G02X50788Y21590I889J891*
G01*
X50788Y18061D01*
X51397Y18670D01*
G75*
D01*
G02X52287Y19038I889J-890*
G01*
X58319Y19038D01*
G74*
D01*
G02X57935Y19654I1371J1282*
G01*
X59024Y19654D01*
X59024Y19038D01*
X60356Y19038D01*
X60356Y19654D01*
X61445Y19654D01*
G74*
D01*
G02X61061Y19038I1755J666*
G01*
X68479Y19038D01*
G74*
D01*
G02X68095Y19654I1371J1282*
G01*
X48272Y18949D02*
G74*
D01*
G02X48191Y18878I1282J1371*
G01*
G74*
D01*
G02X48272Y18782I1201J1098*
G01*
X48272Y18949D01*
X40652Y30478D02*
X40652Y24651D01*
X39120Y23119D01*
X36160Y20159D01*
G75*
D01*
G03X35672Y21590I-1870J161*
G01*
G74*
D01*
G03X35683Y21602I1382J1270*
G01*
X36829Y21602D01*
G75*
D01*
G03X37250Y21674I1J1258*
G01*
G74*
D01*
G03X37721Y21971I420J1186*
G01*
X40259Y24509D01*
G75*
D01*
G03X40628Y25400I-889J891*
G01*
X40628Y31229D01*
X43701Y34302D01*
X45597Y34302D01*
G74*
D01*
G03X45608Y34290I1393J1258*
G01*
G74*
D01*
G03X45597Y34278I1382J1270*
G01*
X44450Y34278D01*
G75*
D01*
G03X44279Y34266I0J-1258*
G01*
G74*
D01*
G03X43560Y33910I171J1246*
G01*
X41020Y31370D01*
G75*
D01*
G03X40652Y30478I890J-890*
G01*
X12823Y21602D02*
G74*
D01*
G02X12812Y21590I1393J1258*
G01*
G74*
D01*
G02X12823Y21578I1382J1270*
G01*
X13449Y21578D01*
X13473Y21602D01*
X12823Y21602D01*
X12823Y24118D02*
G74*
D01*
G03X12812Y24130I1393J1258*
G01*
G74*
D01*
G03X12823Y24142I1382J1270*
G01*
X13473Y24142D01*
X13449Y24118D01*
X12823Y24118D01*
X61072Y24130D02*
G74*
D01*
G02X61083Y24118I1382J1270*
G01*
X68457Y24118D01*
G74*
D01*
G02X68468Y24130I1393J1258*
G01*
G75*
D01*
G02X68468Y26670I1382J1270*
G01*
G75*
D01*
G02X68468Y29210I1382J1270*
G01*
G74*
D01*
G02X68457Y29222I1382J1270*
G01*
X67831Y29222D01*
X63121Y24511D01*
G74*
D01*
G02X62230Y24142I891J889*
G01*
X61083Y24142D01*
G74*
D01*
G02X61072Y24130I1393J1258*
G01*
X12823Y26658D02*
G74*
D01*
G03X12812Y26670I1393J1258*
G01*
G74*
D01*
G03X12823Y26682I1382J1270*
G01*
X13473Y26682D01*
X13449Y26658D01*
X12823Y26658D01*
X20208Y26670D02*
G74*
D01*
G03X20197Y26658I1382J1270*
G01*
X19547Y26658D01*
X19571Y26682D01*
X20197Y26682D01*
G74*
D01*
G03X20208Y26670I1393J1258*
G01*
X61072Y26670D02*
G74*
D01*
G02X61083Y26658I1382J1270*
G01*
X61709Y26658D01*
X61733Y26682D01*
X61083Y26682D01*
G74*
D01*
G02X61072Y26670I1393J1258*
G01*
X20208Y34290D02*
G74*
D01*
G03X20197Y34278I1382J1270*
G01*
X19051Y34278D01*
G75*
D01*
G03X18160Y33910I-1J-1258*
G01*
X13449Y29198D01*
X12823Y29198D01*
G74*
D01*
G03X12812Y29210I1393J1258*
G01*
G75*
D01*
G03X12812Y31750I-1382J1270*
G01*
G75*
D01*
G03X12812Y34290I-1382J1270*
G01*
G74*
D01*
G03X12823Y34302I1382J1270*
G01*
X20197Y34302D01*
G74*
D01*
G03X20208Y34290I1393J1258*
G01*
X20197Y29222D02*
G74*
D01*
G03X20208Y29210I1393J1258*
G01*
G74*
D01*
G03X20197Y29198I1382J1270*
G01*
X19547Y29198D01*
X19571Y29222D01*
X20197Y29222D01*
X61083Y29222D02*
G74*
D01*
G02X61072Y29210I1393J1258*
G01*
G74*
D01*
G02X61083Y29198I1382J1270*
G01*
X61709Y29198D01*
X61733Y29222D01*
X61083Y29222D01*
X20208Y31750D02*
G74*
D01*
G03X20197Y31738I1382J1270*
G01*
X19547Y31738D01*
X19571Y31762D01*
X20197Y31762D01*
G74*
D01*
G03X20208Y31750I1393J1258*
G01*
X61083Y31738D02*
X61709Y31738D01*
X61733Y31762D01*
X61083Y31762D01*
G74*
D01*
G02X61072Y31750I1393J1258*
G01*
G74*
D01*
G02X61083Y31738I1382J1270*
G01*
X68457Y31762D02*
X67831Y31762D01*
X67807Y31738D01*
X68457Y31738D01*
G74*
D01*
G02X68468Y31750I1393J1258*
G01*
G74*
D01*
G02X68457Y31762I1382J1270*
G01*
X68457Y34278D02*
G74*
D01*
G02X68468Y34290I1393J1258*
G01*
G74*
D01*
G02X68457Y34302I1382J1270*
G01*
X67831Y34302D01*
X67807Y34278D01*
X68457Y34278D01*
X68468Y36830D02*
G74*
D01*
G02X68457Y36842I1382J1270*
G01*
X67831Y36842D01*
X67807Y36818D01*
X68457Y36818D01*
G74*
D01*
G02X68468Y36830I1393J1258*
G01*
X46113Y49530D02*
G74*
D01*
G02X46103Y49542I672J570*
G01*
X45843Y49542D01*
G74*
D01*
G02X45832Y49530I1393J1258*
G01*
G74*
D01*
G02X45843Y49518I1382J1270*
G01*
X46103Y49518D01*
G74*
D01*
G02X46113Y49530I682J558*
G01*
X69350Y58420D02*
G75*
D01*
G02X69350Y58420I500J0*
G01*
X59190Y58420D02*
G75*
D01*
G02X59190Y58420I500J0*
G01*
X67820Y83820D02*
G75*
D01*
G02X67820Y83820I450J0*
G01*
X59190Y73660D02*
G75*
D01*
G02X59190Y73660I500J0*
G01*
X69040Y82108D02*
G75*
D01*
G02X67500Y82108I-770J1712*
G01*
X68270Y82879D01*
X69040Y82108D01*
X70516Y59205D02*
G75*
D01*
G02X69184Y59205I-666J1755*
G01*
X69184Y59086D01*
X68095Y59086D01*
G74*
D01*
G02X68468Y59690I1755J666*
G01*
G74*
D01*
G02X68457Y59702I1382J1270*
G01*
X61083Y59702D01*
G74*
D01*
G02X61072Y59690I1393J1258*
G01*
G74*
D01*
G02X61445Y59086I1382J1270*
G01*
X60356Y59086D01*
X60356Y59205D01*
G75*
D01*
G02X59024Y59205I-666J1755*
G01*
X59024Y59086D01*
X57935Y59086D01*
G74*
D01*
G02X58308Y59690I1755J666*
G01*
G75*
D01*
G02X58308Y62230I1382J1270*
G01*
G75*
D01*
G02X58308Y64770I1382J1270*
G01*
G75*
D01*
G02X58308Y67310I1382J1270*
G01*
G75*
D01*
G02X58308Y69850I1382J1270*
G01*
G75*
D01*
G02X58308Y72390I1382J1270*
G01*
G74*
D01*
G02X57935Y72994I1382J1270*
G01*
X59024Y72994D01*
X59024Y72875D01*
G75*
D01*
G02X60356Y72875I666J-1755*
G01*
X60356Y72994D01*
X61445Y72994D01*
G74*
D01*
G02X61072Y72390I1755J666*
G01*
G74*
D01*
G02X61083Y72378I1382J1270*
G01*
X61709Y72378D01*
X66420Y77090D01*
G75*
D01*
G02X67311Y77458I890J-890*
G01*
X68457Y77458D01*
G75*
D01*
G02X71132Y77571I1393J-1258*
G01*
X71132Y83299D01*
X71119Y83312D01*
X70066Y84365D01*
G75*
D01*
G02X69982Y83050I-1796J-545*
G01*
X69211Y83820D01*
X69911Y84520D01*
X69329Y85102D01*
X68611Y85102D01*
X68270Y84761D01*
X67929Y85102D01*
X66605Y85102D01*
G74*
D01*
G02X66651Y84820I835J282*
G01*
X66651Y84497D01*
X67329Y83820D01*
X66651Y83143D01*
X66651Y82820D01*
G75*
D01*
G02X66028Y81977I-881J0*
G01*
X66028Y78740D01*
G75*
D01*
G02X65659Y77849I-1258J0*
G01*
X63121Y75311D01*
G74*
D01*
G02X62650Y75014I891J889*
G01*
G75*
D01*
G02X62229Y74942I-420J1186*
G01*
X61083Y74942D01*
G74*
D01*
G02X61072Y74930I1393J1258*
G01*
G74*
D01*
G02X61445Y74326I1382J1270*
G01*
X60356Y74326D01*
X60356Y74445D01*
G75*
D01*
G02X59024Y74445I-666J1755*
G01*
X59024Y74326D01*
X57935Y74326D01*
G74*
D01*
G02X58308Y74930I1755J666*
G01*
G75*
D01*
G02X61083Y77458I1382J1270*
G01*
X61709Y77458D01*
X63512Y79261D01*
X63512Y81977D01*
G75*
D01*
G02X62889Y82820I258J843*
G01*
X62889Y84820D01*
G74*
D01*
G02X62935Y85102I881J0*
G01*
X36716Y85102D01*
X29833Y78219D01*
X29833Y73522D01*
X30860Y74550D01*
G74*
D01*
G02X31386Y74864I890J890*
G01*
G75*
D01*
G02X31750Y74918I364J-1204*
G01*
X32897Y74918D01*
G74*
D01*
G02X32908Y74930I1393J1258*
G01*
G75*
D01*
G02X35672Y74930I1382J1270*
G01*
G75*
D01*
G02X35672Y72390I-1382J-1270*
G01*
G75*
D01*
G02X35672Y69850I-1382J-1270*
G01*
G75*
D01*
G02X35672Y67310I-1382J-1270*
G01*
G75*
D01*
G02X35672Y64770I-1382J-1270*
G01*
G75*
D01*
G02X35672Y62230I-1382J-1270*
G01*
G74*
D01*
G02X35683Y62218I1382J1270*
G01*
X36309Y62218D01*
X37882Y63791D01*
X37882Y69618D01*
G75*
D01*
G02X38250Y70510I1258J2*
G01*
X42290Y74550D01*
G74*
D01*
G02X42911Y74889I890J890*
G01*
G75*
D01*
G02X43180Y74918I269J-1229*
G01*
X45597Y74918D01*
G74*
D01*
G02X45608Y74930I1393J1258*
G01*
G75*
D01*
G02X48389Y77451I1382J1270*
G01*
G74*
D01*
G02X48525Y77430I129J1251*
G01*
G74*
D01*
G02X49151Y77089I265J1230*
G01*
X50419Y75821D01*
G74*
D01*
G02X50788Y74930I889J891*
G01*
X50788Y57671D01*
X51321Y57138D01*
X58319Y57138D01*
G74*
D01*
G02X57935Y57754I1371J1282*
G01*
X59024Y57754D01*
X59024Y57138D01*
X60356Y57138D01*
X60356Y57754D01*
X61445Y57754D01*
G74*
D01*
G02X61061Y57138I1755J666*
G01*
X68479Y57138D01*
G74*
D01*
G02X68095Y57754I1371J1282*
G01*
X69184Y57754D01*
X69184Y57138D01*
X70516Y57138D01*
X70516Y57754D01*
X71215Y57754D01*
X74942Y61481D01*
X74942Y65127D01*
X72426Y62611D01*
G74*
D01*
G02X71906Y62298I891J889*
G01*
G75*
D01*
G02X71534Y62242I-371J1202*
G01*
X71243Y62242D01*
G74*
D01*
G02X71232Y62230I1393J1258*
G01*
G75*
D01*
G02X71232Y59690I-1382J-1270*
G01*
G74*
D01*
G02X71605Y59086I1382J1270*
G01*
X70516Y59086D01*
X70516Y59205D01*
X45597Y72402D02*
X43701Y72402D01*
X40398Y69099D01*
X40398Y63270D01*
G75*
D01*
G02X40029Y62379I-1258J0*
G01*
X37721Y60071D01*
G74*
D01*
G02X37067Y59724I891J889*
G01*
G75*
D01*
G02X36829Y59702I-237J1236*
G01*
X35683Y59702D01*
G74*
D01*
G02X35672Y59690I1393J1258*
G01*
G75*
D01*
G02X36160Y58259I-1382J-1270*
G01*
X40652Y62751D01*
X40652Y68578D01*
G75*
D01*
G02X41020Y69470I1258J2*
G01*
X42670Y71119D01*
X43560Y72010D01*
G74*
D01*
G02X44279Y72366I890J890*
G01*
G75*
D01*
G02X44450Y72378I171J-1246*
G01*
X45597Y72378D01*
G74*
D01*
G02X45608Y72390I1393J1258*
G01*
G74*
D01*
G02X45597Y72402I1382J1270*
G01*
X12812Y59690D02*
G74*
D01*
G02X12823Y59678I1382J1270*
G01*
X13449Y59678D01*
X13473Y59702D01*
X12823Y59702D01*
G74*
D01*
G02X12812Y59690I1393J1258*
G01*
X12823Y62218D02*
X13449Y62218D01*
X13473Y62242D01*
X12823Y62242D01*
G74*
D01*
G02X12812Y62230I1393J1258*
G01*
G74*
D01*
G02X12823Y62218I1382J1270*
G01*
X63121Y62611D02*
X67831Y67322D01*
X68457Y67322D01*
G74*
D01*
G03X68468Y67310I1393J1258*
G01*
G75*
D01*
G03X68468Y64770I1382J-1270*
G01*
G75*
D01*
G03X68468Y62230I1382J-1270*
G01*
G74*
D01*
G03X68457Y62218I1382J1270*
G01*
X61083Y62218D01*
G74*
D01*
G03X61072Y62230I1393J1258*
G01*
G74*
D01*
G03X61083Y62242I1382J1270*
G01*
X62230Y62242D01*
G74*
D01*
G03X63121Y62611I0J1258*
G01*
X12823Y64782D02*
G74*
D01*
G02X12812Y64770I1393J1258*
G01*
G74*
D01*
G02X12823Y64758I1382J1270*
G01*
X13449Y64758D01*
X13473Y64782D01*
X12823Y64782D01*
X20197Y64758D02*
G74*
D01*
G02X20208Y64770I1393J1258*
G01*
G74*
D01*
G02X20197Y64782I1382J1270*
G01*
X19571Y64782D01*
X19547Y64758D01*
X20197Y64758D01*
X32130Y64390D02*
X31738Y63997D01*
X31738Y71869D01*
X32271Y72402D01*
X32897Y72402D01*
G74*
D01*
G03X32908Y72390I1393J1258*
G01*
G75*
D01*
G03X32908Y69850I1382J-1270*
G01*
G75*
D01*
G03X32908Y67310I1382J-1270*
G01*
G75*
D01*
G03X32908Y64770I1382J-1270*
G01*
G74*
D01*
G03X32891Y64751I1382J1270*
G01*
G74*
D01*
G03X32130Y64390I129J1251*
G01*
X61083Y64758D02*
G74*
D01*
G03X61072Y64770I1393J1258*
G01*
G74*
D01*
G03X61083Y64782I1382J1270*
G01*
X61733Y64782D01*
X61709Y64758D01*
X61083Y64758D01*
X10048Y69850D02*
G74*
D01*
G02X10037Y69862I1382J1270*
G01*
X9411Y69862D01*
X6973Y67424D01*
X6973Y67172D01*
X9270Y69470D01*
G74*
D01*
G02X9737Y69765I890J890*
G01*
G74*
D01*
G02X10031Y69831I423J1185*
G01*
G74*
D01*
G02X10048Y69850I1399J1251*
G01*
X12823Y67298D02*
X13449Y67298D01*
X18160Y72010D01*
G75*
D01*
G02X19051Y72378I890J-890*
G01*
X20197Y72378D01*
G74*
D01*
G02X20208Y72390I1393J1258*
G01*
G74*
D01*
G02X20197Y72402I1382J1270*
G01*
X12823Y72402D01*
G74*
D01*
G02X12812Y72390I1393J1258*
G01*
G75*
D01*
G02X12812Y69850I-1382J-1270*
G01*
G75*
D01*
G02X12812Y67310I-1382J-1270*
G01*
G74*
D01*
G02X12823Y67298I1382J1270*
G01*
X20197Y67298D02*
G74*
D01*
G02X20208Y67310I1393J1258*
G01*
G74*
D01*
G02X20197Y67322I1382J1270*
G01*
X19571Y67322D01*
X19547Y67298D01*
X20197Y67298D01*
X61083Y67322D02*
X61733Y67322D01*
X61709Y67298D01*
X61083Y67298D01*
G74*
D01*
G03X61072Y67310I1393J1258*
G01*
G74*
D01*
G03X61083Y67322I1382J1270*
G01*
X20197Y69838D02*
G74*
D01*
G02X20208Y69850I1393J1258*
G01*
G74*
D01*
G02X20197Y69862I1382J1270*
G01*
X19571Y69862D01*
X19547Y69838D01*
X20197Y69838D01*
X61072Y69850D02*
G74*
D01*
G03X61083Y69862I1382J1270*
G01*
X61733Y69862D01*
X61709Y69838D01*
X61083Y69838D01*
G74*
D01*
G03X61072Y69850I1393J1258*
G01*
X68457Y69838D02*
X67807Y69838D01*
X67831Y69862D01*
X68457Y69862D01*
G74*
D01*
G03X68468Y69850I1393J1258*
G01*
G74*
D01*
G03X68457Y69838I1382J1270*
G01*
X68457Y72402D02*
G74*
D01*
G03X68468Y72390I1393J1258*
G01*
G74*
D01*
G03X68457Y72378I1382J1270*
G01*
X67807Y72378D01*
X67831Y72402D01*
X68457Y72402D01*
X68457Y74942D02*
G74*
D01*
G03X68468Y74930I1393J1258*
G01*
G74*
D01*
G03X68457Y74918I1382J1270*
G01*
X67807Y74918D01*
X67831Y74942D01*
X68457Y74942D01*
G54D12*
X49530Y7620D02*
X50800Y6350D01*
X53975Y6350D01*
X55245Y7620D02*
X53975Y6350D01*
X49530Y8890D02*
X49530Y7620D01*
X55245Y14605D02*
X55245Y7620D01*
X34290Y12700D02*
X34290Y11430D01*
X39370Y13335D02*
X39370Y11430D01*
X41910Y13335D02*
X41910Y11430D01*
X44450Y11430D02*
X44450Y15240D01*
X13010Y16820D02*
X13010Y12700D01*
X16510Y12700D02*
X16510Y17780D01*
X44450Y15240D02*
X46990Y17780D01*
X56515Y15875D02*
X55245Y14605D01*
X72390Y15875D02*
X56515Y15875D01*
X74295Y17780D02*
X72390Y15875D01*
X19050Y22860D02*
X13010Y16820D01*
X16510Y17780D02*
X19050Y20320D01*
X26440Y79361D02*
X26440Y16740D01*
X28575Y78740D02*
X28575Y17145D01*
X30480Y72390D02*
X30480Y17780D01*
X71120Y17780D02*
X72390Y19050D01*
X74295Y47625D02*
X74295Y17780D01*
X11430Y20320D02*
X13970Y20320D01*
X19050Y25400D01*
X19050Y20320D02*
X21590Y20320D01*
X31980Y18820D02*
X31980Y24360D01*
X59690Y20320D02*
X69850Y20320D01*
X72390Y19050D02*
X72390Y26670D01*
X48260Y22860D02*
X49530Y21590D01*
X11430Y22860D02*
X13970Y22860D01*
X19050Y27940D01*
X21590Y22860D02*
X19050Y22860D01*
X33020Y25400D02*
X31980Y24360D01*
X36830Y22860D02*
X34290Y22860D01*
X39370Y25400D02*
X36830Y22860D01*
X41910Y30480D02*
X41910Y24130D01*
X46990Y22860D02*
X48260Y22860D01*
X59690Y22860D02*
X69850Y22860D01*
X11430Y25400D02*
X13970Y25400D01*
X19050Y30480D01*
X19050Y25400D02*
X21590Y25400D01*
X34290Y25400D02*
X33020Y25400D01*
X39370Y31750D02*
X39370Y25400D01*
X46990Y27940D02*
X46990Y25400D01*
X59690Y25400D02*
X62230Y25400D01*
X67310Y30480D01*
X11430Y27940D02*
X13970Y27940D01*
X19050Y33020D01*
X19050Y27940D02*
X21590Y27940D01*
X59690Y27940D02*
X62230Y27940D01*
X67310Y33020D01*
X69850Y27940D02*
X71120Y27940D01*
X72390Y26670D01*
X19050Y30480D02*
X21590Y30480D01*
X34290Y33020D02*
X34290Y30480D01*
X43180Y35560D02*
X39370Y31750D01*
X44450Y33020D02*
X41910Y30480D01*
X59690Y30480D02*
X62230Y30480D01*
X67310Y35560D01*
X67310Y30480D02*
X69850Y30480D01*
X19050Y33020D02*
X21590Y33020D01*
X46990Y33020D02*
X44450Y33020D01*
X59690Y33020D02*
X62230Y33020D01*
X67310Y38100D01*
X67310Y33020D02*
X69850Y33020D01*
X11430Y35560D02*
X21590Y35560D01*
X34290Y35560D02*
X38735Y35560D01*
X45085Y41910D01*
X46990Y35560D02*
X43180Y35560D01*
X62230Y35560D02*
X59690Y35560D01*
X68270Y41600D02*
X62230Y35560D01*
X67310Y35560D02*
X69850Y35560D01*
X11430Y38100D02*
X21590Y38100D01*
X62230Y38100D02*
X59690Y38100D01*
X64770Y40640D02*
X62230Y38100D01*
X67310Y38100D02*
X69850Y38100D01*
X64770Y45720D02*
X64770Y40640D01*
X68270Y45720D02*
X68270Y41600D01*
X44450Y45720D02*
X47310Y45720D01*
X49210Y50800D02*
X49210Y45720D01*
X44450Y48260D02*
X47310Y48260D01*
X72390Y49530D02*
X74295Y47625D01*
X13010Y50800D02*
X13010Y54920D01*
X16510Y55880D02*
X16510Y50800D01*
X44450Y50800D02*
X47310Y50800D01*
X13010Y54920D02*
X19050Y60960D01*
X19050Y58420D02*
X16510Y55880D01*
X35560Y55880D02*
X33020Y55880D01*
X31980Y56920D01*
X41910Y62230D02*
X35560Y55880D01*
X50800Y55880D02*
X49530Y57150D01*
X71120Y55880D02*
X50800Y55880D01*
X76200Y60960D02*
X71120Y55880D01*
X31980Y56920D02*
X31980Y62460D01*
X49530Y57150D02*
X49530Y74930D01*
X11430Y58420D02*
X13970Y58420D01*
X19050Y63500D01*
X19050Y58420D02*
X21590Y58420D01*
X59690Y58420D02*
X69850Y58420D01*
X11430Y60960D02*
X13970Y60960D01*
X19050Y66040D01*
X19050Y60960D02*
X21590Y60960D01*
X36830Y60960D02*
X34290Y60960D01*
X39140Y63270D02*
X36830Y60960D01*
X41910Y68580D02*
X41910Y62230D01*
X59690Y60960D02*
X69850Y60960D01*
X76200Y86360D02*
X76200Y60960D01*
X11430Y63500D02*
X13970Y63500D01*
X19050Y68580D01*
X19050Y63500D02*
X21590Y63500D01*
X33020Y63500D02*
X31980Y62460D01*
X34290Y63500D02*
X33020Y63500D01*
X39140Y69620D02*
X39140Y63270D01*
X46990Y63500D02*
X46990Y66040D01*
X59690Y63500D02*
X62230Y63500D01*
X67310Y68580D01*
X69850Y63500D02*
X71535Y63500D01*
X74295Y66260D02*
X71535Y63500D01*
X11430Y66040D02*
X13970Y66040D01*
X19050Y71120D01*
X19050Y66040D02*
X21590Y66040D01*
X59690Y66040D02*
X62230Y66040D01*
X67310Y71120D01*
X69850Y66040D02*
X71120Y66040D01*
X72390Y67310D01*
X74295Y66260D02*
X74295Y85090D01*
X72390Y67310D02*
X72390Y83820D01*
X11430Y68580D02*
X10160Y68580D01*
X19050Y68580D02*
X21590Y68580D01*
X34290Y71120D02*
X34290Y68580D01*
X43180Y73660D02*
X39140Y69620D01*
X44450Y71120D02*
X41910Y68580D01*
X59690Y68580D02*
X62230Y68580D01*
X67310Y73660D01*
X67310Y68580D02*
X69850Y68580D01*
X11430Y71120D02*
X8890Y71120D01*
X19050Y71120D02*
X21590Y71120D01*
X31750Y73660D02*
X30480Y72390D01*
X46990Y71120D02*
X44450Y71120D01*
X59690Y71120D02*
X62230Y71120D01*
X67310Y76200D01*
X67310Y71120D02*
X69850Y71120D01*
X8890Y74930D02*
X10160Y73660D01*
X21590Y73660D01*
X34290Y73660D02*
X31750Y73660D01*
X46990Y73660D02*
X43180Y73660D01*
X62230Y73660D02*
X59690Y73660D01*
X68270Y79700D02*
X62230Y73660D01*
X67310Y73660D02*
X69850Y73660D01*
X8890Y78740D02*
X8890Y74930D01*
X11430Y76200D02*
X21590Y76200D01*
X48260Y76200D02*
X46990Y76200D01*
X49530Y74930D02*
X48260Y76200D01*
X62230Y76200D02*
X59690Y76200D01*
X64770Y78740D02*
X62230Y76200D01*
X67310Y76200D02*
X69850Y76200D01*
X10160Y80010D02*
X8890Y78740D01*
X20320Y80010D02*
X10160Y80010D01*
X21960Y81650D02*
X20320Y80010D01*
X35344Y88265D02*
X26440Y79361D01*
X36195Y86360D02*
X28575Y78740D01*
X64770Y78740D02*
X64770Y83820D01*
X68270Y79700D02*
X68270Y83820D01*
X21960Y81650D02*
X21960Y91175D01*
X72390Y83820D02*
X69850Y86360D01*
X36195Y86360D01*
X74295Y85090D02*
X71120Y88265D01*
X72390Y90170D02*
X76200Y86360D01*
X71120Y88265D02*
X35344Y88265D01*
X34290Y90170D02*
X72390Y90170D01*
X23495Y92710D02*
X21960Y91175D01*
X52705Y41910D02*
X60325Y49530D01*
X45085Y41910D02*
X52705Y41910D01*
X60325Y49530D02*
X72390Y49530D01*
X24765Y80645D02*
X34290Y90170D01*
X5715Y67945D02*
X5715Y8255D01*
X8890Y71120D02*
X5715Y67945D01*
X23495Y40640D02*
X24765Y41910D01*
X10795Y40640D02*
X23495Y40640D01*
X24765Y41910D02*
X24765Y80645D01*
X31750Y8890D02*
X31750Y7620D01*
X39370Y5715D02*
X39370Y8890D01*
X29210Y93980D02*
X29210Y108585D01*
X60960Y113030D02*
X60960Y111125D01*
X59690Y109855D02*
X60960Y111125D01*
X30480Y109855D02*
X59690Y109855D01*
X29210Y108585D02*
X30480Y109855D01*
X29210Y93980D02*
X27940Y92710D01*
X23495Y92710D02*
X27940Y92710D01*
X8890Y10160D02*
X8890Y38735D01*
X7390Y65810D02*
X7390Y9120D01*
X10160Y68580D02*
X7390Y65810D01*
X8890Y38735D02*
X10795Y40640D01*
X34290Y6985D02*
X34290Y8890D01*
X12700Y6350D02*
X30480Y6350D01*
X37005Y3350D02*
X39370Y5715D01*
X10620Y3350D02*
X37005Y3350D01*
X5715Y8255D02*
X10620Y3350D01*
X32155Y4850D02*
X34290Y6985D01*
X11660Y4850D02*
X32155Y4850D01*
X7390Y9120D02*
X11660Y4850D01*
X12700Y6350D02*
X8890Y10160D01*
X31750Y7620D02*
X30480Y6350D01*
X29543Y13637D02*
X33353Y13637D01*
X32663Y18137D02*
X31980Y18820D01*
X41910Y24130D02*
X35917Y18137D01*
X32663Y18137D01*
X38608Y16637D02*
X41910Y13335D01*
X31623Y16637D02*
X38608Y16637D01*
X30480Y17780D02*
X31623Y16637D01*
X37568Y15137D02*
X39370Y13335D01*
X28575Y17145D02*
X30583Y15137D01*
X37568Y15137D01*
X26440Y16740D02*
X29543Y13637D01*
X33353Y13637D02*
X34290Y12700D01*
X49530Y17145D02*
X46990Y14605D01*
X49530Y15024D02*
X52286Y17780D01*
X49530Y15024D02*
X49530Y11430D01*
X52286Y17780D02*
X71120Y17780D01*
X49530Y21590D02*
X49530Y17145D01*
X46990Y14605D02*
X46990Y11430D01*
G54D13*
X37008Y104081D02*
X37719Y104081D01*
X38074Y104438D01*
X38074Y105509D01*
X37719Y105866D01*
X37008Y105866D01*
X37186Y105866D02*
X37186Y104081D01*
X38786Y105331D02*
X39319Y105331D01*
X39497Y105152D01*
X39497Y104259D01*
X39319Y104081D01*
X38786Y104081D01*
X38608Y104259D01*
X38608Y104616D01*
X38786Y104795D01*
X39497Y104795D01*
X39497Y104259D02*
X39674Y104081D01*
X40386Y105866D02*
X40386Y104438D01*
X40741Y104081D01*
X41986Y105866D02*
X41986Y104438D01*
X42341Y104081D01*
X43586Y105331D02*
X44119Y105331D01*
X44297Y105152D01*
X44297Y104259D01*
X44119Y104081D01*
X43586Y104081D01*
X43408Y104259D01*
X43408Y104616D01*
X43586Y104795D01*
X44297Y104795D01*
X44297Y104259D02*
X44474Y104081D01*
X45008Y104438D02*
X45363Y104081D01*
X45719Y104081D01*
X46074Y104438D01*
X45008Y104974D01*
X45363Y105331D01*
X45719Y105331D01*
X46074Y104974D01*
X49274Y104438D02*
X48919Y104081D01*
X48563Y104081D01*
X48208Y104438D01*
X48208Y105509D01*
X48563Y105866D01*
X48919Y105866D01*
X49274Y105509D01*
X49986Y105331D02*
X50519Y105331D01*
X50697Y105152D01*
X50697Y104259D01*
X50519Y104081D01*
X49986Y104081D01*
X49808Y104259D01*
X49808Y104616D01*
X49986Y104795D01*
X50697Y104795D01*
X50697Y104259D02*
X50874Y104081D01*
X51408Y104795D02*
X51941Y105331D01*
X52119Y105331D01*
X52474Y104974D01*
X51408Y104081D02*
X51408Y105331D01*
X53008Y104795D02*
X53541Y105331D01*
X53719Y105331D01*
X54074Y104974D01*
X53008Y104081D02*
X53008Y105331D01*
X55141Y104081D02*
X55141Y105152D01*
X55141Y105509D02*
X55141Y105688D01*
X57274Y104438D02*
X56919Y104081D01*
X56563Y104081D01*
X56208Y104438D01*
X56208Y104974D01*
X56563Y105331D01*
X56919Y105331D01*
X57274Y104974D01*
X57097Y104795D01*
X56208Y104795D01*
X57808Y104795D02*
X58341Y105331D01*
X58519Y105331D01*
X58874Y104974D01*
X57808Y104081D02*
X57808Y105331D01*
X61008Y104081D02*
X61008Y105866D01*
X61719Y105866D01*
X62074Y105509D01*
X62074Y105331D01*
X61719Y104974D01*
X61008Y104974D01*
X63674Y104438D02*
X63319Y104081D01*
X62963Y104081D01*
X62608Y104438D01*
X62608Y105509D01*
X62963Y105866D01*
X63319Y105866D01*
X63674Y105509D01*
X64208Y104081D02*
X64919Y104081D01*
X65274Y104438D01*
X65274Y104616D01*
X64919Y104974D01*
X65274Y105331D01*
X65274Y105509D01*
X64919Y105866D01*
X64386Y105866D01*
X64208Y105866D01*
X64386Y104974D02*
X64919Y104974D01*
X64386Y105866D02*
X64386Y104081D01*
G54D14*
X-254Y-254D02*
X-254Y11989D01*
X-254Y-254D02*
X7925Y-254D01*
X81534Y-254D02*
X73355Y-254D01*
X81534Y-254D02*
X81534Y11989D01*
X81534Y122174D02*
X81534Y109931D01*
X81534Y122174D02*
X73355Y122174D01*
X-254Y122174D02*
X7925Y122174D01*
X-254Y122174D02*
X-254Y109931D01*
X-5254Y-254D02*
X-15254Y-254D01*
X-10254Y-5254D02*
X-10254Y4746D01*
X-14004Y-254D02*
G75*
D01*
G02X-14004Y-254I3750J0*
G01*
X86534Y-254D02*
X96534Y-254D01*
X91534Y-5254D02*
X91534Y4746D01*
X87784Y-254D02*
G75*
D01*
G02X87784Y-254I3750J0*
G01*
X90284Y-254D02*
G75*
D01*
G02X90284Y-254I1250J0*
G01*
X-5254Y122174D02*
X-15254Y122174D01*
X-10254Y117174D02*
X-10254Y127174D01*
X-14004Y122174D02*
G75*
D01*
G02X-14004Y122174I3750J0*
G01*
X-12754Y122174D02*
G75*
D01*
G02X-12754Y122174I2500J0*
G01*
X-11504Y122174D02*
G75*
D01*
G02X-11504Y122174I1250J0*
G01*
G54D15*
X36830Y45720D03*
X36830Y48260D03*
X44450Y48260D03*
X36830Y50800D03*
X44450Y50800D03*
X68270Y83820D03*
X68270Y45720D03*
X25400Y87630D03*
X25400Y90170D03*
X25400Y92710D03*
X25400Y95250D03*
X25400Y97790D03*
X25400Y100330D03*
X25400Y102870D03*
X25400Y113030D03*
X25400Y110490D03*
X25400Y107950D03*
X25400Y105410D03*
X25400Y115570D03*
X55880Y113030D03*
X58420Y113030D03*
X60960Y113030D03*
X63500Y113030D03*
X35560Y97790D03*
X38100Y97790D03*
X40640Y97790D03*
X43180Y97790D03*
X45720Y97790D03*
X48260Y97790D03*
X50800Y97790D03*
X53340Y97790D03*
X55880Y97790D03*
X58420Y97790D03*
X60960Y97790D03*
X63500Y97790D03*
X35560Y113030D03*
X38100Y113030D03*
X40640Y113030D03*
X43180Y113030D03*
X45720Y113030D03*
X48260Y113030D03*
X50800Y113030D03*
X53340Y113030D03*
X29210Y8890D03*
X31750Y8890D03*
X34290Y8890D03*
X36830Y8890D03*
X39370Y8890D03*
X41910Y8890D03*
X44450Y8890D03*
X46990Y8890D03*
X49530Y8890D03*
X52070Y8890D03*
X29210Y11430D03*
X31750Y11430D03*
X34290Y11430D03*
X36830Y11430D03*
X39370Y11430D03*
X41910Y11430D03*
X44450Y11430D03*
X46990Y11430D03*
X49530Y11430D03*
X52070Y11430D03*
X69850Y20320D03*
X69850Y22860D03*
X69850Y25400D03*
X69850Y27940D03*
X69850Y30480D03*
X69850Y33020D03*
X69850Y35560D03*
X69850Y38100D03*
X11430Y20320D03*
X11430Y22860D03*
X11430Y25400D03*
X11430Y27940D03*
X11430Y30480D03*
X11430Y33020D03*
X11430Y35560D03*
X11430Y38100D03*
X11430Y63500D03*
X11430Y76200D03*
X11430Y73660D03*
X11430Y66040D03*
X11430Y60960D03*
X11430Y58420D03*
X11430Y68580D03*
X11430Y71120D03*
X69850Y58420D03*
X69850Y73660D03*
X69850Y76200D03*
X69850Y66040D03*
X69850Y63500D03*
X69850Y71120D03*
X69850Y68580D03*
X69850Y60960D03*
X60960Y11430D03*
X46990Y58420D03*
X59690Y58420D03*
X46990Y60960D03*
X59690Y60960D03*
X46990Y63500D03*
X59690Y63500D03*
X46990Y66040D03*
X59690Y66040D03*
X46990Y68580D03*
X59690Y68580D03*
X46990Y71120D03*
X59690Y71120D03*
X46990Y73660D03*
X59690Y73660D03*
X46990Y76200D03*
X59690Y76200D03*
X21590Y58420D03*
X34290Y58420D03*
X21590Y60960D03*
X34290Y60960D03*
X21590Y63500D03*
X34290Y63500D03*
X21590Y66040D03*
X34290Y66040D03*
X21590Y68580D03*
X34290Y68580D03*
X21590Y71120D03*
X34290Y71120D03*
X21590Y73660D03*
X34290Y73660D03*
X21590Y76200D03*
X34290Y76200D03*
X46990Y20320D03*
X59690Y20320D03*
X46990Y22860D03*
X59690Y22860D03*
X46990Y25400D03*
X59690Y25400D03*
X46990Y27940D03*
X59690Y27940D03*
X46990Y30480D03*
X59690Y30480D03*
X46990Y33020D03*
X59690Y33020D03*
X46990Y35560D03*
X59690Y35560D03*
X46990Y38100D03*
X59690Y38100D03*
X21590Y20320D03*
X34290Y20320D03*
X21590Y22860D03*
X34290Y22860D03*
X21590Y25400D03*
X34290Y25400D03*
X21590Y27940D03*
X34290Y27940D03*
X21590Y30480D03*
X34290Y30480D03*
X21590Y33020D03*
X34290Y33020D03*
X21590Y35560D03*
X34290Y35560D03*
X21590Y38100D03*
X34290Y38100D03*
X13010Y50800D03*
X13010Y12700D03*
X13970Y104450D03*
G54D16*
X44450Y45720D03*
G54D17*
X43874Y45144D02*
X45026Y45144D01*
X45026Y46296D01*
X43874Y46296D01*
X43874Y45144D01*D02*
G54D18*
X47310Y45720D03*
X49210Y45720D03*
X47310Y48260D03*
X49210Y48260D03*
X47310Y50800D03*
X49210Y50800D03*
G54D19*
X21960Y83820D03*
X23760Y83820D03*
G54D20*
X64770Y83820D03*
X64770Y45720D03*
X16510Y50800D03*
X16510Y12700D03*
X13970Y107950D03*
G54D21*
X10160Y87000D03*
X10160Y96520D03*
G54D22*
X46990Y17780D03*
G54D23*
X60960Y8890D03*
G54D24*
X60458Y8388D02*
X61462Y8388D01*
X61462Y9392D01*
X60458Y9392D01*
X60458Y8388D01*D02*

M02*
