M48
INCH,TZ
VER,1
FMAT,2
DETECT,ON
ATC,ON
T1C0.0350
T2C0.0333
T3C0.0354
T4C0.1378
T5C0.0787
T6C0.0394
T7C0.0335
T8C0.0392
%
T1
X14500Y18000
Y19000
X17500
X14500Y20000
X17500
X24000Y4500
T2
X17500Y18000
T3
X26878Y33000
X25500
X26878Y18000
X25500
X6500Y20000
X5122
X6500Y5000
X5122
X5500Y41122
Y42500
T4
X27750Y3250
X2750Y44750
T5
X4000Y34252
Y38000
T6
X10000Y34500
Y35500
Y36500
Y37500
Y38500
Y39500
Y40500
Y44500
Y43500
Y42500
Y41500
Y45500
X22000Y44500
X23000
X24000
X25000
X14000Y38500
X15000
X16000
X17000
X18000
X19000
X20000
X21000
X22000
X23000
X24000
X25000
X14000Y44500
X15000
X16000
X17000
X18000
X19000
X20000
X21000
X11500Y3500
X12500
X13500
X14500
X15500
X16500
X17500
X18500
X19500
X20500
X11500Y4500
X12500
X13500
X14500
X15500
X16500
X17500
X18500
X19500
X20500
X27500Y8000
Y9000
Y10000
Y11000
Y12000
Y13000
Y14000
Y15000
X4500Y8000
Y9000
Y10000
Y11000
Y12000
Y13000
Y14000
Y15000
Y25000
Y30000
Y29000
Y26000
Y24000
Y23000
Y27000
Y28000
X27500Y23000
Y29000
Y30000
Y26000
Y25000
Y28000
Y27000
Y24000
X18500Y23000
X23500
X18500Y24000
X23500
X18500Y25000
X23500
X18500Y26000
X23500
X18500Y27000
X23500
X18500Y28000
X23500
X18500Y29000
X23500
X18500Y30000
X23500
X8500Y23000
X13500
X8500Y24000
X13500
X8500Y25000
X13500
X8500Y26000
X13500
X8500Y27000
X13500
X8500Y28000
X13500
X8500Y29000
X13500
X8500Y30000
X13500
X18500Y8000
X23500
X18500Y9000
X23500
X18500Y10000
X23500
X18500Y11000
X23500
X18500Y12000
X23500
X18500Y13000
X23500
X18500Y14000
X23500
X18500Y15000
X23500
X8500Y8000
X13500
X8500Y9000
X13500
X8500Y10000
X13500
X8500Y11000
X13500
X8500Y12000
X13500
X8500Y13000
X13500
X8500Y14000
X13500
X8500Y15000
X13500
T7
X18500Y7000
T8
X24000Y3500
M30
