G04 Generated by Ultiboard 14.1 *
%FSLAX33Y33*%
%MOMM*%

%ADD10C,0.001*%
%ADD11C,0.203*%
%ADD12C,0.156*%
%ADD13C,0.200*%
%ADD14C,0.250*%
%ADD15C,0.001*%
%ADD16C,0.169*%
%ADD17C,0.167*%
%ADD18C,0.127*%


G04 ColorRGB FFFF00 for the following layer *
%LNSilkscreen Top*%
%LPD*%
G54D10*
G54D11*
X34441Y47131D02*
X34592Y47413D01*
X34592Y47696D01*
X34441Y47978D01*
X33988Y47131D01*
X33836Y47413D01*
X33836Y47696D01*
X33988Y47978D01*
X33988Y48542D02*
X33836Y48824D01*
X34592Y48824D01*
X34592Y48401D02*
X34592Y49248D01*
X45720Y52705D02*
X45720Y43815D01*
X42291Y47879D02*
X42291Y48641D01*
X40640Y47879D02*
X40640Y48641D01*
X38735Y48641D02*
X38735Y47879D01*
X38989Y48387D02*
X40386Y48387D01*
X43392Y48472D02*
X43392Y48048D01*
X42968Y48260D02*
X42968Y48278D01*
X42965Y48297D01*
X42961Y48315D01*
X42956Y48332D01*
X42949Y48349D01*
X42940Y48366D01*
X42930Y48381D01*
X42919Y48396D01*
X42906Y48410D01*
X42893Y48422D01*
X42878Y48433D01*
X42863Y48443D01*
X42846Y48452D01*
X42829Y48459D01*
X42811Y48464D01*
X42793Y48468D01*
X42775Y48471D01*
X42757Y48472D01*
X42738Y48471D01*
X42720Y48468D01*
X42702Y48464D01*
X42684Y48459D01*
X42667Y48452D01*
X42651Y48443D01*
X42635Y48433D01*
X42621Y48422D01*
X42607Y48410D01*
X42595Y48396D01*
X42583Y48381D01*
X42573Y48366D01*
X42565Y48349D01*
X42558Y48332D01*
X42552Y48315D01*
X42548Y48297D01*
X42546Y48278D01*
X42545Y48260D01*
X42546Y48242D01*
X42548Y48223D01*
X42552Y48205D01*
X42558Y48188D01*
X42565Y48171D01*
X42573Y48154D01*
X42583Y48139D01*
X42595Y48124D01*
X42607Y48110D01*
X42621Y48098D01*
X42635Y48087D01*
X42651Y48077D01*
X42667Y48068D01*
X42684Y48061D01*
X42702Y48056D01*
X42720Y48052D01*
X42738Y48049D01*
X42757Y48048D01*
X40513Y48514D02*
X40513Y48133D01*
X40386Y48387D02*
X40386Y48260D01*
X38862Y48006D02*
X38862Y48514D01*
X38989Y48133D02*
X38989Y48387D01*
X35560Y43815D02*
X35560Y52705D01*
X45720Y43815D02*
X35560Y43815D01*
X43392Y45720D02*
X42545Y45720D01*
X42968Y48260D02*
X42969Y48242D01*
X42972Y48223D01*
X42976Y48205D01*
X42981Y48188D01*
X42988Y48171D01*
X42997Y48154D01*
X43007Y48139D01*
X43018Y48124D01*
X43030Y48110D01*
X43044Y48098D01*
X43059Y48087D01*
X43074Y48077D01*
X43091Y48068D01*
X43108Y48061D01*
X43125Y48056D01*
X43143Y48052D01*
X43162Y48049D01*
X43180Y48048D01*
X43392Y48048D02*
X43180Y48048D01*
X39158Y44027D02*
X39177Y44027D01*
X39195Y44030D01*
X39213Y44034D01*
X39231Y44039D01*
X39248Y44046D01*
X39264Y44055D01*
X39280Y44065D01*
X39294Y44076D01*
X39308Y44089D01*
X39320Y44102D01*
X39332Y44117D01*
X39342Y44132D01*
X39350Y44149D01*
X39357Y44166D01*
X39363Y44184D01*
X39367Y44202D01*
X39369Y44220D01*
X39370Y44238D01*
X39369Y44257D01*
X39367Y44275D01*
X39363Y44293D01*
X39357Y44311D01*
X39350Y44328D01*
X39342Y44344D01*
X39332Y44360D01*
X39320Y44374D01*
X39308Y44388D01*
X39294Y44400D01*
X39280Y44412D01*
X39264Y44422D01*
X39248Y44430D01*
X39231Y44437D01*
X39213Y44443D01*
X39195Y44447D01*
X39177Y44449D01*
X39158Y44450D01*
X38735Y44450D02*
X38717Y44449D01*
X38698Y44447D01*
X38680Y44443D01*
X38663Y44437D01*
X38646Y44430D01*
X38629Y44422D01*
X38614Y44412D01*
X38599Y44400D01*
X38585Y44388D01*
X38573Y44374D01*
X38562Y44360D01*
X38552Y44344D01*
X38543Y44328D01*
X38536Y44311D01*
X38531Y44293D01*
X38527Y44275D01*
X38524Y44257D01*
X38523Y44238D01*
X38524Y44220D01*
X38527Y44202D01*
X38531Y44184D01*
X38536Y44166D01*
X38543Y44149D01*
X38552Y44132D01*
X38562Y44117D01*
X38573Y44102D01*
X38585Y44089D01*
X38599Y44076D01*
X38614Y44065D01*
X38629Y44055D01*
X38646Y44046D01*
X38663Y44039D01*
X38680Y44034D01*
X38698Y44030D01*
X38717Y44027D01*
X38735Y44027D01*
X39158Y44450D02*
X38735Y44450D01*
X38735Y44027D02*
X39158Y44027D01*
X38735Y47879D02*
X42291Y47879D01*
X38735Y45339D02*
X42291Y45339D01*
X42291Y46101D02*
X38735Y46101D01*
X38989Y45847D02*
X40386Y45847D01*
X40513Y45466D02*
X38862Y45466D01*
X40513Y45593D02*
X38989Y45593D01*
X40386Y45720D02*
X39116Y45720D01*
X38862Y45974D02*
X40513Y45974D01*
X40513Y48133D02*
X38989Y48133D01*
X40513Y48006D02*
X38862Y48006D01*
X40386Y48260D02*
X39116Y48260D01*
X39370Y45085D02*
X38523Y44662D01*
X38523Y45085D02*
X39370Y45085D01*
X38523Y44662D02*
X39370Y44662D01*
X38989Y45593D02*
X38989Y45847D01*
X42545Y45720D02*
X42757Y45508D01*
X42291Y45339D02*
X42291Y46101D01*
X40640Y45339D02*
X40640Y46101D01*
X40513Y45974D02*
X40513Y45593D01*
X40386Y45847D02*
X40386Y45720D01*
X38735Y46101D02*
X38735Y45339D01*
X38862Y45466D02*
X38862Y45974D01*
X35560Y52705D02*
X45720Y52705D01*
X43180Y50588D02*
X43198Y50589D01*
X43217Y50592D01*
X43235Y50596D01*
X43252Y50601D01*
X43269Y50608D01*
X43286Y50617D01*
X43301Y50627D01*
X43316Y50638D01*
X43330Y50650D01*
X43342Y50664D01*
X43353Y50679D01*
X43363Y50694D01*
X43372Y50711D01*
X43379Y50728D01*
X43384Y50745D01*
X43388Y50763D01*
X43391Y50782D01*
X43392Y50800D01*
X43391Y50818D01*
X43388Y50837D01*
X43384Y50855D01*
X43379Y50872D01*
X43372Y50889D01*
X43363Y50906D01*
X43353Y50921D01*
X43342Y50936D01*
X43330Y50950D01*
X43316Y50962D01*
X43301Y50973D01*
X43286Y50983D01*
X43269Y50992D01*
X43252Y50999D01*
X43235Y51004D01*
X43217Y51008D01*
X43198Y51011D01*
X43180Y51012D01*
X43162Y51011D01*
X43143Y51008D01*
X43125Y51004D01*
X43108Y50999D01*
X43091Y50992D01*
X43074Y50983D01*
X43059Y50973D01*
X43044Y50962D01*
X43030Y50950D01*
X43018Y50936D01*
X43007Y50921D01*
X42997Y50906D01*
X42988Y50889D01*
X42981Y50872D01*
X42976Y50855D01*
X42972Y50837D01*
X42969Y50818D01*
X42968Y50800D01*
X42968Y50818D01*
X42965Y50837D01*
X42961Y50855D01*
X42956Y50872D01*
X42949Y50889D01*
X42940Y50906D01*
X42930Y50921D01*
X42919Y50936D01*
X42906Y50950D01*
X42893Y50962D01*
X42878Y50973D01*
X42863Y50983D01*
X42846Y50992D01*
X42829Y50999D01*
X42811Y51004D01*
X42793Y51008D01*
X42775Y51011D01*
X42757Y51012D01*
X42738Y51011D01*
X42720Y51008D01*
X42702Y51004D01*
X42684Y50999D01*
X42667Y50992D01*
X42651Y50983D01*
X42635Y50973D01*
X42621Y50962D01*
X42607Y50950D01*
X42595Y50936D01*
X42583Y50921D01*
X42573Y50906D01*
X42565Y50889D01*
X42558Y50872D01*
X42552Y50855D01*
X42548Y50837D01*
X42546Y50818D01*
X42545Y50800D01*
X42546Y50782D01*
X42548Y50763D01*
X42552Y50745D01*
X42558Y50728D01*
X42565Y50711D01*
X42573Y50694D01*
X42583Y50679D01*
X42595Y50664D01*
X42607Y50650D01*
X42621Y50638D01*
X42635Y50627D01*
X42651Y50617D01*
X42667Y50608D01*
X42684Y50601D01*
X42702Y50596D01*
X42720Y50592D01*
X42738Y50589D01*
X42757Y50588D01*
X42291Y48641D02*
X38735Y48641D01*
X38862Y48514D02*
X40513Y48514D01*
X38735Y50419D02*
X42291Y50419D01*
X42291Y51181D02*
X38735Y51181D01*
X40513Y50673D02*
X38989Y50673D01*
X40513Y50546D02*
X38862Y50546D01*
X38862Y51054D02*
X40513Y51054D01*
X38989Y50927D02*
X40386Y50927D01*
X40386Y50800D02*
X39116Y50800D01*
X38989Y50673D02*
X38989Y50927D01*
X42291Y50419D02*
X42291Y51181D01*
X40640Y50419D02*
X40640Y51181D01*
X40513Y51054D02*
X40513Y50673D01*
X40386Y50927D02*
X40386Y50800D01*
X38862Y50546D02*
X38862Y51054D01*
X38735Y51181D02*
X38735Y50419D01*
X61022Y83555D02*
X60823Y83355D01*
X60624Y83355D01*
X60425Y83555D01*
X60425Y84155D01*
X60624Y84355D01*
X60823Y84355D01*
X61022Y84155D01*
X61818Y84355D02*
X61520Y84355D01*
X61321Y84155D01*
X61321Y83755D01*
X61321Y83555D01*
X61520Y83355D01*
X61719Y83355D01*
X61918Y83555D01*
X61918Y83755D01*
X61719Y83955D01*
X61520Y83955D01*
X61321Y83755D01*
X62570Y83920D02*
G75*
D01*
G02X62570Y83920I4000J0*
G01*
X60387Y45455D02*
X60188Y45255D01*
X59989Y45255D01*
X59790Y45455D01*
X59790Y46055D01*
X59989Y46255D01*
X60188Y46255D01*
X60387Y46055D01*
X61283Y45655D02*
X60686Y45655D01*
X61183Y46255D01*
X61183Y45255D01*
X61084Y45255D02*
X61283Y45255D01*
X62570Y45820D02*
G75*
D01*
G02X62570Y45820I4000J0*
G01*
X63545Y9031D02*
X63697Y9313D01*
X63697Y9596D01*
X63545Y9878D01*
X62941Y9878D01*
X63092Y10442D02*
X62941Y10724D01*
X63697Y10724D01*
X63697Y10301D02*
X63697Y11148D01*
X62230Y12700D02*
X62230Y7620D01*
X59690Y9525D02*
X59690Y7620D01*
X62230Y7620D01*
X59690Y12700D02*
X59690Y10372D01*
X59690Y9948D02*
X60537Y9948D01*
X59902Y9737D02*
X59690Y9948D01*
X59690Y12700D02*
X62230Y12700D01*
X20495Y50665D02*
X20296Y50465D01*
X20097Y50465D01*
X19898Y50665D01*
X19898Y51265D01*
X20097Y51465D01*
X20296Y51465D01*
X20495Y51265D01*
X21391Y51465D02*
X20794Y51465D01*
X20794Y51065D01*
X21192Y51065D01*
X21391Y50865D01*
X21391Y50665D01*
X21192Y50465D01*
X20794Y50465D01*
X10710Y50700D02*
G75*
D01*
G02X10710Y50700I4000J0*
G01*
X20382Y12435D02*
X20183Y12235D01*
X19984Y12235D01*
X19785Y12435D01*
X19785Y13035D01*
X19984Y13235D01*
X20183Y13235D01*
X20382Y13035D01*
X20780Y13135D02*
X20880Y13235D01*
X21079Y13235D01*
X21278Y13035D01*
X21278Y12835D01*
X21178Y12735D01*
X21278Y12635D01*
X21278Y12435D01*
X21079Y12235D01*
X20880Y12235D01*
X20780Y12335D01*
X20880Y12735D02*
X21178Y12735D01*
X10710Y12600D02*
G75*
D01*
G02X10710Y12600I4000J0*
G01*
X8317Y105780D02*
X8118Y105580D01*
X7919Y105580D01*
X7720Y105780D01*
X7720Y106380D01*
X7919Y106580D01*
X8118Y106580D01*
X8317Y106380D01*
X8715Y106380D02*
X8914Y106580D01*
X8914Y105580D01*
X8616Y105580D02*
X9213Y105580D01*
X10070Y106150D02*
G75*
D01*
G02X10070Y106150I4000J0*
G01*
G54D12*
X50900Y45890D02*
X50900Y46890D01*
X51298Y46890D01*
X51497Y46690D01*
X51497Y46590D01*
X51298Y46390D01*
X50900Y46390D01*
X50999Y46390D02*
X51497Y45890D01*
X51895Y46690D02*
X52094Y46890D01*
X52094Y45890D01*
X51796Y45890D02*
X52393Y45890D01*
X50900Y48430D02*
X50900Y49430D01*
X51298Y49430D01*
X51497Y49230D01*
X51497Y49130D01*
X51298Y48930D01*
X50900Y48930D01*
X50999Y48930D02*
X51497Y48430D01*
X51796Y49230D02*
X51995Y49430D01*
X52194Y49430D01*
X52393Y49230D01*
X52393Y49130D01*
X51796Y48430D01*
X52393Y48430D01*
X52393Y48530D01*
X50900Y50970D02*
X50900Y51970D01*
X51298Y51970D01*
X51497Y51770D01*
X51497Y51670D01*
X51298Y51470D01*
X50900Y51470D01*
X50999Y51470D02*
X51497Y50970D01*
X51895Y51870D02*
X51995Y51970D01*
X52194Y51970D01*
X52393Y51770D01*
X52393Y51570D01*
X52293Y51470D01*
X52393Y51370D01*
X52393Y51170D01*
X52194Y50970D01*
X51995Y50970D01*
X51895Y51070D01*
X51995Y51470D02*
X52293Y51470D01*
X22661Y81820D02*
X22462Y81620D01*
X22263Y81620D01*
X22064Y81820D01*
X22064Y82420D01*
X22263Y82620D01*
X22462Y82620D01*
X22661Y82420D01*
X22960Y82420D02*
X23159Y82620D01*
X23358Y82620D01*
X23557Y82420D01*
X23557Y82320D01*
X22960Y81620D01*
X23557Y81620D01*
X23557Y81720D01*
X54075Y5615D02*
X54075Y4815D01*
X54274Y4615D01*
X54473Y4615D01*
X54672Y4815D01*
X54672Y5615D01*
X55070Y5415D02*
X55269Y5615D01*
X55269Y4615D01*
X54971Y4615D02*
X55568Y4615D01*
X55867Y5415D02*
X56066Y5615D01*
X56265Y5615D01*
X56464Y5415D01*
X56464Y5315D01*
X55867Y4615D01*
X56464Y4615D01*
X56464Y4715D01*
X69315Y15975D02*
X70115Y15975D01*
X70315Y16174D01*
X70315Y16373D01*
X70115Y16572D01*
X69315Y16572D01*
X69315Y17368D02*
X69315Y17070D01*
X69515Y16871D01*
X69915Y16871D01*
X70115Y16871D01*
X70315Y17070D01*
X70315Y17269D01*
X70115Y17468D01*
X69915Y17468D01*
X69715Y17269D01*
X69715Y17070D01*
X69915Y16871D01*
X77300Y19785D02*
X76300Y19785D01*
X76800Y20083D01*
X76300Y20382D01*
X77300Y20382D01*
X77100Y20681D02*
X77300Y20880D01*
X77300Y21079D01*
X77100Y21278D01*
X76800Y21278D01*
X76600Y21079D01*
X76600Y20880D01*
X76800Y20681D01*
X77100Y20681D01*
X77200Y22074D02*
X77300Y21975D01*
X77200Y21875D01*
X76300Y21875D01*
X76600Y21676D02*
X76600Y22074D01*
X77100Y22473D02*
X77300Y22672D01*
X77300Y22871D01*
X77100Y23070D01*
X76800Y23070D01*
X76600Y22871D01*
X76600Y22672D01*
X76800Y22473D01*
X77100Y22473D01*
X76900Y23369D02*
X76600Y23667D01*
X76600Y23767D01*
X76800Y23966D01*
X77300Y23369D02*
X76600Y23369D01*
X77300Y24265D02*
X77300Y24862D01*
X77100Y25161D02*
X77300Y25360D01*
X77300Y25559D01*
X77100Y25758D01*
X76800Y25161D01*
X76600Y25360D01*
X76600Y25559D01*
X76800Y25758D01*
X77100Y26654D02*
X77300Y26455D01*
X77300Y26256D01*
X77100Y26057D01*
X76800Y26057D01*
X76600Y26256D01*
X76600Y26455D01*
X76800Y26654D01*
X76900Y26554D01*
X76900Y26057D01*
X76900Y26953D02*
X76600Y27251D01*
X76600Y27351D01*
X76800Y27550D01*
X77300Y26953D02*
X76600Y26953D01*
X76600Y27849D02*
X77300Y28147D01*
X76600Y28446D01*
X77100Y28745D02*
X77300Y28944D01*
X77300Y29143D01*
X77100Y29342D01*
X76800Y29342D01*
X76600Y29143D01*
X76600Y28944D01*
X76800Y28745D01*
X77100Y28745D01*
X77300Y29641D02*
X77300Y30238D01*
X77200Y31034D02*
X77300Y30935D01*
X77300Y30736D01*
X77100Y30537D01*
X76800Y30537D01*
X76600Y30736D01*
X76600Y30935D01*
X76700Y31034D01*
X77100Y31433D02*
X77300Y31632D01*
X77300Y31831D01*
X77100Y32030D01*
X76800Y32030D01*
X76600Y31831D01*
X76600Y31632D01*
X76800Y31433D01*
X77100Y31433D01*
X77300Y32329D02*
X76700Y32329D01*
X76600Y32329D01*
X76700Y32329D02*
X76600Y32428D01*
X76600Y32627D01*
X76700Y32727D01*
X77300Y32727D01*
X77300Y33225D02*
X76700Y33225D01*
X76600Y33225D01*
X76700Y33225D02*
X76600Y33324D01*
X76600Y33523D01*
X76700Y33623D01*
X77300Y33623D01*
X77100Y34718D02*
X77300Y34519D01*
X77300Y34320D01*
X77100Y34121D01*
X76800Y34121D01*
X76600Y34320D01*
X76600Y34519D01*
X76800Y34718D01*
X76900Y34618D01*
X76900Y34121D01*
X77200Y35514D02*
X77300Y35415D01*
X77300Y35216D01*
X77100Y35017D01*
X76800Y35017D01*
X76600Y35216D01*
X76600Y35415D01*
X76700Y35514D01*
X77200Y36410D02*
X77300Y36311D01*
X77200Y36211D01*
X76300Y36211D01*
X76600Y36012D02*
X76600Y36410D01*
X77100Y36809D02*
X77300Y37008D01*
X77300Y37207D01*
X77100Y37406D01*
X76800Y37406D01*
X76600Y37207D01*
X76600Y37008D01*
X76800Y36809D01*
X77100Y36809D01*
X76900Y37705D02*
X76600Y38003D01*
X76600Y38103D01*
X76800Y38302D01*
X77300Y37705D02*
X76600Y37705D01*
X11965Y42445D02*
X11165Y42445D01*
X10965Y42246D01*
X10965Y42047D01*
X11165Y41848D01*
X11965Y41848D01*
X11965Y40952D02*
X11965Y41549D01*
X11565Y41549D01*
X11565Y41151D01*
X11365Y40952D01*
X11165Y40952D01*
X10965Y41151D01*
X10965Y41549D01*
X3980Y38635D02*
X4980Y38635D01*
X4480Y38337D01*
X4980Y38038D01*
X3980Y38038D01*
X4180Y37739D02*
X3980Y37540D01*
X3980Y37341D01*
X4180Y37142D01*
X4480Y37142D01*
X4680Y37341D01*
X4680Y37540D01*
X4480Y37739D01*
X4180Y37739D01*
X4080Y36346D02*
X3980Y36445D01*
X4080Y36545D01*
X4980Y36545D01*
X4680Y36744D02*
X4680Y36346D01*
X4180Y35947D02*
X3980Y35748D01*
X3980Y35549D01*
X4180Y35350D01*
X4480Y35350D01*
X4680Y35549D01*
X4680Y35748D01*
X4480Y35947D01*
X4180Y35947D01*
X4380Y35051D02*
X4680Y34753D01*
X4680Y34653D01*
X4480Y34454D01*
X3980Y35051D02*
X4680Y35051D01*
X3980Y34155D02*
X3980Y33558D01*
X4180Y33259D02*
X3980Y33060D01*
X3980Y32861D01*
X4180Y32662D01*
X4480Y33259D01*
X4680Y33060D01*
X4680Y32861D01*
X4480Y32662D01*
X4180Y31766D02*
X3980Y31965D01*
X3980Y32164D01*
X4180Y32363D01*
X4480Y32363D01*
X4680Y32164D01*
X4680Y31965D01*
X4480Y31766D01*
X4380Y31866D01*
X4380Y32363D01*
X4380Y31467D02*
X4680Y31169D01*
X4680Y31069D01*
X4480Y30870D01*
X3980Y31467D02*
X4680Y31467D01*
X4680Y30571D02*
X3980Y30273D01*
X4680Y29974D01*
X4180Y29675D02*
X3980Y29476D01*
X3980Y29277D01*
X4180Y29078D01*
X4480Y29078D01*
X4680Y29277D01*
X4680Y29476D01*
X4480Y29675D01*
X4180Y29675D01*
X3980Y28779D02*
X3980Y28182D01*
X4080Y27386D02*
X3980Y27485D01*
X3980Y27684D01*
X4180Y27883D01*
X4480Y27883D01*
X4680Y27684D01*
X4680Y27485D01*
X4580Y27386D01*
X4180Y26987D02*
X3980Y26788D01*
X3980Y26589D01*
X4180Y26390D01*
X4480Y26390D01*
X4680Y26589D01*
X4680Y26788D01*
X4480Y26987D01*
X4180Y26987D01*
X3980Y26091D02*
X4580Y26091D01*
X4680Y26091D01*
X4580Y26091D02*
X4680Y25992D01*
X4680Y25793D01*
X4580Y25693D01*
X3980Y25693D01*
X3980Y25195D02*
X4580Y25195D01*
X4680Y25195D01*
X4580Y25195D02*
X4680Y25096D01*
X4680Y24897D01*
X4580Y24797D01*
X3980Y24797D01*
X4180Y23702D02*
X3980Y23901D01*
X3980Y24100D01*
X4180Y24299D01*
X4480Y24299D01*
X4680Y24100D01*
X4680Y23901D01*
X4480Y23702D01*
X4380Y23802D01*
X4380Y24299D01*
X4080Y22906D02*
X3980Y23005D01*
X3980Y23204D01*
X4180Y23403D01*
X4480Y23403D01*
X4680Y23204D01*
X4680Y23005D01*
X4580Y22906D01*
X4080Y22010D02*
X3980Y22109D01*
X4080Y22209D01*
X4980Y22209D01*
X4680Y22408D02*
X4680Y22010D01*
X4180Y21611D02*
X3980Y21412D01*
X3980Y21213D01*
X4180Y21014D01*
X4480Y21014D01*
X4680Y21213D01*
X4680Y21412D01*
X4480Y21611D01*
X4180Y21611D01*
X4380Y20715D02*
X4680Y20417D01*
X4680Y20317D01*
X4480Y20118D01*
X3980Y20715D02*
X4680Y20715D01*
X3980Y76735D02*
X4980Y76735D01*
X4480Y76437D01*
X4980Y76138D01*
X3980Y76138D01*
X4180Y75839D02*
X3980Y75640D01*
X3980Y75441D01*
X4180Y75242D01*
X4480Y75242D01*
X4680Y75441D01*
X4680Y75640D01*
X4480Y75839D01*
X4180Y75839D01*
X4080Y74446D02*
X3980Y74545D01*
X4080Y74645D01*
X4980Y74645D01*
X4680Y74844D02*
X4680Y74446D01*
X4180Y74047D02*
X3980Y73848D01*
X3980Y73649D01*
X4180Y73450D01*
X4480Y73450D01*
X4680Y73649D01*
X4680Y73848D01*
X4480Y74047D01*
X4180Y74047D01*
X4380Y73151D02*
X4680Y72853D01*
X4680Y72753D01*
X4480Y72554D01*
X3980Y73151D02*
X4680Y73151D01*
X3980Y72255D02*
X3980Y71658D01*
X4180Y71359D02*
X3980Y71160D01*
X3980Y70961D01*
X4180Y70762D01*
X4480Y71359D01*
X4680Y71160D01*
X4680Y70961D01*
X4480Y70762D01*
X4180Y69866D02*
X3980Y70065D01*
X3980Y70264D01*
X4180Y70463D01*
X4480Y70463D01*
X4680Y70264D01*
X4680Y70065D01*
X4480Y69866D01*
X4380Y69966D01*
X4380Y70463D01*
X4380Y69567D02*
X4680Y69269D01*
X4680Y69169D01*
X4480Y68970D01*
X3980Y69567D02*
X4680Y69567D01*
X4680Y68671D02*
X3980Y68373D01*
X4680Y68074D01*
X4180Y67775D02*
X3980Y67576D01*
X3980Y67377D01*
X4180Y67178D01*
X4480Y67178D01*
X4680Y67377D01*
X4680Y67576D01*
X4480Y67775D01*
X4180Y67775D01*
X3980Y66879D02*
X3980Y66282D01*
X4080Y65486D02*
X3980Y65585D01*
X3980Y65784D01*
X4180Y65983D01*
X4480Y65983D01*
X4680Y65784D01*
X4680Y65585D01*
X4580Y65486D01*
X4180Y65087D02*
X3980Y64888D01*
X3980Y64689D01*
X4180Y64490D01*
X4480Y64490D01*
X4680Y64689D01*
X4680Y64888D01*
X4480Y65087D01*
X4180Y65087D01*
X3980Y64191D02*
X4580Y64191D01*
X4680Y64191D01*
X4580Y64191D02*
X4680Y64092D01*
X4680Y63893D01*
X4580Y63793D01*
X3980Y63793D01*
X3980Y63295D02*
X4580Y63295D01*
X4680Y63295D01*
X4580Y63295D02*
X4680Y63196D01*
X4680Y62997D01*
X4580Y62897D01*
X3980Y62897D01*
X4180Y61802D02*
X3980Y62001D01*
X3980Y62200D01*
X4180Y62399D01*
X4480Y62399D01*
X4680Y62200D01*
X4680Y62001D01*
X4480Y61802D01*
X4380Y61902D01*
X4380Y62399D01*
X4080Y61006D02*
X3980Y61105D01*
X3980Y61304D01*
X4180Y61503D01*
X4480Y61503D01*
X4680Y61304D01*
X4680Y61105D01*
X4580Y61006D01*
X4080Y60110D02*
X3980Y60209D01*
X4080Y60309D01*
X4980Y60309D01*
X4680Y60508D02*
X4680Y60110D01*
X4180Y59711D02*
X3980Y59512D01*
X3980Y59313D01*
X4180Y59114D01*
X4480Y59114D01*
X4680Y59313D01*
X4680Y59512D01*
X4480Y59711D01*
X4180Y59711D01*
X4380Y58815D02*
X4680Y58517D01*
X4680Y58417D01*
X4480Y58218D01*
X3980Y58815D02*
X4680Y58815D01*
X11965Y80545D02*
X11165Y80545D01*
X10965Y80346D01*
X10965Y80147D01*
X11165Y79948D01*
X11965Y79948D01*
X11765Y79550D02*
X11965Y79351D01*
X10965Y79351D01*
X10965Y79649D02*
X10965Y79052D01*
X69315Y54075D02*
X70115Y54075D01*
X70315Y54274D01*
X70315Y54473D01*
X70115Y54672D01*
X69315Y54672D01*
X69915Y55568D02*
X69915Y54971D01*
X69315Y55468D01*
X70315Y55468D01*
X70315Y55369D02*
X70315Y55568D01*
X77300Y57885D02*
X76300Y57885D01*
X76800Y58183D01*
X76300Y58482D01*
X77300Y58482D01*
X77100Y58781D02*
X77300Y58980D01*
X77300Y59179D01*
X77100Y59378D01*
X76800Y59378D01*
X76600Y59179D01*
X76600Y58980D01*
X76800Y58781D01*
X77100Y58781D01*
X77200Y60174D02*
X77300Y60075D01*
X77200Y59975D01*
X76300Y59975D01*
X76600Y59776D02*
X76600Y60174D01*
X77100Y60573D02*
X77300Y60772D01*
X77300Y60971D01*
X77100Y61170D01*
X76800Y61170D01*
X76600Y60971D01*
X76600Y60772D01*
X76800Y60573D01*
X77100Y60573D01*
X76900Y61469D02*
X76600Y61767D01*
X76600Y61867D01*
X76800Y62066D01*
X77300Y61469D02*
X76600Y61469D01*
X77300Y62365D02*
X77300Y62962D01*
X77100Y63261D02*
X77300Y63460D01*
X77300Y63659D01*
X77100Y63858D01*
X76800Y63261D01*
X76600Y63460D01*
X76600Y63659D01*
X76800Y63858D01*
X77100Y64754D02*
X77300Y64555D01*
X77300Y64356D01*
X77100Y64157D01*
X76800Y64157D01*
X76600Y64356D01*
X76600Y64555D01*
X76800Y64754D01*
X76900Y64654D01*
X76900Y64157D01*
X76900Y65053D02*
X76600Y65351D01*
X76600Y65451D01*
X76800Y65650D01*
X77300Y65053D02*
X76600Y65053D01*
X76600Y65949D02*
X77300Y66247D01*
X76600Y66546D01*
X77100Y66845D02*
X77300Y67044D01*
X77300Y67243D01*
X77100Y67442D01*
X76800Y67442D01*
X76600Y67243D01*
X76600Y67044D01*
X76800Y66845D01*
X77100Y66845D01*
X77300Y67741D02*
X77300Y68338D01*
X77200Y69134D02*
X77300Y69035D01*
X77300Y68836D01*
X77100Y68637D01*
X76800Y68637D01*
X76600Y68836D01*
X76600Y69035D01*
X76700Y69134D01*
X77100Y69533D02*
X77300Y69732D01*
X77300Y69931D01*
X77100Y70130D01*
X76800Y70130D01*
X76600Y69931D01*
X76600Y69732D01*
X76800Y69533D01*
X77100Y69533D01*
X77300Y70429D02*
X76700Y70429D01*
X76600Y70429D01*
X76700Y70429D02*
X76600Y70528D01*
X76600Y70727D01*
X76700Y70827D01*
X77300Y70827D01*
X77300Y71325D02*
X76700Y71325D01*
X76600Y71325D01*
X76700Y71325D02*
X76600Y71424D01*
X76600Y71623D01*
X76700Y71723D01*
X77300Y71723D01*
X77100Y72818D02*
X77300Y72619D01*
X77300Y72420D01*
X77100Y72221D01*
X76800Y72221D01*
X76600Y72420D01*
X76600Y72619D01*
X76800Y72818D01*
X76900Y72718D01*
X76900Y72221D01*
X77200Y73614D02*
X77300Y73515D01*
X77300Y73316D01*
X77100Y73117D01*
X76800Y73117D01*
X76600Y73316D01*
X76600Y73515D01*
X76700Y73614D01*
X77200Y74510D02*
X77300Y74411D01*
X77200Y74311D01*
X76300Y74311D01*
X76600Y74112D02*
X76600Y74510D01*
X77100Y74909D02*
X77300Y75108D01*
X77300Y75307D01*
X77100Y75506D01*
X76800Y75506D01*
X76600Y75307D01*
X76600Y75108D01*
X76800Y74909D01*
X77100Y74909D01*
X76900Y75805D02*
X76600Y76103D01*
X76600Y76203D01*
X76800Y76402D01*
X77300Y75805D02*
X76600Y75805D01*
X53440Y79910D02*
X53440Y79110D01*
X53639Y78910D01*
X53838Y78910D01*
X54037Y79110D01*
X54037Y79910D01*
X54734Y78910D02*
X54535Y78910D01*
X54336Y79110D01*
X54336Y79310D01*
X54435Y79410D01*
X54336Y79510D01*
X54336Y79710D01*
X54535Y79910D01*
X54734Y79910D01*
X54933Y79710D01*
X54933Y79510D01*
X54833Y79410D01*
X54933Y79310D01*
X54933Y79110D01*
X54734Y78910D01*
X54435Y79410D02*
X54833Y79410D01*
X26770Y79910D02*
X26770Y79110D01*
X26969Y78910D01*
X27168Y78910D01*
X27367Y79110D01*
X27367Y79910D01*
X27666Y79710D02*
X27865Y79910D01*
X28064Y79910D01*
X28263Y79710D01*
X28263Y79610D01*
X27666Y78910D01*
X28263Y78910D01*
X28263Y79010D01*
X52805Y41810D02*
X52805Y41010D01*
X53004Y40810D01*
X53203Y40810D01*
X53402Y41010D01*
X53402Y41810D01*
X53800Y41610D02*
X53999Y41810D01*
X53999Y40810D01*
X53701Y40810D02*
X54298Y40810D01*
X54597Y41610D02*
X54796Y41810D01*
X54995Y41810D01*
X55194Y41610D01*
X55194Y41010D01*
X54995Y40810D01*
X54796Y40810D01*
X54597Y41010D01*
X54597Y41610D01*
X55194Y41610D02*
X54597Y41010D01*
X27405Y41810D02*
X27405Y41010D01*
X27604Y40810D01*
X27803Y40810D01*
X28002Y41010D01*
X28002Y41810D01*
X28301Y41010D02*
X28500Y40810D01*
X28699Y40810D01*
X28898Y41010D01*
X28898Y41410D01*
X28898Y41610D01*
X28699Y41810D01*
X28500Y41810D01*
X28301Y41610D01*
X28301Y41410D01*
X28500Y41210D01*
X28699Y41210D01*
X28898Y41410D01*
G54D13*
X48260Y45170D02*
X48260Y46270D01*
X48260Y45170D02*
X48260Y46270D01*
X48260Y47710D02*
X48260Y48810D01*
X48260Y47710D02*
X48260Y48810D01*
X48260Y50250D02*
X48260Y51350D01*
X48260Y50250D02*
X48260Y51350D01*
G54D14*
X20760Y83820D02*
G75*
D01*
G02X20760Y83820I125J0*
G01*
G54D15*
G36*
X64737Y82161D02*
X64737Y82161D01*
X64986Y80742D01*
X64986Y82161D01*
X64737Y82161D01*
D02*
G37*
X64986Y80742D01*
X64986Y82161D01*
X64737Y82161D01*
G36*
X64986Y80742D02*
X64986Y80742D01*
X64737Y82161D01*
X64737Y81577D01*
X64986Y80742D01*
D02*
G37*
X64737Y82161D01*
X64737Y81577D01*
X64986Y80742D01*
G36*
X64737Y81577D02*
X64737Y81577D01*
X64737Y81331D01*
X64986Y80742D01*
X64737Y81577D01*
D02*
G37*
X64737Y81331D01*
X64986Y80742D01*
X64737Y81577D01*
G36*
X64737Y81331D02*
X64737Y81331D01*
X64737Y81577D01*
X64152Y81577D01*
X64737Y81331D01*
D02*
G37*
X64737Y81577D01*
X64152Y81577D01*
X64737Y81331D01*
G36*
X64152Y81577D02*
X64152Y81577D01*
X64152Y81331D01*
X64737Y81331D01*
X64152Y81577D01*
D02*
G37*
X64152Y81331D01*
X64737Y81331D01*
X64152Y81577D01*
G36*
X64986Y81331D02*
X64986Y81331D01*
X65570Y81331D01*
X64986Y81577D01*
X64986Y81331D01*
D02*
G37*
X65570Y81331D01*
X64986Y81577D01*
X64986Y81331D01*
G36*
X64986Y81331D01*
X64986Y82161D01*
X64986Y81331D01*
D02*
G37*
X64986Y82161D01*
X64986Y81331D01*
G36*
X64986Y81331D01*
X64986Y82161D01*
X64986Y80742D01*
X64986Y81331D01*
D02*
G37*
X64986Y82161D01*
X64986Y80742D01*
X64986Y81331D01*
G36*
X64986Y81577D02*
X64986Y81577D01*
X65570Y81331D01*
X65570Y81577D01*
X64986Y81577D01*
D02*
G37*
X65570Y81331D01*
X65570Y81577D01*
X64986Y81577D01*
G36*
X64986Y80742D02*
X64986Y80742D01*
X64737Y81331D01*
X64737Y80742D01*
X64986Y80742D01*
D02*
G37*
X64737Y81331D01*
X64737Y80742D01*
X64986Y80742D01*
G36*
X64645Y44229D02*
X64645Y44229D01*
X64895Y42809D01*
X64895Y44229D01*
X64645Y44229D01*
D02*
G37*
X64895Y42809D01*
X64895Y44229D01*
X64645Y44229D01*
G36*
X64895Y42809D02*
X64895Y42809D01*
X64645Y44229D01*
X64645Y43644D01*
X64895Y42809D01*
D02*
G37*
X64645Y44229D01*
X64645Y43644D01*
X64895Y42809D01*
G36*
X64645Y43644D02*
X64645Y43644D01*
X64645Y43398D01*
X64895Y42809D01*
X64645Y43644D01*
D02*
G37*
X64645Y43398D01*
X64895Y42809D01*
X64645Y43644D01*
G36*
X64645Y43398D02*
X64645Y43398D01*
X64645Y43644D01*
X64061Y43644D01*
X64645Y43398D01*
D02*
G37*
X64645Y43644D01*
X64061Y43644D01*
X64645Y43398D01*
G36*
X64061Y43644D02*
X64061Y43644D01*
X64061Y43398D01*
X64645Y43398D01*
X64061Y43644D01*
D02*
G37*
X64061Y43398D01*
X64645Y43398D01*
X64061Y43644D01*
G36*
X64895Y43398D02*
X64895Y43398D01*
X65479Y43398D01*
X64895Y43644D01*
X64895Y43398D01*
D02*
G37*
X65479Y43398D01*
X64895Y43644D01*
X64895Y43398D01*
G36*
X64895Y43398D01*
X64895Y44229D01*
X64895Y43398D01*
D02*
G37*
X64895Y44229D01*
X64895Y43398D01*
G36*
X64895Y43398D01*
X64895Y44229D01*
X64895Y42809D01*
X64895Y43398D01*
D02*
G37*
X64895Y44229D01*
X64895Y42809D01*
X64895Y43398D01*
G36*
X64895Y43644D02*
X64895Y43644D01*
X65479Y43398D01*
X65479Y43644D01*
X64895Y43644D01*
D02*
G37*
X65479Y43398D01*
X65479Y43644D01*
X64895Y43644D01*
G36*
X64895Y42809D02*
X64895Y42809D01*
X64645Y43398D01*
X64645Y42809D01*
X64895Y42809D01*
D02*
G37*
X64645Y43398D01*
X64645Y42809D01*
X64895Y42809D01*
X18160Y101280D02*
X2160Y101280D01*
X2160Y82240D01*
X18160Y82240D01*
X18160Y101280D01*
X29950Y117700D02*
X20850Y117700D01*
X20850Y85500D01*
X29950Y85500D01*
X29950Y117700D01*
X33020Y118110D02*
X71120Y118110D01*
X71120Y92710D01*
X33020Y92710D01*
X33020Y118110D01*
X24130Y14605D02*
X57130Y14605D01*
X57130Y5715D01*
X24130Y5715D01*
X24130Y14605D01*
G36*
X38862Y5715D02*
X38862Y6350D01*
X42418Y6350D01*
X42418Y5715D01*
X38862Y5715D01*
G37*
X67818Y17780D02*
X78818Y17780D01*
X78818Y40640D01*
X67818Y40640D01*
X67818Y17780D01*
X13462Y40640D02*
X2462Y40640D01*
X2462Y17780D01*
X13462Y17780D01*
X13462Y40640D01*
X13462Y78740D02*
X2462Y78740D01*
X2462Y55880D01*
X13462Y55880D01*
X13462Y78740D01*
X67818Y55880D02*
X78818Y55880D01*
X78818Y78740D01*
X67818Y78740D01*
X67818Y55880D01*
X44450Y55880D02*
X62230Y55880D01*
X62230Y78740D01*
X44450Y78740D01*
X44450Y55880D01*
X36830Y78740D02*
X19050Y78740D01*
X19050Y55880D01*
X36830Y55880D01*
X36830Y78740D01*
X44450Y17780D02*
X62230Y17780D01*
X62230Y40640D01*
X44450Y40640D01*
X44450Y17780D01*
X36830Y40640D02*
X19050Y40640D01*
X19050Y17780D01*
X36830Y17780D01*
X36830Y40640D01*
G36*
X16294Y53878D02*
X16294Y53878D01*
X16543Y52459D01*
X16543Y53878D01*
X16294Y53878D01*
D02*
G37*
X16543Y52459D01*
X16543Y53878D01*
X16294Y53878D01*
G36*
X16543Y52459D02*
X16543Y52459D01*
X16294Y53878D01*
X16294Y53289D01*
X16543Y52459D01*
D02*
G37*
X16294Y53878D01*
X16294Y53289D01*
X16543Y52459D01*
G36*
X16294Y53289D02*
X16294Y53289D01*
X16294Y53043D01*
X16543Y52459D01*
X16294Y53289D01*
D02*
G37*
X16294Y53043D01*
X16543Y52459D01*
X16294Y53289D01*
G36*
X16294Y53043D02*
X16294Y53043D01*
X16294Y53289D01*
X15710Y53289D01*
X16294Y53043D01*
D02*
G37*
X16294Y53289D01*
X15710Y53289D01*
X16294Y53043D01*
G36*
X15710Y53289D02*
X15710Y53289D01*
X15710Y53043D01*
X16294Y53043D01*
X15710Y53289D01*
D02*
G37*
X15710Y53043D01*
X16294Y53043D01*
X15710Y53289D01*
G36*
X16543Y53043D02*
X16543Y53043D01*
X17128Y53043D01*
X16543Y53289D01*
X16543Y53043D01*
D02*
G37*
X17128Y53043D01*
X16543Y53289D01*
X16543Y53043D01*
G36*
X16543Y53043D01*
X16543Y53878D01*
X16543Y53043D01*
D02*
G37*
X16543Y53878D01*
X16543Y53043D01*
G36*
X16543Y53043D01*
X16543Y53878D01*
X16543Y52459D01*
X16543Y53043D01*
D02*
G37*
X16543Y53878D01*
X16543Y52459D01*
X16543Y53043D01*
G36*
X16543Y53289D02*
X16543Y53289D01*
X17128Y53043D01*
X17128Y53289D01*
X16543Y53289D01*
D02*
G37*
X17128Y53043D01*
X17128Y53289D01*
X16543Y53289D01*
G36*
X16543Y52459D02*
X16543Y52459D01*
X16294Y53043D01*
X16294Y52459D01*
X16543Y52459D01*
D02*
G37*
X16294Y53043D01*
X16294Y52459D01*
X16543Y52459D01*
G36*
X16294Y15778D02*
X16294Y15778D01*
X16543Y14359D01*
X16543Y15778D01*
X16294Y15778D01*
D02*
G37*
X16543Y14359D01*
X16543Y15778D01*
X16294Y15778D01*
G36*
X16543Y14359D02*
X16543Y14359D01*
X16294Y15778D01*
X16294Y15189D01*
X16543Y14359D01*
D02*
G37*
X16294Y15778D01*
X16294Y15189D01*
X16543Y14359D01*
G36*
X16294Y15189D02*
X16294Y15189D01*
X16294Y14943D01*
X16543Y14359D01*
X16294Y15189D01*
D02*
G37*
X16294Y14943D01*
X16543Y14359D01*
X16294Y15189D01*
G36*
X16294Y14943D02*
X16294Y14943D01*
X16294Y15189D01*
X15710Y15189D01*
X16294Y14943D01*
D02*
G37*
X16294Y15189D01*
X15710Y15189D01*
X16294Y14943D01*
G36*
X15710Y15189D02*
X15710Y15189D01*
X15710Y14943D01*
X16294Y14943D01*
X15710Y15189D01*
D02*
G37*
X15710Y14943D01*
X16294Y14943D01*
X15710Y15189D01*
G36*
X16543Y14943D02*
X16543Y14943D01*
X17128Y14943D01*
X16543Y15189D01*
X16543Y14943D01*
D02*
G37*
X17128Y14943D01*
X16543Y15189D01*
X16543Y14943D01*
G36*
X16543Y14943D01*
X16543Y15778D01*
X16543Y14943D01*
D02*
G37*
X16543Y15778D01*
X16543Y14943D01*
G36*
X16543Y14943D01*
X16543Y15778D01*
X16543Y14359D01*
X16543Y14943D01*
D02*
G37*
X16543Y15778D01*
X16543Y14359D01*
X16543Y14943D01*
G36*
X16543Y15189D02*
X16543Y15189D01*
X17128Y14943D01*
X17128Y15189D01*
X16543Y15189D01*
D02*
G37*
X17128Y14943D01*
X17128Y15189D01*
X16543Y15189D01*
G36*
X16543Y14359D02*
X16543Y14359D01*
X16294Y14943D01*
X16294Y14359D01*
X16543Y14359D01*
D02*
G37*
X16294Y14943D01*
X16294Y14359D01*
X16543Y14359D01*
G36*
X11481Y108568D02*
X11481Y108568D01*
X11727Y107150D01*
X11727Y108568D01*
X11481Y108568D01*
D02*
G37*
X11727Y107150D01*
X11727Y108568D01*
X11481Y108568D01*
G36*
X11727Y107150D02*
X11727Y107150D01*
X11481Y108568D01*
X11481Y107983D01*
X11727Y107150D01*
D02*
G37*
X11481Y108568D01*
X11481Y107983D01*
X11727Y107150D01*
G36*
X11481Y107983D02*
X11481Y107983D01*
X11481Y107734D01*
X11727Y107150D01*
X11481Y107983D01*
D02*
G37*
X11481Y107734D01*
X11727Y107150D01*
X11481Y107983D01*
G36*
X11481Y107734D02*
X11481Y107734D01*
X11481Y107983D01*
X10892Y107983D01*
X11481Y107734D01*
D02*
G37*
X11481Y107983D01*
X10892Y107983D01*
X11481Y107734D01*
G36*
X10892Y107983D02*
X10892Y107983D01*
X10892Y107734D01*
X11481Y107734D01*
X10892Y107983D01*
D02*
G37*
X10892Y107734D01*
X11481Y107734D01*
X10892Y107983D01*
G36*
X11727Y107734D02*
X11727Y107734D01*
X12311Y107734D01*
X11727Y107983D01*
X11727Y107734D01*
D02*
G37*
X12311Y107734D01*
X11727Y107983D01*
X11727Y107734D01*
G36*
X11727Y107734D01*
X11727Y108568D01*
X11727Y107734D01*
D02*
G37*
X11727Y108568D01*
X11727Y107734D01*
G36*
X11727Y107734D01*
X11727Y108568D01*
X11727Y107150D01*
X11727Y107734D01*
D02*
G37*
X11727Y108568D01*
X11727Y107150D01*
X11727Y107734D01*
G36*
X11727Y107983D02*
X11727Y107983D01*
X12311Y107734D01*
X12311Y107983D01*
X11727Y107983D01*
D02*
G37*
X12311Y107734D01*
X12311Y107983D01*
X11727Y107983D01*
G36*
X11727Y107150D02*
X11727Y107150D01*
X11481Y107734D01*
X11481Y107150D01*
X11727Y107150D01*
D02*
G37*
X11481Y107734D01*
X11481Y107150D01*
X11727Y107150D01*
G54D16*
X3945Y99626D02*
X3945Y99193D01*
X4162Y98976D01*
X4271Y98976D01*
X4489Y99193D01*
X4707Y98976D01*
X4815Y98976D01*
X5033Y99193D01*
X5033Y99518D01*
X5033Y99626D01*
X4489Y99518D02*
X4489Y99193D01*
X5033Y99518D02*
X3945Y99518D01*
X4707Y98542D02*
X4707Y98217D01*
X4598Y98109D01*
X4053Y98109D01*
X3945Y98217D01*
X3945Y98542D01*
X4053Y98651D01*
X4271Y98651D01*
X4380Y98542D01*
X4380Y98109D01*
X4053Y98109D02*
X3945Y98001D01*
X4053Y97134D02*
X3945Y97242D01*
X4053Y97350D01*
X5033Y97350D01*
X4707Y97567D02*
X4707Y97134D01*
X4053Y96158D02*
X3945Y96267D01*
X4053Y96375D01*
X5033Y96375D01*
X4707Y96592D02*
X4707Y96158D01*
X4162Y95075D02*
X3945Y95291D01*
X3945Y95508D01*
X4162Y95725D01*
X4489Y95725D01*
X4707Y95508D01*
X4707Y95291D01*
X4489Y95075D01*
X4380Y95183D01*
X4380Y95725D01*
X4380Y94749D02*
X4707Y94424D01*
X4707Y94316D01*
X4489Y94099D01*
X3945Y94749D02*
X4707Y94749D01*
X3618Y93774D02*
X3618Y93666D01*
X4707Y93124D01*
X4707Y93774D02*
X4053Y93449D01*
X4053Y91281D02*
X3945Y91390D01*
X3945Y91607D01*
X4162Y91823D01*
X4489Y91823D01*
X4707Y91607D01*
X4707Y91390D01*
X4598Y91281D01*
X4162Y90848D02*
X3945Y90631D01*
X3945Y90414D01*
X4162Y90198D01*
X4489Y90198D01*
X4707Y90414D01*
X4707Y90631D01*
X4489Y90848D01*
X4162Y90848D01*
X3945Y89873D02*
X4598Y89873D01*
X4707Y89873D01*
X4598Y89873D02*
X4707Y89764D01*
X4707Y89547D01*
X4598Y89439D01*
X3945Y89439D01*
X3945Y88897D02*
X4598Y88897D01*
X4707Y88897D01*
X4598Y88897D02*
X4707Y88789D01*
X4707Y88572D01*
X4598Y88464D01*
X3945Y88464D01*
X4162Y87272D02*
X3945Y87488D01*
X3945Y87705D01*
X4162Y87922D01*
X4489Y87922D01*
X4707Y87705D01*
X4707Y87488D01*
X4489Y87272D01*
X4380Y87380D01*
X4380Y87922D01*
X4053Y86405D02*
X3945Y86513D01*
X3945Y86730D01*
X4162Y86947D01*
X4489Y86947D01*
X4707Y86730D01*
X4707Y86513D01*
X4598Y86405D01*
X4053Y85429D02*
X3945Y85538D01*
X4053Y85646D01*
X5033Y85646D01*
X4707Y85863D02*
X4707Y85429D01*
X4162Y84996D02*
X3945Y84779D01*
X3945Y84562D01*
X4162Y84346D01*
X4489Y84346D01*
X4707Y84562D01*
X4707Y84779D01*
X4489Y84996D01*
X4162Y84996D01*
X4380Y84020D02*
X4707Y83695D01*
X4707Y83587D01*
X4489Y83370D01*
X3945Y84020D02*
X4707Y84020D01*
X20973Y109142D02*
X19885Y108817D01*
X20973Y108492D01*
X20102Y108167D02*
X19885Y107950D01*
X19885Y107733D01*
X20102Y107517D01*
X20429Y107517D01*
X20647Y107733D01*
X20647Y107950D01*
X20429Y108167D01*
X20102Y108167D01*
X20973Y107083D02*
X20102Y107083D01*
X19885Y106866D01*
X19993Y105674D02*
X19885Y105783D01*
X19993Y105891D01*
X20973Y105891D01*
X20647Y106108D02*
X20647Y105674D01*
X20647Y105132D02*
X20647Y104807D01*
X20538Y104699D01*
X19993Y104699D01*
X19885Y104807D01*
X19885Y105132D01*
X19993Y105241D01*
X20211Y105241D01*
X20320Y105132D01*
X20320Y104699D01*
X19993Y104699D02*
X19885Y104590D01*
X19776Y104265D02*
X19558Y104049D01*
X19558Y103832D01*
X19776Y103615D01*
X20102Y103615D01*
X20429Y103615D01*
X20647Y103832D01*
X20647Y104049D01*
X20429Y104265D01*
X20102Y104265D01*
X19885Y104049D01*
X19885Y103832D01*
X20102Y103615D01*
X20102Y102640D02*
X19885Y102856D01*
X19885Y103073D01*
X20102Y103290D01*
X20429Y103290D01*
X20647Y103073D01*
X20647Y102856D01*
X20429Y102640D01*
X20320Y102748D01*
X20320Y103290D01*
X19885Y102315D02*
X20973Y102315D01*
X20973Y101881D01*
X20755Y101664D01*
X20647Y101664D01*
X20429Y101881D01*
X20429Y102315D01*
X20429Y102206D02*
X19885Y101664D01*
X20102Y100689D02*
X19885Y100906D01*
X19885Y101122D01*
X20102Y101339D01*
X20429Y101339D01*
X20647Y101122D01*
X20647Y100906D01*
X20429Y100689D01*
X20320Y100797D01*
X20320Y101339D01*
X19776Y100364D02*
X19558Y100147D01*
X19558Y99930D01*
X19776Y99714D01*
X20102Y99714D01*
X20429Y99714D01*
X20647Y99930D01*
X20647Y100147D01*
X20429Y100364D01*
X20102Y100364D01*
X19885Y100147D01*
X19885Y99930D01*
X20102Y99714D01*
X20647Y99389D02*
X20102Y99389D01*
X19885Y99172D01*
X19885Y98955D01*
X20102Y98738D01*
X20647Y98738D01*
X20102Y98738D02*
X19885Y98738D01*
X20973Y98305D02*
X20102Y98305D01*
X19885Y98088D01*
X20647Y97329D02*
X20647Y97004D01*
X20538Y96896D01*
X19993Y96896D01*
X19885Y97004D01*
X19885Y97329D01*
X19993Y97438D01*
X20211Y97438D01*
X20320Y97329D01*
X20320Y96896D01*
X19993Y96896D02*
X19885Y96788D01*
X19993Y95921D02*
X19885Y96029D01*
X19993Y96137D01*
X20973Y96137D01*
X20647Y96354D02*
X20647Y95921D01*
X20102Y95487D02*
X19885Y95270D01*
X19885Y95054D01*
X20102Y94837D01*
X20429Y94837D01*
X20647Y95054D01*
X20647Y95270D01*
X20429Y95487D01*
X20102Y95487D01*
X20320Y94512D02*
X20647Y94187D01*
X20647Y94078D01*
X20429Y93861D01*
X19885Y94512D02*
X20647Y94512D01*
X39836Y92663D02*
X40486Y91575D01*
X39836Y91575D02*
X40486Y92663D01*
X40811Y91575D02*
X41245Y91575D01*
X41461Y91792D01*
X41461Y91901D01*
X41245Y92119D01*
X41461Y92337D01*
X41461Y92445D01*
X41245Y92663D01*
X40919Y92663D01*
X40811Y92663D01*
X40919Y92119D02*
X41245Y92119D01*
X40919Y92663D02*
X40919Y91575D01*
X42437Y91792D02*
X42220Y91575D01*
X42003Y91575D01*
X41786Y91792D01*
X41786Y92119D01*
X42003Y92337D01*
X42220Y92337D01*
X42437Y92119D01*
X42328Y92010D01*
X41786Y92010D01*
X43412Y91792D02*
X43195Y91575D01*
X42979Y91575D01*
X42762Y91792D01*
X42762Y92119D01*
X42979Y92337D01*
X43195Y92337D01*
X43412Y92119D01*
X43304Y92010D01*
X42762Y92010D01*
X44713Y92663D02*
X44713Y91792D01*
X44929Y91575D01*
X45146Y91575D01*
X45363Y91792D01*
X45363Y92663D01*
X45688Y91792D02*
X45905Y91575D01*
X46121Y91575D01*
X46338Y91792D01*
X45688Y92445D01*
X45905Y92663D01*
X46121Y92663D01*
X46338Y92445D01*
X46663Y91575D02*
X47097Y91575D01*
X47313Y91792D01*
X47313Y91901D01*
X47097Y92119D01*
X47313Y92337D01*
X47313Y92445D01*
X47097Y92663D01*
X46772Y92663D01*
X46663Y92663D01*
X46772Y92119D02*
X47097Y92119D01*
X46772Y92663D02*
X46772Y91575D01*
X48614Y91575D02*
X48614Y92228D01*
X48831Y92663D01*
X49047Y92663D01*
X49264Y92228D01*
X49264Y91575D01*
X48614Y91901D02*
X49264Y91901D01*
X50240Y91792D02*
X50023Y91575D01*
X49806Y91575D01*
X49589Y91792D01*
X49589Y92010D01*
X49806Y92228D01*
X50023Y92228D01*
X50240Y92010D01*
X50240Y92663D02*
X50240Y91575D01*
X50673Y92337D02*
X50998Y92337D01*
X51107Y92228D01*
X51107Y91683D01*
X50998Y91575D01*
X50673Y91575D01*
X50565Y91683D01*
X50565Y91901D01*
X50673Y92010D01*
X51107Y92010D01*
X51107Y91683D02*
X51215Y91575D01*
X51540Y91792D02*
X51757Y91575D01*
X51974Y91575D01*
X52190Y91792D01*
X52190Y92119D01*
X51974Y92337D01*
X51757Y92337D01*
X51540Y92119D01*
X51540Y91248D02*
X51540Y92337D01*
X53057Y91683D02*
X52949Y91575D01*
X52841Y91683D01*
X52841Y92663D01*
X52624Y92337D02*
X53057Y92337D01*
X54141Y91792D02*
X53924Y91575D01*
X53708Y91575D01*
X53491Y91792D01*
X53491Y92119D01*
X53708Y92337D01*
X53924Y92337D01*
X54141Y92119D01*
X54033Y92010D01*
X53491Y92010D01*
X54466Y92010D02*
X54791Y92337D01*
X54900Y92337D01*
X55116Y92119D01*
X54466Y91575D02*
X54466Y92337D01*
X56417Y91575D02*
X56417Y92663D01*
X57067Y91575D02*
X57067Y92663D01*
X56417Y92119D02*
X57067Y92119D01*
X58042Y91792D02*
X57826Y91575D01*
X57609Y91575D01*
X57392Y91792D01*
X57392Y92119D01*
X57609Y92337D01*
X57826Y92337D01*
X58042Y92119D01*
X57934Y92010D01*
X57392Y92010D01*
X58476Y92337D02*
X58801Y92337D01*
X58909Y92228D01*
X58909Y91683D01*
X58801Y91575D01*
X58476Y91575D01*
X58368Y91683D01*
X58368Y91901D01*
X58476Y92010D01*
X58909Y92010D01*
X58909Y91683D02*
X59018Y91575D01*
X59993Y91792D02*
X59776Y91575D01*
X59560Y91575D01*
X59343Y91792D01*
X59343Y92010D01*
X59560Y92228D01*
X59776Y92228D01*
X59993Y92010D01*
X59993Y92663D02*
X59993Y91575D01*
X60969Y91792D02*
X60752Y91575D01*
X60535Y91575D01*
X60318Y91792D01*
X60318Y92119D01*
X60535Y92337D01*
X60752Y92337D01*
X60969Y92119D01*
X60860Y92010D01*
X60318Y92010D01*
X61294Y92010D02*
X61619Y92337D01*
X61727Y92337D01*
X61944Y92119D01*
X61294Y91575D02*
X61294Y92337D01*
X33128Y4735D02*
X33345Y4518D01*
X33562Y4518D01*
X33779Y4735D01*
X33779Y5388D01*
X33562Y5606D01*
X33345Y5606D01*
X33128Y5388D01*
X33128Y4735D01*
X34212Y5606D02*
X34212Y4735D01*
X34429Y4518D01*
X35404Y4518D02*
X35404Y5171D01*
X35404Y5388D02*
X35404Y5497D01*
X36054Y4518D02*
X36054Y5171D01*
X36054Y5280D01*
X36054Y5171D02*
X36163Y5280D01*
X36271Y5280D01*
X36380Y5171D01*
X36488Y5280D01*
X36596Y5280D01*
X36705Y5171D01*
X36705Y4518D01*
X36380Y5171D02*
X36380Y4518D01*
X37680Y4735D02*
X37463Y4518D01*
X37247Y4518D01*
X37030Y4735D01*
X37030Y5062D01*
X37247Y5280D01*
X37463Y5280D01*
X37680Y5062D01*
X37572Y4953D01*
X37030Y4953D01*
X38005Y4518D02*
X38655Y5280D01*
X38005Y5280D02*
X38655Y4518D01*
X38981Y4518D02*
X39631Y4518D01*
X40498Y4626D02*
X40389Y4518D01*
X40173Y4518D01*
X39956Y4735D01*
X39956Y5062D01*
X40173Y5280D01*
X40389Y5280D01*
X40498Y5171D01*
X40931Y4735D02*
X41148Y4518D01*
X41365Y4518D01*
X41581Y4735D01*
X41581Y5062D01*
X41365Y5280D01*
X41148Y5280D01*
X40931Y5062D01*
X40931Y4735D01*
X41907Y4518D02*
X41907Y5171D01*
X41907Y5280D01*
X41907Y5171D02*
X42015Y5280D01*
X42232Y5280D01*
X42340Y5171D01*
X42340Y4518D01*
X42882Y4518D02*
X42882Y5171D01*
X42882Y5280D01*
X42882Y5171D02*
X42990Y5280D01*
X43207Y5280D01*
X43315Y5171D01*
X43315Y4518D01*
X44508Y4735D02*
X44291Y4518D01*
X44074Y4518D01*
X43857Y4735D01*
X43857Y5062D01*
X44074Y5280D01*
X44291Y5280D01*
X44508Y5062D01*
X44399Y4953D01*
X43857Y4953D01*
X45375Y4626D02*
X45266Y4518D01*
X45049Y4518D01*
X44833Y4735D01*
X44833Y5062D01*
X45049Y5280D01*
X45266Y5280D01*
X45375Y5171D01*
X46350Y4626D02*
X46242Y4518D01*
X46133Y4626D01*
X46133Y5606D01*
X45916Y5280D02*
X46350Y5280D01*
X46783Y4735D02*
X47000Y4518D01*
X47217Y4518D01*
X47434Y4735D01*
X47434Y5062D01*
X47217Y5280D01*
X47000Y5280D01*
X46783Y5062D01*
X46783Y4735D01*
X47759Y4953D02*
X48084Y5280D01*
X48192Y5280D01*
X48409Y5062D01*
X47759Y4518D02*
X47759Y5280D01*
X54537Y58528D02*
X53449Y58528D01*
X53449Y58962D01*
X53667Y59179D01*
X53775Y59179D01*
X53993Y58962D01*
X53993Y58528D01*
X54320Y59504D02*
X54537Y59720D01*
X54537Y59937D01*
X54320Y60154D01*
X53993Y60154D01*
X53775Y59937D01*
X53775Y59720D01*
X53993Y59504D01*
X54320Y59504D01*
X53449Y60587D02*
X54320Y60587D01*
X54537Y60804D01*
X54320Y61454D02*
X54537Y61671D01*
X54537Y61888D01*
X54320Y62105D01*
X53993Y62105D01*
X53775Y61888D01*
X53775Y61671D01*
X53993Y61454D01*
X54320Y61454D01*
X53449Y62538D02*
X54320Y62538D01*
X54537Y62755D01*
X53775Y63405D02*
X54320Y63405D01*
X54537Y63622D01*
X54537Y63839D01*
X54320Y64055D01*
X53775Y64055D01*
X54320Y64055D02*
X54537Y64055D01*
X54537Y65356D02*
X53884Y65356D01*
X53449Y65573D01*
X53449Y65789D01*
X53884Y66006D01*
X54537Y66006D01*
X54211Y65356D02*
X54211Y66006D01*
X54102Y66981D02*
X54102Y66331D01*
X53449Y66873D01*
X54537Y66873D01*
X54537Y66765D02*
X54537Y66981D01*
X54320Y67307D02*
X54537Y67523D01*
X54537Y67740D01*
X54320Y67957D01*
X53884Y67957D01*
X53667Y67957D01*
X53449Y67740D01*
X53449Y67523D01*
X53667Y67307D01*
X53884Y67307D01*
X54102Y67523D01*
X54102Y67740D01*
X53884Y67957D01*
X54537Y68715D02*
X54537Y68499D01*
X54320Y68282D01*
X54102Y68282D01*
X53993Y68390D01*
X53884Y68282D01*
X53667Y68282D01*
X53449Y68499D01*
X53449Y68715D01*
X53667Y68932D01*
X53884Y68932D01*
X53993Y68824D01*
X54102Y68932D01*
X54320Y68932D01*
X54537Y68715D01*
X53993Y68390D02*
X53993Y68824D01*
X54537Y69691D02*
X54537Y69474D01*
X54320Y69257D01*
X54102Y69257D01*
X53993Y69366D01*
X53884Y69257D01*
X53667Y69257D01*
X53449Y69474D01*
X53449Y69691D01*
X53667Y69908D01*
X53884Y69908D01*
X53993Y69799D01*
X54102Y69908D01*
X54320Y69908D01*
X54537Y69691D01*
X53993Y69366D02*
X53993Y69799D01*
X54537Y71208D02*
X53449Y71208D01*
X54537Y71858D02*
X53449Y71858D01*
X53993Y71208D02*
X53993Y71858D01*
X54320Y72834D02*
X54537Y72617D01*
X54537Y72400D01*
X54320Y72183D01*
X53993Y72183D01*
X53775Y72400D01*
X53775Y72617D01*
X53993Y72834D01*
X54102Y72725D01*
X54102Y72183D01*
X53775Y73267D02*
X53775Y73592D01*
X53884Y73701D01*
X54429Y73701D01*
X54537Y73592D01*
X54537Y73267D01*
X54429Y73159D01*
X54211Y73159D01*
X54102Y73267D01*
X54102Y73701D01*
X54429Y73701D02*
X54537Y73809D01*
X54320Y74784D02*
X54537Y74568D01*
X54537Y74351D01*
X54320Y74134D01*
X54102Y74134D01*
X53884Y74351D01*
X53884Y74568D01*
X54102Y74784D01*
X53449Y74784D02*
X54537Y74784D01*
X54320Y75760D02*
X54537Y75543D01*
X54537Y75326D01*
X54320Y75109D01*
X53993Y75109D01*
X53775Y75326D01*
X53775Y75543D01*
X53993Y75760D01*
X54102Y75651D01*
X54102Y75109D01*
X54102Y76085D02*
X53775Y76410D01*
X53775Y76518D01*
X53993Y76735D01*
X54537Y76085D02*
X53775Y76085D01*
X26743Y76727D02*
X27831Y76727D01*
X27831Y76293D01*
X27613Y76076D01*
X27505Y76076D01*
X27287Y76293D01*
X27287Y76727D01*
X26960Y75751D02*
X26743Y75535D01*
X26743Y75318D01*
X26960Y75101D01*
X27287Y75101D01*
X27505Y75318D01*
X27505Y75535D01*
X27287Y75751D01*
X26960Y75751D01*
X27831Y74668D02*
X26960Y74668D01*
X26743Y74451D01*
X26960Y73801D02*
X26743Y73584D01*
X26743Y73367D01*
X26960Y73150D01*
X27287Y73150D01*
X27505Y73367D01*
X27505Y73584D01*
X27287Y73801D01*
X26960Y73801D01*
X27831Y72717D02*
X26960Y72717D01*
X26743Y72500D01*
X27505Y71850D02*
X26960Y71850D01*
X26743Y71633D01*
X26743Y71416D01*
X26960Y71200D01*
X27505Y71200D01*
X26960Y71200D02*
X26743Y71200D01*
X26743Y69899D02*
X27396Y69899D01*
X27831Y69682D01*
X27831Y69466D01*
X27396Y69249D01*
X26743Y69249D01*
X27069Y69899D02*
X27069Y69249D01*
X27178Y68274D02*
X27178Y68924D01*
X27831Y68382D01*
X26743Y68382D01*
X26743Y68490D02*
X26743Y68274D01*
X26960Y67948D02*
X26743Y67732D01*
X26743Y67515D01*
X26960Y67298D01*
X27396Y67298D01*
X27613Y67298D01*
X27831Y67515D01*
X27831Y67732D01*
X27613Y67948D01*
X27396Y67948D01*
X27178Y67732D01*
X27178Y67515D01*
X27396Y67298D01*
X26743Y66540D02*
X26743Y66756D01*
X26960Y66973D01*
X27178Y66973D01*
X27287Y66865D01*
X27396Y66973D01*
X27613Y66973D01*
X27831Y66756D01*
X27831Y66540D01*
X27613Y66323D01*
X27396Y66323D01*
X27287Y66431D01*
X27178Y66323D01*
X26960Y66323D01*
X26743Y66540D01*
X27287Y66865D02*
X27287Y66431D01*
X26743Y65564D02*
X26743Y65781D01*
X26960Y65998D01*
X27178Y65998D01*
X27287Y65889D01*
X27396Y65998D01*
X27613Y65998D01*
X27831Y65781D01*
X27831Y65564D01*
X27613Y65347D01*
X27396Y65347D01*
X27287Y65456D01*
X27178Y65347D01*
X26960Y65347D01*
X26743Y65564D01*
X27287Y65889D02*
X27287Y65456D01*
X26743Y64047D02*
X27831Y64047D01*
X26743Y63397D02*
X27831Y63397D01*
X27287Y64047D02*
X27287Y63397D01*
X26960Y62421D02*
X26743Y62638D01*
X26743Y62855D01*
X26960Y63072D01*
X27287Y63072D01*
X27505Y62855D01*
X27505Y62638D01*
X27287Y62421D01*
X27178Y62530D01*
X27178Y63072D01*
X27505Y61988D02*
X27505Y61663D01*
X27396Y61554D01*
X26851Y61554D01*
X26743Y61663D01*
X26743Y61988D01*
X26851Y62096D01*
X27069Y62096D01*
X27178Y61988D01*
X27178Y61554D01*
X26851Y61554D02*
X26743Y61446D01*
X26960Y60471D02*
X26743Y60687D01*
X26743Y60904D01*
X26960Y61121D01*
X27178Y61121D01*
X27396Y60904D01*
X27396Y60687D01*
X27178Y60471D01*
X27831Y60471D02*
X26743Y60471D01*
X26960Y59495D02*
X26743Y59712D01*
X26743Y59929D01*
X26960Y60146D01*
X27287Y60146D01*
X27505Y59929D01*
X27505Y59712D01*
X27287Y59495D01*
X27178Y59604D01*
X27178Y60146D01*
X27178Y59170D02*
X27505Y58845D01*
X27505Y58737D01*
X27287Y58520D01*
X26743Y59170D02*
X27505Y59170D01*
X54537Y20428D02*
X53449Y20428D01*
X53449Y20862D01*
X53667Y21079D01*
X53775Y21079D01*
X53993Y20862D01*
X53993Y20428D01*
X54320Y21404D02*
X54537Y21620D01*
X54537Y21837D01*
X54320Y22054D01*
X53993Y22054D01*
X53775Y21837D01*
X53775Y21620D01*
X53993Y21404D01*
X54320Y21404D01*
X53449Y22487D02*
X54320Y22487D01*
X54537Y22704D01*
X54320Y23354D02*
X54537Y23571D01*
X54537Y23788D01*
X54320Y24005D01*
X53993Y24005D01*
X53775Y23788D01*
X53775Y23571D01*
X53993Y23354D01*
X54320Y23354D01*
X53449Y24438D02*
X54320Y24438D01*
X54537Y24655D01*
X53775Y25305D02*
X54320Y25305D01*
X54537Y25522D01*
X54537Y25739D01*
X54320Y25955D01*
X53775Y25955D01*
X54320Y25955D02*
X54537Y25955D01*
X54537Y27256D02*
X53884Y27256D01*
X53449Y27473D01*
X53449Y27689D01*
X53884Y27906D01*
X54537Y27906D01*
X54211Y27256D02*
X54211Y27906D01*
X54102Y28881D02*
X54102Y28231D01*
X53449Y28773D01*
X54537Y28773D01*
X54537Y28665D02*
X54537Y28881D01*
X54320Y29207D02*
X54537Y29423D01*
X54537Y29640D01*
X54320Y29857D01*
X53884Y29857D01*
X53667Y29857D01*
X53449Y29640D01*
X53449Y29423D01*
X53667Y29207D01*
X53884Y29207D01*
X54102Y29423D01*
X54102Y29640D01*
X53884Y29857D01*
X54537Y30615D02*
X54537Y30399D01*
X54320Y30182D01*
X54102Y30182D01*
X53993Y30290D01*
X53884Y30182D01*
X53667Y30182D01*
X53449Y30399D01*
X53449Y30615D01*
X53667Y30832D01*
X53884Y30832D01*
X53993Y30724D01*
X54102Y30832D01*
X54320Y30832D01*
X54537Y30615D01*
X53993Y30290D02*
X53993Y30724D01*
X54537Y31591D02*
X54537Y31374D01*
X54320Y31157D01*
X54102Y31157D01*
X53993Y31266D01*
X53884Y31157D01*
X53667Y31157D01*
X53449Y31374D01*
X53449Y31591D01*
X53667Y31808D01*
X53884Y31808D01*
X53993Y31699D01*
X54102Y31808D01*
X54320Y31808D01*
X54537Y31591D01*
X53993Y31266D02*
X53993Y31699D01*
X54537Y33108D02*
X53449Y33108D01*
X54537Y33758D02*
X53449Y33758D01*
X53993Y33108D02*
X53993Y33758D01*
X54320Y34734D02*
X54537Y34517D01*
X54537Y34300D01*
X54320Y34083D01*
X53993Y34083D01*
X53775Y34300D01*
X53775Y34517D01*
X53993Y34734D01*
X54102Y34625D01*
X54102Y34083D01*
X53775Y35167D02*
X53775Y35492D01*
X53884Y35601D01*
X54429Y35601D01*
X54537Y35492D01*
X54537Y35167D01*
X54429Y35059D01*
X54211Y35059D01*
X54102Y35167D01*
X54102Y35601D01*
X54429Y35601D02*
X54537Y35709D01*
X54320Y36684D02*
X54537Y36468D01*
X54537Y36251D01*
X54320Y36034D01*
X54102Y36034D01*
X53884Y36251D01*
X53884Y36468D01*
X54102Y36684D01*
X53449Y36684D02*
X54537Y36684D01*
X54320Y37660D02*
X54537Y37443D01*
X54537Y37226D01*
X54320Y37009D01*
X53993Y37009D01*
X53775Y37226D01*
X53775Y37443D01*
X53993Y37660D01*
X54102Y37551D01*
X54102Y37009D01*
X54102Y37985D02*
X53775Y38310D01*
X53775Y38418D01*
X53993Y38635D01*
X54537Y37985D02*
X53775Y37985D01*
X27378Y38627D02*
X28466Y38627D01*
X28466Y38193D01*
X28248Y37976D01*
X28140Y37976D01*
X27922Y38193D01*
X27922Y38627D01*
X27595Y37651D02*
X27378Y37435D01*
X27378Y37218D01*
X27595Y37001D01*
X27922Y37001D01*
X28140Y37218D01*
X28140Y37435D01*
X27922Y37651D01*
X27595Y37651D01*
X28466Y36568D02*
X27595Y36568D01*
X27378Y36351D01*
X27595Y35701D02*
X27378Y35484D01*
X27378Y35267D01*
X27595Y35050D01*
X27922Y35050D01*
X28140Y35267D01*
X28140Y35484D01*
X27922Y35701D01*
X27595Y35701D01*
X28466Y34617D02*
X27595Y34617D01*
X27378Y34400D01*
X28140Y33750D02*
X27595Y33750D01*
X27378Y33533D01*
X27378Y33316D01*
X27595Y33100D01*
X28140Y33100D01*
X27595Y33100D02*
X27378Y33100D01*
X27378Y31799D02*
X28031Y31799D01*
X28466Y31582D01*
X28466Y31366D01*
X28031Y31149D01*
X27378Y31149D01*
X27704Y31799D02*
X27704Y31149D01*
X27813Y30174D02*
X27813Y30824D01*
X28466Y30282D01*
X27378Y30282D01*
X27378Y30390D02*
X27378Y30174D01*
X27595Y29848D02*
X27378Y29632D01*
X27378Y29415D01*
X27595Y29198D01*
X28031Y29198D01*
X28248Y29198D01*
X28466Y29415D01*
X28466Y29632D01*
X28248Y29848D01*
X28031Y29848D01*
X27813Y29632D01*
X27813Y29415D01*
X28031Y29198D01*
X27378Y28440D02*
X27378Y28656D01*
X27595Y28873D01*
X27813Y28873D01*
X27922Y28765D01*
X28031Y28873D01*
X28248Y28873D01*
X28466Y28656D01*
X28466Y28440D01*
X28248Y28223D01*
X28031Y28223D01*
X27922Y28331D01*
X27813Y28223D01*
X27595Y28223D01*
X27378Y28440D01*
X27922Y28765D02*
X27922Y28331D01*
X27378Y27464D02*
X27378Y27681D01*
X27595Y27898D01*
X27813Y27898D01*
X27922Y27789D01*
X28031Y27898D01*
X28248Y27898D01*
X28466Y27681D01*
X28466Y27464D01*
X28248Y27247D01*
X28031Y27247D01*
X27922Y27356D01*
X27813Y27247D01*
X27595Y27247D01*
X27378Y27464D01*
X27922Y27789D02*
X27922Y27356D01*
X27378Y25947D02*
X28466Y25947D01*
X27378Y25297D02*
X28466Y25297D01*
X27922Y25947D02*
X27922Y25297D01*
X27595Y24321D02*
X27378Y24538D01*
X27378Y24755D01*
X27595Y24972D01*
X27922Y24972D01*
X28140Y24755D01*
X28140Y24538D01*
X27922Y24321D01*
X27813Y24430D01*
X27813Y24972D01*
X28140Y23888D02*
X28140Y23563D01*
X28031Y23454D01*
X27486Y23454D01*
X27378Y23563D01*
X27378Y23888D01*
X27486Y23996D01*
X27704Y23996D01*
X27813Y23888D01*
X27813Y23454D01*
X27486Y23454D02*
X27378Y23346D01*
X27595Y22371D02*
X27378Y22587D01*
X27378Y22804D01*
X27595Y23021D01*
X27813Y23021D01*
X28031Y22804D01*
X28031Y22587D01*
X27813Y22371D01*
X28466Y22371D02*
X27378Y22371D01*
X27595Y21395D02*
X27378Y21612D01*
X27378Y21829D01*
X27595Y22046D01*
X27922Y22046D01*
X28140Y21829D01*
X28140Y21612D01*
X27922Y21395D01*
X27813Y21504D01*
X27813Y22046D01*
X27813Y21070D02*
X28140Y20745D01*
X28140Y20637D01*
X27922Y20420D01*
X27378Y21070D02*
X28140Y21070D01*
G54D17*
X77529Y84633D02*
X77529Y85344D01*
X77172Y85699D01*
X76101Y85699D01*
X75744Y85344D01*
X75744Y84633D01*
X75744Y84811D02*
X77529Y84811D01*
X77172Y87299D02*
X77529Y86944D01*
X77529Y86588D01*
X77172Y86233D01*
X76636Y86233D01*
X76279Y86588D01*
X76279Y86944D01*
X76636Y87299D01*
X76815Y87122D01*
X76815Y86233D01*
X77172Y87833D02*
X77529Y88188D01*
X77529Y88544D01*
X77172Y88899D01*
X76636Y87833D01*
X76279Y88188D01*
X76279Y88544D01*
X76636Y88899D01*
X77529Y89966D02*
X76458Y89966D01*
X76101Y89966D02*
X75922Y89966D01*
X77708Y91033D02*
X78065Y91388D01*
X78065Y91744D01*
X77708Y92099D01*
X77172Y92099D01*
X76636Y92099D01*
X76279Y91744D01*
X76279Y91388D01*
X76636Y91033D01*
X77172Y91033D01*
X77529Y91388D01*
X77529Y91744D01*
X77172Y92099D01*
X77529Y92633D02*
X76458Y92633D01*
X76279Y92633D01*
X76458Y92633D02*
X76279Y92811D01*
X76279Y93166D01*
X76458Y93344D01*
X77529Y93344D01*
X77172Y95299D02*
X77529Y94944D01*
X77529Y94588D01*
X77172Y94233D01*
X76636Y94233D01*
X76279Y94588D01*
X76279Y94944D01*
X76636Y95299D01*
X76815Y95122D01*
X76815Y94233D01*
X77172Y96899D02*
X77529Y96544D01*
X77529Y96188D01*
X77172Y95833D01*
X76815Y95833D01*
X76458Y96188D01*
X76458Y96544D01*
X76815Y96899D01*
X75744Y96899D02*
X77529Y96899D01*
X77172Y99033D02*
X77529Y99388D01*
X77529Y99744D01*
X77172Y100099D01*
X76815Y100099D01*
X76458Y99744D01*
X76458Y99388D01*
X76815Y99033D01*
X75744Y99033D02*
X77529Y99033D01*
X78065Y100633D02*
X78065Y100811D01*
X76279Y101699D01*
X76279Y100633D02*
X77351Y101166D01*
X77529Y103833D02*
X75744Y103833D01*
X77529Y104899D02*
X75744Y104899D01*
X76636Y103833D02*
X76636Y104899D01*
X76279Y105611D02*
X76279Y106144D01*
X76458Y106322D01*
X77351Y106322D01*
X77529Y106144D01*
X77529Y105611D01*
X77351Y105433D01*
X76994Y105433D01*
X76815Y105611D01*
X76815Y106322D01*
X77351Y106322D02*
X77529Y106499D01*
X77529Y107033D02*
X76458Y107033D01*
X76279Y107033D01*
X76458Y107033D02*
X76279Y107211D01*
X76279Y107566D01*
X76458Y107744D01*
X77529Y107744D01*
X77172Y108633D02*
X77529Y108988D01*
X77529Y109344D01*
X77172Y109699D01*
X76636Y108633D01*
X76279Y108988D01*
X76279Y109344D01*
X76636Y109699D01*
X75744Y111833D02*
X77529Y112366D01*
X75744Y112899D01*
X77529Y113966D02*
X76458Y113966D01*
X76101Y113966D02*
X75922Y113966D01*
X77529Y115033D02*
X76458Y115033D01*
X76279Y115033D01*
X76458Y115033D02*
X76279Y115211D01*
X76279Y115566D01*
X76458Y115744D01*
X77529Y115744D01*
X76815Y116633D02*
X76815Y116988D01*
X76279Y117522D01*
X76815Y116988D02*
X77529Y117522D01*
X77529Y116633D02*
X75744Y116633D01*
X77172Y119299D02*
X77529Y118944D01*
X77529Y118588D01*
X77172Y118233D01*
X76636Y118233D01*
X76279Y118588D01*
X76279Y118944D01*
X76636Y119299D01*
X76815Y119122D01*
X76815Y118233D01*
G54D18*
X-254Y-254D02*
X-254Y11989D01*
X-254Y-254D02*
X7925Y-254D01*
X81534Y-254D02*
X73355Y-254D01*
X81534Y-254D02*
X81534Y11989D01*
X81534Y122174D02*
X81534Y109931D01*
X81534Y122174D02*
X73355Y122174D01*
X-254Y122174D02*
X7925Y122174D01*
X-254Y122174D02*
X-254Y109931D01*
X-5254Y-254D02*
X-15254Y-254D01*
X-10254Y-5254D02*
X-10254Y4746D01*
X-14004Y-254D02*
G75*
D01*
G02X-14004Y-254I3750J0*
G01*
X86534Y-254D02*
X96534Y-254D01*
X91534Y-5254D02*
X91534Y4746D01*
X87784Y-254D02*
G75*
D01*
G02X87784Y-254I3750J0*
G01*
X90284Y-254D02*
G75*
D01*
G02X90284Y-254I1250J0*
G01*
X-5254Y122174D02*
X-15254Y122174D01*
X-10254Y117174D02*
X-10254Y127174D01*
X-14004Y122174D02*
G75*
D01*
G02X-14004Y122174I3750J0*
G01*
X-12754Y122174D02*
G75*
D01*
G02X-12754Y122174I2500J0*
G01*
X-11504Y122174D02*
G75*
D01*
G02X-11504Y122174I1250J0*
G01*

M02*
