G04 Generated by Ultiboard 14.1 *
%FSLAX33Y33*%
%MOMM*%

%ADD10C,0.001*%
%ADD11C,0.127*%


G04 ColorRGB FF14FF for the following layer *
%LNSilkscreen Bottom*%
%LPD*%
G54D10*
G54D11*
X-254Y-254D02*
X-254Y11989D01*
X-254Y-254D02*
X7925Y-254D01*
X81534Y-254D02*
X73355Y-254D01*
X81534Y-254D02*
X81534Y11989D01*
X81534Y122174D02*
X81534Y109931D01*
X81534Y122174D02*
X73355Y122174D01*
X-254Y122174D02*
X7925Y122174D01*
X-254Y122174D02*
X-254Y109931D01*
X-5254Y-254D02*
X-15254Y-254D01*
X-10254Y-5254D02*
X-10254Y4746D01*
X-14004Y-254D02*
G75*
D01*
G02X-14004Y-254I3750J0*
G01*
X86534Y-254D02*
X96534Y-254D01*
X91534Y-5254D02*
X91534Y4746D01*
X87784Y-254D02*
G75*
D01*
G02X87784Y-254I3750J0*
G01*
X90284Y-254D02*
G75*
D01*
G02X90284Y-254I1250J0*
G01*
X-5254Y122174D02*
X-15254Y122174D01*
X-10254Y117174D02*
X-10254Y127174D01*
X-14004Y122174D02*
G75*
D01*
G02X-14004Y122174I3750J0*
G01*
X-12754Y122174D02*
G75*
D01*
G02X-12754Y122174I2500J0*
G01*
X-11504Y122174D02*
G75*
D01*
G02X-11504Y122174I1250J0*
G01*

M02*
