G04 Generated by Ultiboard 14.1 *
%FSLAX33Y33*%
%MOMM*%

%ADD10C,0.001*%
%ADD11C,0.127*%
%ADD12C,2.000*%
%ADD13R,1.153X1.153*%
%ADD14C,0.847*%
%ADD15C,3.500*%
%ADD16C,1.500*%
%ADD17R,1.005X1.005*%
%ADD18C,0.995*%


G04 ColorRGB 9900CC for the following layer *
%LNSolder Mask Bottom*%
%LPD*%
G54D10*
G54D11*
X-254Y-254D02*
X-254Y11989D01*
X-254Y-254D02*
X7925Y-254D01*
X81534Y-254D02*
X73355Y-254D01*
X81534Y-254D02*
X81534Y11989D01*
X81534Y122174D02*
X81534Y109931D01*
X81534Y122174D02*
X73355Y122174D01*
X-254Y122174D02*
X7925Y122174D01*
X-254Y122174D02*
X-254Y109931D01*
X-5254Y-254D02*
X-15254Y-254D01*
X-10254Y-5254D02*
X-10254Y4746D01*
X-14004Y-254D02*
G75*
D01*
G02X-14004Y-254I3750J0*
G01*
X86534Y-254D02*
X96534Y-254D01*
X91534Y-5254D02*
X91534Y4746D01*
X87784Y-254D02*
G75*
D01*
G02X87784Y-254I3750J0*
G01*
X90284Y-254D02*
G75*
D01*
G02X90284Y-254I1250J0*
G01*
X-5254Y122174D02*
X-15254Y122174D01*
X-10254Y117174D02*
X-10254Y127174D01*
X-14004Y122174D02*
G75*
D01*
G02X-14004Y122174I3750J0*
G01*
X-12754Y122174D02*
G75*
D01*
G02X-12754Y122174I2500J0*
G01*
X-11504Y122174D02*
G75*
D01*
G02X-11504Y122174I1250J0*
G01*
G54D12*
X36830Y45720D03*
X36830Y48260D03*
X44450Y48260D03*
X36830Y50800D03*
X44450Y50800D03*
X68270Y83820D03*
X64770Y83820D03*
X68270Y45720D03*
X64770Y45720D03*
X25400Y87630D03*
X25400Y90170D03*
X25400Y92710D03*
X25400Y95250D03*
X25400Y97790D03*
X25400Y100330D03*
X25400Y102870D03*
X25400Y113030D03*
X25400Y110490D03*
X25400Y107950D03*
X25400Y105410D03*
X25400Y115570D03*
X55880Y113030D03*
X58420Y113030D03*
X60960Y113030D03*
X63500Y113030D03*
X35560Y97790D03*
X38100Y97790D03*
X40640Y97790D03*
X43180Y97790D03*
X45720Y97790D03*
X48260Y97790D03*
X50800Y97790D03*
X53340Y97790D03*
X55880Y97790D03*
X58420Y97790D03*
X60960Y97790D03*
X63500Y97790D03*
X35560Y113030D03*
X38100Y113030D03*
X40640Y113030D03*
X43180Y113030D03*
X45720Y113030D03*
X48260Y113030D03*
X50800Y113030D03*
X53340Y113030D03*
X29210Y8890D03*
X31750Y8890D03*
X34290Y8890D03*
X36830Y8890D03*
X39370Y8890D03*
X41910Y8890D03*
X44450Y8890D03*
X46990Y8890D03*
X49530Y8890D03*
X52070Y8890D03*
X29210Y11430D03*
X31750Y11430D03*
X34290Y11430D03*
X36830Y11430D03*
X39370Y11430D03*
X41910Y11430D03*
X44450Y11430D03*
X46990Y11430D03*
X49530Y11430D03*
X52070Y11430D03*
X69850Y20320D03*
X69850Y22860D03*
X69850Y25400D03*
X69850Y27940D03*
X69850Y30480D03*
X69850Y33020D03*
X69850Y35560D03*
X69850Y38100D03*
X11430Y20320D03*
X11430Y22860D03*
X11430Y25400D03*
X11430Y27940D03*
X11430Y30480D03*
X11430Y33020D03*
X11430Y35560D03*
X11430Y38100D03*
X11430Y63500D03*
X11430Y76200D03*
X11430Y73660D03*
X11430Y66040D03*
X11430Y60960D03*
X11430Y58420D03*
X11430Y68580D03*
X11430Y71120D03*
X69850Y58420D03*
X69850Y73660D03*
X69850Y76200D03*
X69850Y66040D03*
X69850Y63500D03*
X69850Y71120D03*
X69850Y68580D03*
X69850Y60960D03*
X60960Y11430D03*
X46990Y58420D03*
X59690Y58420D03*
X46990Y60960D03*
X59690Y60960D03*
X46990Y63500D03*
X59690Y63500D03*
X46990Y66040D03*
X59690Y66040D03*
X46990Y68580D03*
X59690Y68580D03*
X46990Y71120D03*
X59690Y71120D03*
X46990Y73660D03*
X59690Y73660D03*
X46990Y76200D03*
X59690Y76200D03*
X21590Y58420D03*
X34290Y58420D03*
X21590Y60960D03*
X34290Y60960D03*
X21590Y63500D03*
X34290Y63500D03*
X21590Y66040D03*
X34290Y66040D03*
X21590Y68580D03*
X34290Y68580D03*
X21590Y71120D03*
X34290Y71120D03*
X21590Y73660D03*
X34290Y73660D03*
X21590Y76200D03*
X34290Y76200D03*
X46990Y20320D03*
X59690Y20320D03*
X46990Y22860D03*
X59690Y22860D03*
X46990Y25400D03*
X59690Y25400D03*
X46990Y27940D03*
X59690Y27940D03*
X46990Y30480D03*
X59690Y30480D03*
X46990Y33020D03*
X59690Y33020D03*
X46990Y35560D03*
X59690Y35560D03*
X46990Y38100D03*
X59690Y38100D03*
X21590Y20320D03*
X34290Y20320D03*
X21590Y22860D03*
X34290Y22860D03*
X21590Y25400D03*
X34290Y25400D03*
X21590Y27940D03*
X34290Y27940D03*
X21590Y30480D03*
X34290Y30480D03*
X21590Y33020D03*
X34290Y33020D03*
X21590Y35560D03*
X34290Y35560D03*
X21590Y38100D03*
X34290Y38100D03*
X16510Y50800D03*
X13010Y50800D03*
X16510Y12700D03*
X13010Y12700D03*
X13970Y104450D03*
X13970Y107950D03*
G54D13*
X44450Y45720D03*
G54D14*
X43874Y45144D02*
X45026Y45144D01*
X45026Y46296D01*
X43874Y46296D01*
X43874Y45144D01*D02*
G54D15*
X70485Y8255D03*
X6985Y113665D03*
X10160Y87000D03*
X10160Y96520D03*
G54D16*
X46990Y17780D03*
G54D17*
X60960Y8890D03*
G54D18*
X60458Y8388D02*
X61462Y8388D01*
X61462Y9392D01*
X60458Y9392D01*
X60458Y8388D01*D02*

M02*
